%TF.GenerationSoftware,KiCad,Pcbnew,(5.1.9)-1*%
%TF.CreationDate,2021-08-18T01:11:22-04:00*%
%TF.ProjectId,CC2652_OnBoard,43433236-3532-45f4-9f6e-426f6172642e,rev?*%
%TF.SameCoordinates,Original*%
%TF.FileFunction,Copper,L2,Inr*%
%TF.FilePolarity,Positive*%
%FSLAX46Y46*%
G04 Gerber Fmt 4.6, Leading zero omitted, Abs format (unit mm)*
G04 Created by KiCad (PCBNEW (5.1.9)-1) date 2021-08-18 01:11:22*
%MOMM*%
%LPD*%
G01*
G04 APERTURE LIST*
%TA.AperFunction,ComponentPad*%
%ADD10R,0.500000X0.900000*%
%TD*%
%TA.AperFunction,ComponentPad*%
%ADD11O,1.900000X1.050000*%
%TD*%
%TA.AperFunction,ComponentPad*%
%ADD12O,1.700000X1.700000*%
%TD*%
%TA.AperFunction,ComponentPad*%
%ADD13R,1.700000X1.700000*%
%TD*%
%TA.AperFunction,ViaPad*%
%ADD14C,0.600000*%
%TD*%
%TA.AperFunction,ViaPad*%
%ADD15C,0.400000*%
%TD*%
%TA.AperFunction,Conductor*%
%ADD16C,0.127000*%
%TD*%
%TA.AperFunction,Conductor*%
%ADD17C,0.100000*%
%TD*%
G04 APERTURE END LIST*
D10*
%TO.N,GND*%
%TO.C,REF\u002A\u002A*%
X80150000Y-78400000D03*
%TD*%
D11*
%TO.N,N/C*%
%TO.C,USB_CONNECTOR_A1*%
X161650000Y-78825000D03*
X161650000Y-85975000D03*
%TD*%
D12*
%TO.N,USB_VBUS*%
%TO.C,PINS_PWR_IZQ1*%
X84320000Y-49200000D03*
%TO.N,GND*%
X86860000Y-49200000D03*
D13*
X89400000Y-49200000D03*
%TD*%
D12*
%TO.N,VDDS*%
%TO.C,PINS_PWR_DER1*%
X84520000Y-116100000D03*
%TO.N,GND*%
X87060000Y-116100000D03*
D13*
X89600000Y-116100000D03*
%TD*%
D12*
%TO.N,GPIO1*%
%TO.C,PINS_IZQ1*%
X96590000Y-51790000D03*
%TO.N,GPIO5*%
X96590000Y-49250000D03*
%TO.N,GPIO0*%
X99130000Y-51790000D03*
%TO.N,GPIO4*%
X99130000Y-49250000D03*
%TO.N,GPIO30*%
X101670000Y-51790000D03*
%TO.N,GPIO21*%
X101670000Y-49250000D03*
%TO.N,GPIO29*%
X104210000Y-51790000D03*
%TO.N,Net-(PINS_IZQ1-Pad13)*%
X104210000Y-49250000D03*
%TO.N,GPIO28*%
X106750000Y-51790000D03*
%TO.N,GPIO24*%
X106750000Y-49250000D03*
%TO.N,GPIO27*%
X109290000Y-51790000D03*
%TO.N,GPIO22*%
X109290000Y-49250000D03*
%TO.N,GPIO26*%
X111830000Y-51790000D03*
%TO.N,GPIO3*%
X111830000Y-49250000D03*
%TO.N,GPIO25*%
X114370000Y-51790000D03*
%TO.N,GPIO2*%
X114370000Y-49250000D03*
%TO.N,GND*%
X116910000Y-51790000D03*
%TO.N,GPIO23*%
X116910000Y-49250000D03*
%TO.N,USB_VBUS*%
X119450000Y-51790000D03*
D13*
%TO.N,VDDS*%
X119450000Y-49250000D03*
%TD*%
D12*
%TO.N,GPIO15*%
%TO.C,PINS_DER1*%
X96590000Y-116090000D03*
%TO.N,GPIO17-JTDI*%
X96590000Y-113550000D03*
%TO.N,GPIO14*%
X99130000Y-116090000D03*
%TO.N,GPIO16-JTDO*%
X99130000Y-113550000D03*
%TO.N,GPIO13*%
X101670000Y-116090000D03*
%TO.N,JTAG_TCKC*%
X101670000Y-113550000D03*
%TO.N,Net-(PINS_DER1-Pad14)*%
X104210000Y-116090000D03*
%TO.N,JTAG_TMSC*%
X104210000Y-113550000D03*
%TO.N,Net-(PINS_DER1-Pad12)*%
X106750000Y-116090000D03*
%TO.N,Net-(PINS_DER1-Pad11)*%
X106750000Y-113550000D03*
%TO.N,RESET_N*%
X109290000Y-116090000D03*
%TO.N,Net-(PINS_DER1-Pad9)*%
X109290000Y-113550000D03*
%TO.N,Net-(PINS_DER1-Pad8)*%
X111830000Y-116090000D03*
%TO.N,Net-(PINS_DER1-Pad7)*%
X111830000Y-113550000D03*
%TO.N,GPIO11*%
X114370000Y-116090000D03*
%TO.N,Net-(PINS_DER1-Pad5)*%
X114370000Y-113550000D03*
%TO.N,GPIO12*%
X116910000Y-116090000D03*
%TO.N,GPIO6*%
X116910000Y-113550000D03*
%TO.N,GND*%
X119450000Y-116090000D03*
D13*
%TO.N,GPIO7*%
X119450000Y-113550000D03*
%TD*%
D14*
%TO.N,GND*%
X103500000Y-95300000D03*
X103400000Y-97900000D03*
X101600000Y-97900000D03*
X101600000Y-95300000D03*
X102500000Y-96600000D03*
X108000000Y-84000000D03*
X106700000Y-82700000D03*
X109300000Y-82700000D03*
X109300000Y-85300000D03*
X106700000Y-85300000D03*
X146900000Y-82400000D03*
X147700000Y-83300000D03*
X147700000Y-81500000D03*
X146000000Y-81500000D03*
X146000000Y-83300000D03*
%TO.N,VDDS*%
X146800000Y-88500000D03*
D15*
%TO.N,Vin_CC2652*%
X157900000Y-97800000D03*
X153500000Y-98900000D03*
%TO.N,FLASH_nCS*%
X99800000Y-93400000D03*
X112800000Y-84250000D03*
D14*
%TO.N,USB_VBUS*%
X149425000Y-79850000D03*
X154500000Y-84250000D03*
%TO.N,GND*%
X157000000Y-93450000D03*
X153800000Y-96250000D03*
X153800000Y-94250000D03*
X119200000Y-100800000D03*
X119900000Y-94700000D03*
X123000000Y-97200000D03*
X126400000Y-88000000D03*
X132100000Y-88000000D03*
X138300000Y-87900000D03*
X129200000Y-91400000D03*
X134400000Y-91300000D03*
X139400000Y-91400000D03*
X142700000Y-89200000D03*
X132700000Y-102200000D03*
X142200000Y-100500000D03*
X147000000Y-101200000D03*
X137650000Y-101800000D03*
X142200000Y-103600000D03*
X147400000Y-104000000D03*
X151400000Y-107400000D03*
X156500000Y-107500000D03*
X161400000Y-105400000D03*
X161400000Y-99000000D03*
X161400000Y-92600000D03*
X161400000Y-89200000D03*
X158400000Y-89400000D03*
X155800000Y-88400000D03*
X139100000Y-118650000D03*
X123850000Y-118600000D03*
X148600000Y-118700000D03*
X89800000Y-118600000D03*
X81600000Y-118600000D03*
X81800000Y-110400000D03*
X81800000Y-105400000D03*
X85800000Y-110200000D03*
X90000000Y-110400000D03*
X86200000Y-105400000D03*
X90000000Y-105800000D03*
X95800000Y-106600000D03*
X97600000Y-102400000D03*
X95800000Y-98200000D03*
X102600000Y-101800000D03*
X118600000Y-106200000D03*
X132000000Y-83200000D03*
X137800000Y-82800000D03*
X141000000Y-74600000D03*
X137200000Y-78400000D03*
X140600000Y-79600000D03*
X161000000Y-72600000D03*
X161000000Y-65200000D03*
X161000000Y-57200000D03*
X139600000Y-46550000D03*
X152000000Y-57200000D03*
X151600000Y-60600000D03*
X152000000Y-66400000D03*
X152400000Y-75000000D03*
X156600000Y-74800000D03*
X156600000Y-69600000D03*
X156600000Y-63600000D03*
X156400000Y-58200000D03*
X91000000Y-55000000D03*
X91200000Y-60400000D03*
X91200000Y-66000000D03*
X91400000Y-71600000D03*
X82100000Y-69900000D03*
X82100000Y-64900000D03*
X82000000Y-58800000D03*
X86600000Y-71400000D03*
X86600000Y-66200000D03*
X86600000Y-61400000D03*
X86800000Y-56200000D03*
X82000000Y-76400000D03*
X87000000Y-76000000D03*
X81800000Y-84800000D03*
X81700000Y-89200000D03*
X81800000Y-94500000D03*
X86600000Y-94800000D03*
X101600000Y-63200000D03*
X105000000Y-65000000D03*
X101600000Y-69000000D03*
X105200000Y-69400000D03*
X115800000Y-57200000D03*
X117800000Y-59400000D03*
X127600000Y-55000000D03*
X133400000Y-55200000D03*
X130200000Y-59600000D03*
X135900000Y-58600000D03*
X122000000Y-75000000D03*
X127200000Y-74800000D03*
X145800000Y-67800000D03*
X116000000Y-68600000D03*
X111600000Y-69400000D03*
X126400000Y-49700000D03*
X114400000Y-102600000D03*
X110600000Y-103900000D03*
X133000000Y-49500000D03*
X82200000Y-53200000D03*
X137800000Y-108000000D03*
X113000000Y-94300000D03*
X116600000Y-96900000D03*
X116700000Y-92400000D03*
X91400000Y-76000000D03*
X89300000Y-83900000D03*
X124600000Y-110000000D03*
X157400000Y-102900000D03*
X147850000Y-50750000D03*
D15*
%TO.N,GPIO23*%
X112100000Y-80000000D03*
D14*
%TO.N,VDDR*%
X104150000Y-79450000D03*
%TO.N,GPIO25*%
X115400000Y-72200000D03*
%TO.N,VDDS*%
X138800000Y-62400000D03*
X123600000Y-61700000D03*
X117900000Y-65100000D03*
X116100000Y-79700000D03*
X104100000Y-92600000D03*
X129900000Y-64200000D03*
%TO.N,GPIO13*%
X130360000Y-106590000D03*
%TO.N,RESET_N*%
X113270000Y-78580000D03*
X144660000Y-93860000D03*
D15*
X120500000Y-111000000D03*
D14*
X143650000Y-64325000D03*
%TO.N,VDDS*%
X129900000Y-66900000D03*
X110050000Y-88920000D03*
X103250000Y-90350000D03*
X98800000Y-92400000D03*
D15*
X107250000Y-78800000D03*
D14*
%TO.N,VDDR*%
X116900000Y-77050000D03*
X105650000Y-75250000D03*
%TO.N,Vin_CC2652*%
X151500000Y-88500000D03*
D15*
X150200000Y-81400000D03*
D14*
X150600000Y-86300000D03*
D15*
%TO.N,GPIO0*%
X85000000Y-91000000D03*
%TO.N,GPIO1*%
X86000000Y-91000000D03*
%TO.N,GPIO2*%
X87000000Y-91000000D03*
%TO.N,GPIO3*%
X88000000Y-91000000D03*
%TO.N,GPIO4*%
X89000000Y-91000000D03*
%TO.N,GPIO5*%
X90000000Y-91000000D03*
D14*
%TO.N,GPIO6*%
X91700000Y-96000000D03*
X91700000Y-100100000D03*
D15*
%TO.N,GPIO11*%
X105400000Y-100600000D03*
%TO.N,GPIO12*%
X107200000Y-100000000D03*
%TO.N,GPIO15*%
X109250000Y-100100000D03*
D14*
%TO.N,JTAG_TMSC*%
X130760000Y-98940000D03*
D15*
X120500000Y-110250000D03*
X111000000Y-110250000D03*
D14*
%TO.N,JTAG_TCKC*%
X130780000Y-97670000D03*
D15*
X120500000Y-109500000D03*
X111000000Y-109500000D03*
D14*
%TO.N,GPIO16-JTDO*%
X130750000Y-96400000D03*
D15*
X120500000Y-108750000D03*
X111000000Y-108750000D03*
D14*
%TO.N,GPIO17-JTDI*%
X130750000Y-95130000D03*
D15*
X120500000Y-108000000D03*
X111000000Y-108000000D03*
D14*
%TO.N,GPIO25*%
X130200000Y-70600000D03*
D15*
%TO.N,USB_D-*%
X157000000Y-81250000D03*
X157000000Y-83550000D03*
%TD*%
D16*
%TO.N,GND*%
X162936500Y-119784500D02*
X80063500Y-119784500D01*
X80063500Y-115997520D01*
X83479500Y-115997520D01*
X83479500Y-116202480D01*
X83519485Y-116403503D01*
X83597920Y-116592862D01*
X83711791Y-116763280D01*
X83856720Y-116908209D01*
X84027138Y-117022080D01*
X84216497Y-117100515D01*
X84417520Y-117140500D01*
X84622480Y-117140500D01*
X84823503Y-117100515D01*
X85012862Y-117022080D01*
X85183280Y-116908209D01*
X85328209Y-116763280D01*
X85442080Y-116592862D01*
X85520515Y-116403503D01*
X85539084Y-116310147D01*
X85966509Y-116310147D01*
X86028518Y-116519439D01*
X86130166Y-116712612D01*
X86267547Y-116882242D01*
X86435382Y-117021811D01*
X86627220Y-117125956D01*
X86835690Y-117190674D01*
X86849853Y-117193490D01*
X87023500Y-117146989D01*
X87023500Y-116136500D01*
X87096500Y-116136500D01*
X87096500Y-117146989D01*
X87270147Y-117193490D01*
X87284310Y-117190674D01*
X87492780Y-117125956D01*
X87684618Y-117021811D01*
X87770972Y-116950000D01*
X88485225Y-116950000D01*
X88490313Y-117001655D01*
X88505380Y-117051325D01*
X88529848Y-117097101D01*
X88562776Y-117137224D01*
X88602899Y-117170152D01*
X88648675Y-117194620D01*
X88698345Y-117209687D01*
X88750000Y-117214775D01*
X89497625Y-117213500D01*
X89563500Y-117147625D01*
X89563500Y-116136500D01*
X89636500Y-116136500D01*
X89636500Y-117147625D01*
X89702375Y-117213500D01*
X90450000Y-117214775D01*
X90501655Y-117209687D01*
X90551325Y-117194620D01*
X90597101Y-117170152D01*
X90637224Y-117137224D01*
X90670152Y-117097101D01*
X90694620Y-117051325D01*
X90709687Y-117001655D01*
X90714775Y-116950000D01*
X90713500Y-116202375D01*
X90647625Y-116136500D01*
X89636500Y-116136500D01*
X89563500Y-116136500D01*
X88552375Y-116136500D01*
X88486500Y-116202375D01*
X88485225Y-116950000D01*
X87770972Y-116950000D01*
X87852453Y-116882242D01*
X87989834Y-116712612D01*
X88091482Y-116519439D01*
X88153491Y-116310147D01*
X88107028Y-116136500D01*
X87096500Y-116136500D01*
X87023500Y-116136500D01*
X86012972Y-116136500D01*
X85966509Y-116310147D01*
X85539084Y-116310147D01*
X85560500Y-116202480D01*
X85560500Y-115997520D01*
X85539085Y-115889853D01*
X85966509Y-115889853D01*
X86012972Y-116063500D01*
X87023500Y-116063500D01*
X87023500Y-115053011D01*
X87096500Y-115053011D01*
X87096500Y-116063500D01*
X88107028Y-116063500D01*
X88153491Y-115889853D01*
X88091482Y-115680561D01*
X87989834Y-115487388D01*
X87852453Y-115317758D01*
X87770973Y-115250000D01*
X88485225Y-115250000D01*
X88486500Y-115997625D01*
X88552375Y-116063500D01*
X89563500Y-116063500D01*
X89563500Y-115052375D01*
X89636500Y-115052375D01*
X89636500Y-116063500D01*
X90647625Y-116063500D01*
X90713500Y-115997625D01*
X90713517Y-115987520D01*
X95549500Y-115987520D01*
X95549500Y-116192480D01*
X95589485Y-116393503D01*
X95667920Y-116582862D01*
X95781791Y-116753280D01*
X95926720Y-116898209D01*
X96097138Y-117012080D01*
X96286497Y-117090515D01*
X96487520Y-117130500D01*
X96692480Y-117130500D01*
X96893503Y-117090515D01*
X97082862Y-117012080D01*
X97253280Y-116898209D01*
X97398209Y-116753280D01*
X97512080Y-116582862D01*
X97590515Y-116393503D01*
X97630500Y-116192480D01*
X97630500Y-115987520D01*
X98089500Y-115987520D01*
X98089500Y-116192480D01*
X98129485Y-116393503D01*
X98207920Y-116582862D01*
X98321791Y-116753280D01*
X98466720Y-116898209D01*
X98637138Y-117012080D01*
X98826497Y-117090515D01*
X99027520Y-117130500D01*
X99232480Y-117130500D01*
X99433503Y-117090515D01*
X99622862Y-117012080D01*
X99793280Y-116898209D01*
X99938209Y-116753280D01*
X100052080Y-116582862D01*
X100130515Y-116393503D01*
X100170500Y-116192480D01*
X100170500Y-115987520D01*
X100629500Y-115987520D01*
X100629500Y-116192480D01*
X100669485Y-116393503D01*
X100747920Y-116582862D01*
X100861791Y-116753280D01*
X101006720Y-116898209D01*
X101177138Y-117012080D01*
X101366497Y-117090515D01*
X101567520Y-117130500D01*
X101772480Y-117130500D01*
X101973503Y-117090515D01*
X102162862Y-117012080D01*
X102333280Y-116898209D01*
X102478209Y-116753280D01*
X102592080Y-116582862D01*
X102670515Y-116393503D01*
X102710500Y-116192480D01*
X102710500Y-115987520D01*
X103169500Y-115987520D01*
X103169500Y-116192480D01*
X103209485Y-116393503D01*
X103287920Y-116582862D01*
X103401791Y-116753280D01*
X103546720Y-116898209D01*
X103717138Y-117012080D01*
X103906497Y-117090515D01*
X104107520Y-117130500D01*
X104312480Y-117130500D01*
X104513503Y-117090515D01*
X104702862Y-117012080D01*
X104873280Y-116898209D01*
X105018209Y-116753280D01*
X105132080Y-116582862D01*
X105210515Y-116393503D01*
X105250500Y-116192480D01*
X105250500Y-115987520D01*
X105709500Y-115987520D01*
X105709500Y-116192480D01*
X105749485Y-116393503D01*
X105827920Y-116582862D01*
X105941791Y-116753280D01*
X106086720Y-116898209D01*
X106257138Y-117012080D01*
X106446497Y-117090515D01*
X106647520Y-117130500D01*
X106852480Y-117130500D01*
X107053503Y-117090515D01*
X107242862Y-117012080D01*
X107413280Y-116898209D01*
X107558209Y-116753280D01*
X107672080Y-116582862D01*
X107750515Y-116393503D01*
X107790500Y-116192480D01*
X107790500Y-115987520D01*
X108249500Y-115987520D01*
X108249500Y-116192480D01*
X108289485Y-116393503D01*
X108367920Y-116582862D01*
X108481791Y-116753280D01*
X108626720Y-116898209D01*
X108797138Y-117012080D01*
X108986497Y-117090515D01*
X109187520Y-117130500D01*
X109392480Y-117130500D01*
X109593503Y-117090515D01*
X109782862Y-117012080D01*
X109953280Y-116898209D01*
X110098209Y-116753280D01*
X110212080Y-116582862D01*
X110290515Y-116393503D01*
X110330500Y-116192480D01*
X110330500Y-115987520D01*
X110789500Y-115987520D01*
X110789500Y-116192480D01*
X110829485Y-116393503D01*
X110907920Y-116582862D01*
X111021791Y-116753280D01*
X111166720Y-116898209D01*
X111337138Y-117012080D01*
X111526497Y-117090515D01*
X111727520Y-117130500D01*
X111932480Y-117130500D01*
X112133503Y-117090515D01*
X112322862Y-117012080D01*
X112493280Y-116898209D01*
X112638209Y-116753280D01*
X112752080Y-116582862D01*
X112830515Y-116393503D01*
X112870500Y-116192480D01*
X112870500Y-115987520D01*
X113329500Y-115987520D01*
X113329500Y-116192480D01*
X113369485Y-116393503D01*
X113447920Y-116582862D01*
X113561791Y-116753280D01*
X113706720Y-116898209D01*
X113877138Y-117012080D01*
X114066497Y-117090515D01*
X114267520Y-117130500D01*
X114472480Y-117130500D01*
X114673503Y-117090515D01*
X114862862Y-117012080D01*
X115033280Y-116898209D01*
X115178209Y-116753280D01*
X115292080Y-116582862D01*
X115370515Y-116393503D01*
X115410500Y-116192480D01*
X115410500Y-115987520D01*
X115869500Y-115987520D01*
X115869500Y-116192480D01*
X115909485Y-116393503D01*
X115987920Y-116582862D01*
X116101791Y-116753280D01*
X116246720Y-116898209D01*
X116417138Y-117012080D01*
X116606497Y-117090515D01*
X116807520Y-117130500D01*
X117012480Y-117130500D01*
X117213503Y-117090515D01*
X117402862Y-117012080D01*
X117573280Y-116898209D01*
X117718209Y-116753280D01*
X117832080Y-116582862D01*
X117910515Y-116393503D01*
X117929084Y-116300147D01*
X118356509Y-116300147D01*
X118418518Y-116509439D01*
X118520166Y-116702612D01*
X118657547Y-116872242D01*
X118825382Y-117011811D01*
X119017220Y-117115956D01*
X119225690Y-117180674D01*
X119239853Y-117183490D01*
X119413500Y-117136989D01*
X119413500Y-116126500D01*
X119486500Y-116126500D01*
X119486500Y-117136989D01*
X119660147Y-117183490D01*
X119674310Y-117180674D01*
X119882780Y-117115956D01*
X120074618Y-117011811D01*
X120242453Y-116872242D01*
X120379834Y-116702612D01*
X120481482Y-116509439D01*
X120543491Y-116300147D01*
X120497028Y-116126500D01*
X119486500Y-116126500D01*
X119413500Y-116126500D01*
X118402972Y-116126500D01*
X118356509Y-116300147D01*
X117929084Y-116300147D01*
X117950500Y-116192480D01*
X117950500Y-115987520D01*
X117929085Y-115879853D01*
X118356509Y-115879853D01*
X118402972Y-116053500D01*
X119413500Y-116053500D01*
X119413500Y-115043011D01*
X119486500Y-115043011D01*
X119486500Y-116053500D01*
X120497028Y-116053500D01*
X120543491Y-115879853D01*
X120481482Y-115670561D01*
X120379834Y-115477388D01*
X120242453Y-115307758D01*
X120074618Y-115168189D01*
X119882780Y-115064044D01*
X119674310Y-114999326D01*
X119660147Y-114996510D01*
X119486500Y-115043011D01*
X119413500Y-115043011D01*
X119239853Y-114996510D01*
X119225690Y-114999326D01*
X119017220Y-115064044D01*
X118825382Y-115168189D01*
X118657547Y-115307758D01*
X118520166Y-115477388D01*
X118418518Y-115670561D01*
X118356509Y-115879853D01*
X117929085Y-115879853D01*
X117910515Y-115786497D01*
X117832080Y-115597138D01*
X117718209Y-115426720D01*
X117573280Y-115281791D01*
X117402862Y-115167920D01*
X117213503Y-115089485D01*
X117012480Y-115049500D01*
X116807520Y-115049500D01*
X116606497Y-115089485D01*
X116417138Y-115167920D01*
X116246720Y-115281791D01*
X116101791Y-115426720D01*
X115987920Y-115597138D01*
X115909485Y-115786497D01*
X115869500Y-115987520D01*
X115410500Y-115987520D01*
X115370515Y-115786497D01*
X115292080Y-115597138D01*
X115178209Y-115426720D01*
X115033280Y-115281791D01*
X114862862Y-115167920D01*
X114673503Y-115089485D01*
X114472480Y-115049500D01*
X114267520Y-115049500D01*
X114066497Y-115089485D01*
X113877138Y-115167920D01*
X113706720Y-115281791D01*
X113561791Y-115426720D01*
X113447920Y-115597138D01*
X113369485Y-115786497D01*
X113329500Y-115987520D01*
X112870500Y-115987520D01*
X112830515Y-115786497D01*
X112752080Y-115597138D01*
X112638209Y-115426720D01*
X112493280Y-115281791D01*
X112322862Y-115167920D01*
X112133503Y-115089485D01*
X111932480Y-115049500D01*
X111727520Y-115049500D01*
X111526497Y-115089485D01*
X111337138Y-115167920D01*
X111166720Y-115281791D01*
X111021791Y-115426720D01*
X110907920Y-115597138D01*
X110829485Y-115786497D01*
X110789500Y-115987520D01*
X110330500Y-115987520D01*
X110290515Y-115786497D01*
X110212080Y-115597138D01*
X110098209Y-115426720D01*
X109953280Y-115281791D01*
X109782862Y-115167920D01*
X109593503Y-115089485D01*
X109392480Y-115049500D01*
X109187520Y-115049500D01*
X108986497Y-115089485D01*
X108797138Y-115167920D01*
X108626720Y-115281791D01*
X108481791Y-115426720D01*
X108367920Y-115597138D01*
X108289485Y-115786497D01*
X108249500Y-115987520D01*
X107790500Y-115987520D01*
X107750515Y-115786497D01*
X107672080Y-115597138D01*
X107558209Y-115426720D01*
X107413280Y-115281791D01*
X107242862Y-115167920D01*
X107053503Y-115089485D01*
X106852480Y-115049500D01*
X106647520Y-115049500D01*
X106446497Y-115089485D01*
X106257138Y-115167920D01*
X106086720Y-115281791D01*
X105941791Y-115426720D01*
X105827920Y-115597138D01*
X105749485Y-115786497D01*
X105709500Y-115987520D01*
X105250500Y-115987520D01*
X105210515Y-115786497D01*
X105132080Y-115597138D01*
X105018209Y-115426720D01*
X104873280Y-115281791D01*
X104702862Y-115167920D01*
X104513503Y-115089485D01*
X104312480Y-115049500D01*
X104107520Y-115049500D01*
X103906497Y-115089485D01*
X103717138Y-115167920D01*
X103546720Y-115281791D01*
X103401791Y-115426720D01*
X103287920Y-115597138D01*
X103209485Y-115786497D01*
X103169500Y-115987520D01*
X102710500Y-115987520D01*
X102670515Y-115786497D01*
X102592080Y-115597138D01*
X102478209Y-115426720D01*
X102333280Y-115281791D01*
X102162862Y-115167920D01*
X101973503Y-115089485D01*
X101772480Y-115049500D01*
X101567520Y-115049500D01*
X101366497Y-115089485D01*
X101177138Y-115167920D01*
X101006720Y-115281791D01*
X100861791Y-115426720D01*
X100747920Y-115597138D01*
X100669485Y-115786497D01*
X100629500Y-115987520D01*
X100170500Y-115987520D01*
X100130515Y-115786497D01*
X100052080Y-115597138D01*
X99938209Y-115426720D01*
X99793280Y-115281791D01*
X99622862Y-115167920D01*
X99433503Y-115089485D01*
X99232480Y-115049500D01*
X99027520Y-115049500D01*
X98826497Y-115089485D01*
X98637138Y-115167920D01*
X98466720Y-115281791D01*
X98321791Y-115426720D01*
X98207920Y-115597138D01*
X98129485Y-115786497D01*
X98089500Y-115987520D01*
X97630500Y-115987520D01*
X97590515Y-115786497D01*
X97512080Y-115597138D01*
X97398209Y-115426720D01*
X97253280Y-115281791D01*
X97082862Y-115167920D01*
X96893503Y-115089485D01*
X96692480Y-115049500D01*
X96487520Y-115049500D01*
X96286497Y-115089485D01*
X96097138Y-115167920D01*
X95926720Y-115281791D01*
X95781791Y-115426720D01*
X95667920Y-115597138D01*
X95589485Y-115786497D01*
X95549500Y-115987520D01*
X90713517Y-115987520D01*
X90714775Y-115250000D01*
X90709687Y-115198345D01*
X90694620Y-115148675D01*
X90670152Y-115102899D01*
X90637224Y-115062776D01*
X90597101Y-115029848D01*
X90551325Y-115005380D01*
X90501655Y-114990313D01*
X90450000Y-114985225D01*
X89702375Y-114986500D01*
X89636500Y-115052375D01*
X89563500Y-115052375D01*
X89497625Y-114986500D01*
X88750000Y-114985225D01*
X88698345Y-114990313D01*
X88648675Y-115005380D01*
X88602899Y-115029848D01*
X88562776Y-115062776D01*
X88529848Y-115102899D01*
X88505380Y-115148675D01*
X88490313Y-115198345D01*
X88485225Y-115250000D01*
X87770973Y-115250000D01*
X87684618Y-115178189D01*
X87492780Y-115074044D01*
X87284310Y-115009326D01*
X87270147Y-115006510D01*
X87096500Y-115053011D01*
X87023500Y-115053011D01*
X86849853Y-115006510D01*
X86835690Y-115009326D01*
X86627220Y-115074044D01*
X86435382Y-115178189D01*
X86267547Y-115317758D01*
X86130166Y-115487388D01*
X86028518Y-115680561D01*
X85966509Y-115889853D01*
X85539085Y-115889853D01*
X85520515Y-115796497D01*
X85442080Y-115607138D01*
X85328209Y-115436720D01*
X85183280Y-115291791D01*
X85012862Y-115177920D01*
X84823503Y-115099485D01*
X84622480Y-115059500D01*
X84417520Y-115059500D01*
X84216497Y-115099485D01*
X84027138Y-115177920D01*
X83856720Y-115291791D01*
X83711791Y-115436720D01*
X83597920Y-115607138D01*
X83519485Y-115796497D01*
X83479500Y-115997520D01*
X80063500Y-115997520D01*
X80063500Y-113447520D01*
X95549500Y-113447520D01*
X95549500Y-113652480D01*
X95589485Y-113853503D01*
X95667920Y-114042862D01*
X95781791Y-114213280D01*
X95926720Y-114358209D01*
X96097138Y-114472080D01*
X96286497Y-114550515D01*
X96487520Y-114590500D01*
X96692480Y-114590500D01*
X96893503Y-114550515D01*
X97082862Y-114472080D01*
X97253280Y-114358209D01*
X97398209Y-114213280D01*
X97512080Y-114042862D01*
X97590515Y-113853503D01*
X97630500Y-113652480D01*
X97630500Y-113447520D01*
X98089500Y-113447520D01*
X98089500Y-113652480D01*
X98129485Y-113853503D01*
X98207920Y-114042862D01*
X98321791Y-114213280D01*
X98466720Y-114358209D01*
X98637138Y-114472080D01*
X98826497Y-114550515D01*
X99027520Y-114590500D01*
X99232480Y-114590500D01*
X99433503Y-114550515D01*
X99622862Y-114472080D01*
X99793280Y-114358209D01*
X99938209Y-114213280D01*
X100052080Y-114042862D01*
X100130515Y-113853503D01*
X100170500Y-113652480D01*
X100170500Y-113447520D01*
X100629500Y-113447520D01*
X100629500Y-113652480D01*
X100669485Y-113853503D01*
X100747920Y-114042862D01*
X100861791Y-114213280D01*
X101006720Y-114358209D01*
X101177138Y-114472080D01*
X101366497Y-114550515D01*
X101567520Y-114590500D01*
X101772480Y-114590500D01*
X101973503Y-114550515D01*
X102162862Y-114472080D01*
X102333280Y-114358209D01*
X102478209Y-114213280D01*
X102592080Y-114042862D01*
X102670515Y-113853503D01*
X102710500Y-113652480D01*
X102710500Y-113447520D01*
X103169500Y-113447520D01*
X103169500Y-113652480D01*
X103209485Y-113853503D01*
X103287920Y-114042862D01*
X103401791Y-114213280D01*
X103546720Y-114358209D01*
X103717138Y-114472080D01*
X103906497Y-114550515D01*
X104107520Y-114590500D01*
X104312480Y-114590500D01*
X104513503Y-114550515D01*
X104702862Y-114472080D01*
X104873280Y-114358209D01*
X105018209Y-114213280D01*
X105132080Y-114042862D01*
X105210515Y-113853503D01*
X105250500Y-113652480D01*
X105250500Y-113447520D01*
X105709500Y-113447520D01*
X105709500Y-113652480D01*
X105749485Y-113853503D01*
X105827920Y-114042862D01*
X105941791Y-114213280D01*
X106086720Y-114358209D01*
X106257138Y-114472080D01*
X106446497Y-114550515D01*
X106647520Y-114590500D01*
X106852480Y-114590500D01*
X107053503Y-114550515D01*
X107242862Y-114472080D01*
X107413280Y-114358209D01*
X107558209Y-114213280D01*
X107672080Y-114042862D01*
X107750515Y-113853503D01*
X107790500Y-113652480D01*
X107790500Y-113447520D01*
X108249500Y-113447520D01*
X108249500Y-113652480D01*
X108289485Y-113853503D01*
X108367920Y-114042862D01*
X108481791Y-114213280D01*
X108626720Y-114358209D01*
X108797138Y-114472080D01*
X108986497Y-114550515D01*
X109187520Y-114590500D01*
X109392480Y-114590500D01*
X109593503Y-114550515D01*
X109782862Y-114472080D01*
X109953280Y-114358209D01*
X110098209Y-114213280D01*
X110212080Y-114042862D01*
X110290515Y-113853503D01*
X110330500Y-113652480D01*
X110330500Y-113447520D01*
X110789500Y-113447520D01*
X110789500Y-113652480D01*
X110829485Y-113853503D01*
X110907920Y-114042862D01*
X111021791Y-114213280D01*
X111166720Y-114358209D01*
X111337138Y-114472080D01*
X111526497Y-114550515D01*
X111727520Y-114590500D01*
X111932480Y-114590500D01*
X112133503Y-114550515D01*
X112322862Y-114472080D01*
X112493280Y-114358209D01*
X112638209Y-114213280D01*
X112752080Y-114042862D01*
X112830515Y-113853503D01*
X112870500Y-113652480D01*
X112870500Y-113447520D01*
X113329500Y-113447520D01*
X113329500Y-113652480D01*
X113369485Y-113853503D01*
X113447920Y-114042862D01*
X113561791Y-114213280D01*
X113706720Y-114358209D01*
X113877138Y-114472080D01*
X114066497Y-114550515D01*
X114267520Y-114590500D01*
X114472480Y-114590500D01*
X114673503Y-114550515D01*
X114862862Y-114472080D01*
X115033280Y-114358209D01*
X115178209Y-114213280D01*
X115292080Y-114042862D01*
X115370515Y-113853503D01*
X115410500Y-113652480D01*
X115410500Y-113447520D01*
X115869500Y-113447520D01*
X115869500Y-113652480D01*
X115909485Y-113853503D01*
X115987920Y-114042862D01*
X116101791Y-114213280D01*
X116246720Y-114358209D01*
X116417138Y-114472080D01*
X116606497Y-114550515D01*
X116807520Y-114590500D01*
X117012480Y-114590500D01*
X117213503Y-114550515D01*
X117402862Y-114472080D01*
X117573280Y-114358209D01*
X117718209Y-114213280D01*
X117832080Y-114042862D01*
X117910515Y-113853503D01*
X117950500Y-113652480D01*
X117950500Y-113447520D01*
X117910515Y-113246497D01*
X117832080Y-113057138D01*
X117718209Y-112886720D01*
X117573280Y-112741791D01*
X117510737Y-112700000D01*
X118408579Y-112700000D01*
X118408579Y-114400000D01*
X118412257Y-114437344D01*
X118423150Y-114473254D01*
X118440839Y-114506348D01*
X118464645Y-114535355D01*
X118493652Y-114559161D01*
X118526746Y-114576850D01*
X118562656Y-114587743D01*
X118600000Y-114591421D01*
X120300000Y-114591421D01*
X120337344Y-114587743D01*
X120351331Y-114583500D01*
X156159500Y-114583500D01*
X156159500Y-114916500D01*
X156224465Y-115243101D01*
X156351898Y-115550752D01*
X156536903Y-115827631D01*
X156772369Y-116063097D01*
X157049248Y-116248102D01*
X157356899Y-116375535D01*
X157683500Y-116440500D01*
X158016500Y-116440500D01*
X158343101Y-116375535D01*
X158650752Y-116248102D01*
X158927631Y-116063097D01*
X159163097Y-115827631D01*
X159348102Y-115550752D01*
X159475535Y-115243101D01*
X159540500Y-114916500D01*
X159540500Y-114583500D01*
X159475535Y-114256899D01*
X159348102Y-113949248D01*
X159163097Y-113672369D01*
X158927631Y-113436903D01*
X158650752Y-113251898D01*
X158343101Y-113124465D01*
X158016500Y-113059500D01*
X157683500Y-113059500D01*
X157356899Y-113124465D01*
X157049248Y-113251898D01*
X156772369Y-113436903D01*
X156536903Y-113672369D01*
X156351898Y-113949248D01*
X156224465Y-114256899D01*
X156159500Y-114583500D01*
X120351331Y-114583500D01*
X120373254Y-114576850D01*
X120406348Y-114559161D01*
X120435355Y-114535355D01*
X120459161Y-114506348D01*
X120476850Y-114473254D01*
X120487743Y-114437344D01*
X120491421Y-114400000D01*
X120491421Y-112700000D01*
X120487743Y-112662656D01*
X120476850Y-112626746D01*
X120459161Y-112593652D01*
X120435355Y-112564645D01*
X120406348Y-112540839D01*
X120373254Y-112523150D01*
X120337344Y-112512257D01*
X120300000Y-112508579D01*
X118600000Y-112508579D01*
X118562656Y-112512257D01*
X118526746Y-112523150D01*
X118493652Y-112540839D01*
X118464645Y-112564645D01*
X118440839Y-112593652D01*
X118423150Y-112626746D01*
X118412257Y-112662656D01*
X118408579Y-112700000D01*
X117510737Y-112700000D01*
X117402862Y-112627920D01*
X117213503Y-112549485D01*
X117012480Y-112509500D01*
X116807520Y-112509500D01*
X116606497Y-112549485D01*
X116417138Y-112627920D01*
X116246720Y-112741791D01*
X116101791Y-112886720D01*
X115987920Y-113057138D01*
X115909485Y-113246497D01*
X115869500Y-113447520D01*
X115410500Y-113447520D01*
X115370515Y-113246497D01*
X115292080Y-113057138D01*
X115178209Y-112886720D01*
X115033280Y-112741791D01*
X114862862Y-112627920D01*
X114673503Y-112549485D01*
X114472480Y-112509500D01*
X114267520Y-112509500D01*
X114066497Y-112549485D01*
X113877138Y-112627920D01*
X113706720Y-112741791D01*
X113561791Y-112886720D01*
X113447920Y-113057138D01*
X113369485Y-113246497D01*
X113329500Y-113447520D01*
X112870500Y-113447520D01*
X112830515Y-113246497D01*
X112752080Y-113057138D01*
X112638209Y-112886720D01*
X112493280Y-112741791D01*
X112322862Y-112627920D01*
X112133503Y-112549485D01*
X111932480Y-112509500D01*
X111727520Y-112509500D01*
X111526497Y-112549485D01*
X111337138Y-112627920D01*
X111166720Y-112741791D01*
X111021791Y-112886720D01*
X110907920Y-113057138D01*
X110829485Y-113246497D01*
X110789500Y-113447520D01*
X110330500Y-113447520D01*
X110290515Y-113246497D01*
X110212080Y-113057138D01*
X110098209Y-112886720D01*
X109953280Y-112741791D01*
X109782862Y-112627920D01*
X109593503Y-112549485D01*
X109392480Y-112509500D01*
X109187520Y-112509500D01*
X108986497Y-112549485D01*
X108797138Y-112627920D01*
X108626720Y-112741791D01*
X108481791Y-112886720D01*
X108367920Y-113057138D01*
X108289485Y-113246497D01*
X108249500Y-113447520D01*
X107790500Y-113447520D01*
X107750515Y-113246497D01*
X107672080Y-113057138D01*
X107558209Y-112886720D01*
X107413280Y-112741791D01*
X107242862Y-112627920D01*
X107053503Y-112549485D01*
X106852480Y-112509500D01*
X106647520Y-112509500D01*
X106446497Y-112549485D01*
X106257138Y-112627920D01*
X106086720Y-112741791D01*
X105941791Y-112886720D01*
X105827920Y-113057138D01*
X105749485Y-113246497D01*
X105709500Y-113447520D01*
X105250500Y-113447520D01*
X105210515Y-113246497D01*
X105132080Y-113057138D01*
X105018209Y-112886720D01*
X104873280Y-112741791D01*
X104702862Y-112627920D01*
X104513503Y-112549485D01*
X104312480Y-112509500D01*
X104107520Y-112509500D01*
X103906497Y-112549485D01*
X103717138Y-112627920D01*
X103546720Y-112741791D01*
X103401791Y-112886720D01*
X103287920Y-113057138D01*
X103209485Y-113246497D01*
X103169500Y-113447520D01*
X102710500Y-113447520D01*
X102670515Y-113246497D01*
X102592080Y-113057138D01*
X102478209Y-112886720D01*
X102333280Y-112741791D01*
X102162862Y-112627920D01*
X101973503Y-112549485D01*
X101772480Y-112509500D01*
X101567520Y-112509500D01*
X101366497Y-112549485D01*
X101177138Y-112627920D01*
X101006720Y-112741791D01*
X100861791Y-112886720D01*
X100747920Y-113057138D01*
X100669485Y-113246497D01*
X100629500Y-113447520D01*
X100170500Y-113447520D01*
X100130515Y-113246497D01*
X100052080Y-113057138D01*
X99938209Y-112886720D01*
X99793280Y-112741791D01*
X99622862Y-112627920D01*
X99433503Y-112549485D01*
X99232480Y-112509500D01*
X99027520Y-112509500D01*
X98826497Y-112549485D01*
X98637138Y-112627920D01*
X98466720Y-112741791D01*
X98321791Y-112886720D01*
X98207920Y-113057138D01*
X98129485Y-113246497D01*
X98089500Y-113447520D01*
X97630500Y-113447520D01*
X97590515Y-113246497D01*
X97512080Y-113057138D01*
X97398209Y-112886720D01*
X97253280Y-112741791D01*
X97082862Y-112627920D01*
X96893503Y-112549485D01*
X96692480Y-112509500D01*
X96487520Y-112509500D01*
X96286497Y-112549485D01*
X96097138Y-112627920D01*
X95926720Y-112741791D01*
X95781791Y-112886720D01*
X95667920Y-113057138D01*
X95589485Y-113246497D01*
X95549500Y-113447520D01*
X80063500Y-113447520D01*
X80063500Y-107961539D01*
X110609500Y-107961539D01*
X110609500Y-108038461D01*
X110624507Y-108113905D01*
X110653944Y-108184971D01*
X110696679Y-108248929D01*
X110751071Y-108303321D01*
X110815029Y-108346056D01*
X110884905Y-108375000D01*
X110815029Y-108403944D01*
X110751071Y-108446679D01*
X110696679Y-108501071D01*
X110653944Y-108565029D01*
X110624507Y-108636095D01*
X110609500Y-108711539D01*
X110609500Y-108788461D01*
X110624507Y-108863905D01*
X110653944Y-108934971D01*
X110696679Y-108998929D01*
X110751071Y-109053321D01*
X110815029Y-109096056D01*
X110884905Y-109125000D01*
X110815029Y-109153944D01*
X110751071Y-109196679D01*
X110696679Y-109251071D01*
X110653944Y-109315029D01*
X110624507Y-109386095D01*
X110609500Y-109461539D01*
X110609500Y-109538461D01*
X110624507Y-109613905D01*
X110653944Y-109684971D01*
X110696679Y-109748929D01*
X110751071Y-109803321D01*
X110815029Y-109846056D01*
X110884905Y-109875000D01*
X110815029Y-109903944D01*
X110751071Y-109946679D01*
X110696679Y-110001071D01*
X110653944Y-110065029D01*
X110624507Y-110136095D01*
X110609500Y-110211539D01*
X110609500Y-110288461D01*
X110624507Y-110363905D01*
X110653944Y-110434971D01*
X110696679Y-110498929D01*
X110751071Y-110553321D01*
X110815029Y-110596056D01*
X110886095Y-110625493D01*
X110961539Y-110640500D01*
X111038461Y-110640500D01*
X111113905Y-110625493D01*
X111184971Y-110596056D01*
X111248929Y-110553321D01*
X111303321Y-110498929D01*
X111346056Y-110434971D01*
X111375493Y-110363905D01*
X111390500Y-110288461D01*
X111390500Y-110211539D01*
X111375493Y-110136095D01*
X111346056Y-110065029D01*
X111303321Y-110001071D01*
X111248929Y-109946679D01*
X111184971Y-109903944D01*
X111115095Y-109875000D01*
X111184971Y-109846056D01*
X111248929Y-109803321D01*
X111303321Y-109748929D01*
X111346056Y-109684971D01*
X111375493Y-109613905D01*
X111390500Y-109538461D01*
X111390500Y-109461539D01*
X111375493Y-109386095D01*
X111346056Y-109315029D01*
X111303321Y-109251071D01*
X111248929Y-109196679D01*
X111184971Y-109153944D01*
X111115095Y-109125000D01*
X111184971Y-109096056D01*
X111248929Y-109053321D01*
X111303321Y-108998929D01*
X111346056Y-108934971D01*
X111375493Y-108863905D01*
X111390500Y-108788461D01*
X111390500Y-108711539D01*
X111375493Y-108636095D01*
X111346056Y-108565029D01*
X111303321Y-108501071D01*
X111248929Y-108446679D01*
X111184971Y-108403944D01*
X111115095Y-108375000D01*
X111184971Y-108346056D01*
X111248929Y-108303321D01*
X111303321Y-108248929D01*
X111346056Y-108184971D01*
X111375493Y-108113905D01*
X111390500Y-108038461D01*
X111390500Y-107961539D01*
X120109500Y-107961539D01*
X120109500Y-108038461D01*
X120124507Y-108113905D01*
X120153944Y-108184971D01*
X120196679Y-108248929D01*
X120251071Y-108303321D01*
X120315029Y-108346056D01*
X120384905Y-108375000D01*
X120315029Y-108403944D01*
X120251071Y-108446679D01*
X120196679Y-108501071D01*
X120153944Y-108565029D01*
X120124507Y-108636095D01*
X120109500Y-108711539D01*
X120109500Y-108788461D01*
X120124507Y-108863905D01*
X120153944Y-108934971D01*
X120196679Y-108998929D01*
X120251071Y-109053321D01*
X120315029Y-109096056D01*
X120384905Y-109125000D01*
X120315029Y-109153944D01*
X120251071Y-109196679D01*
X120196679Y-109251071D01*
X120153944Y-109315029D01*
X120124507Y-109386095D01*
X120109500Y-109461539D01*
X120109500Y-109538461D01*
X120124507Y-109613905D01*
X120153944Y-109684971D01*
X120196679Y-109748929D01*
X120251071Y-109803321D01*
X120315029Y-109846056D01*
X120384905Y-109875000D01*
X120315029Y-109903944D01*
X120251071Y-109946679D01*
X120196679Y-110001071D01*
X120153944Y-110065029D01*
X120124507Y-110136095D01*
X120109500Y-110211539D01*
X120109500Y-110288461D01*
X120124507Y-110363905D01*
X120153944Y-110434971D01*
X120196679Y-110498929D01*
X120251071Y-110553321D01*
X120315029Y-110596056D01*
X120384905Y-110625000D01*
X120315029Y-110653944D01*
X120251071Y-110696679D01*
X120196679Y-110751071D01*
X120153944Y-110815029D01*
X120124507Y-110886095D01*
X120109500Y-110961539D01*
X120109500Y-111038461D01*
X120124507Y-111113905D01*
X120153944Y-111184971D01*
X120196679Y-111248929D01*
X120251071Y-111303321D01*
X120315029Y-111346056D01*
X120386095Y-111375493D01*
X120461539Y-111390500D01*
X120538461Y-111390500D01*
X120613905Y-111375493D01*
X120684971Y-111346056D01*
X120748929Y-111303321D01*
X120803321Y-111248929D01*
X120846056Y-111184971D01*
X120875493Y-111113905D01*
X120890500Y-111038461D01*
X120890500Y-110961539D01*
X120875493Y-110886095D01*
X120846056Y-110815029D01*
X120803321Y-110751071D01*
X120748929Y-110696679D01*
X120684971Y-110653944D01*
X120615095Y-110625000D01*
X120684971Y-110596056D01*
X120748929Y-110553321D01*
X120803321Y-110498929D01*
X120846056Y-110434971D01*
X120875493Y-110363905D01*
X120890500Y-110288461D01*
X120890500Y-110211539D01*
X120875493Y-110136095D01*
X120846056Y-110065029D01*
X120803321Y-110001071D01*
X120748929Y-109946679D01*
X120684971Y-109903944D01*
X120615095Y-109875000D01*
X120684971Y-109846056D01*
X120748929Y-109803321D01*
X120803321Y-109748929D01*
X120846056Y-109684971D01*
X120875493Y-109613905D01*
X120890500Y-109538461D01*
X120890500Y-109461539D01*
X120875493Y-109386095D01*
X120846056Y-109315029D01*
X120803321Y-109251071D01*
X120748929Y-109196679D01*
X120684971Y-109153944D01*
X120615095Y-109125000D01*
X120684971Y-109096056D01*
X120748929Y-109053321D01*
X120803321Y-108998929D01*
X120846056Y-108934971D01*
X120875493Y-108863905D01*
X120890500Y-108788461D01*
X120890500Y-108711539D01*
X120875493Y-108636095D01*
X120846056Y-108565029D01*
X120803321Y-108501071D01*
X120748929Y-108446679D01*
X120684971Y-108403944D01*
X120615095Y-108375000D01*
X120684971Y-108346056D01*
X120748929Y-108303321D01*
X120803321Y-108248929D01*
X120846056Y-108184971D01*
X120875493Y-108113905D01*
X120890500Y-108038461D01*
X120890500Y-107961539D01*
X120875493Y-107886095D01*
X120846056Y-107815029D01*
X120803321Y-107751071D01*
X120748929Y-107696679D01*
X120684971Y-107653944D01*
X120613905Y-107624507D01*
X120538461Y-107609500D01*
X120461539Y-107609500D01*
X120386095Y-107624507D01*
X120315029Y-107653944D01*
X120251071Y-107696679D01*
X120196679Y-107751071D01*
X120153944Y-107815029D01*
X120124507Y-107886095D01*
X120109500Y-107961539D01*
X111390500Y-107961539D01*
X111375493Y-107886095D01*
X111346056Y-107815029D01*
X111303321Y-107751071D01*
X111248929Y-107696679D01*
X111184971Y-107653944D01*
X111113905Y-107624507D01*
X111038461Y-107609500D01*
X110961539Y-107609500D01*
X110886095Y-107624507D01*
X110815029Y-107653944D01*
X110751071Y-107696679D01*
X110696679Y-107751071D01*
X110653944Y-107815029D01*
X110624507Y-107886095D01*
X110609500Y-107961539D01*
X80063500Y-107961539D01*
X80063500Y-106541690D01*
X129869500Y-106541690D01*
X129869500Y-106638310D01*
X129888350Y-106733073D01*
X129925325Y-106822339D01*
X129979004Y-106902675D01*
X130047325Y-106970996D01*
X130127661Y-107024675D01*
X130216927Y-107061650D01*
X130311690Y-107080500D01*
X130408310Y-107080500D01*
X130503073Y-107061650D01*
X130592339Y-107024675D01*
X130672675Y-106970996D01*
X130740996Y-106902675D01*
X130794675Y-106822339D01*
X130831650Y-106733073D01*
X130850500Y-106638310D01*
X130850500Y-106541690D01*
X130831650Y-106446927D01*
X130794675Y-106357661D01*
X130740996Y-106277325D01*
X130672675Y-106209004D01*
X130592339Y-106155325D01*
X130503073Y-106118350D01*
X130408310Y-106099500D01*
X130311690Y-106099500D01*
X130216927Y-106118350D01*
X130127661Y-106155325D01*
X130047325Y-106209004D01*
X129979004Y-106277325D01*
X129925325Y-106357661D01*
X129888350Y-106446927D01*
X129869500Y-106541690D01*
X80063500Y-106541690D01*
X80063500Y-100051690D01*
X91209500Y-100051690D01*
X91209500Y-100148310D01*
X91228350Y-100243073D01*
X91265325Y-100332339D01*
X91319004Y-100412675D01*
X91387325Y-100480996D01*
X91467661Y-100534675D01*
X91556927Y-100571650D01*
X91651690Y-100590500D01*
X91748310Y-100590500D01*
X91843073Y-100571650D01*
X91867483Y-100561539D01*
X105009500Y-100561539D01*
X105009500Y-100638461D01*
X105024507Y-100713905D01*
X105053944Y-100784971D01*
X105096679Y-100848929D01*
X105151071Y-100903321D01*
X105215029Y-100946056D01*
X105286095Y-100975493D01*
X105361539Y-100990500D01*
X105438461Y-100990500D01*
X105513905Y-100975493D01*
X105584971Y-100946056D01*
X105648929Y-100903321D01*
X105703321Y-100848929D01*
X105746056Y-100784971D01*
X105775493Y-100713905D01*
X105790500Y-100638461D01*
X105790500Y-100561539D01*
X105775493Y-100486095D01*
X105746056Y-100415029D01*
X105703321Y-100351071D01*
X105648929Y-100296679D01*
X105584971Y-100253944D01*
X105513905Y-100224507D01*
X105438461Y-100209500D01*
X105361539Y-100209500D01*
X105286095Y-100224507D01*
X105215029Y-100253944D01*
X105151071Y-100296679D01*
X105096679Y-100351071D01*
X105053944Y-100415029D01*
X105024507Y-100486095D01*
X105009500Y-100561539D01*
X91867483Y-100561539D01*
X91932339Y-100534675D01*
X92012675Y-100480996D01*
X92080996Y-100412675D01*
X92134675Y-100332339D01*
X92171650Y-100243073D01*
X92190500Y-100148310D01*
X92190500Y-100051690D01*
X92172568Y-99961539D01*
X106809500Y-99961539D01*
X106809500Y-100038461D01*
X106824507Y-100113905D01*
X106853944Y-100184971D01*
X106896679Y-100248929D01*
X106951071Y-100303321D01*
X107015029Y-100346056D01*
X107086095Y-100375493D01*
X107161539Y-100390500D01*
X107238461Y-100390500D01*
X107313905Y-100375493D01*
X107384971Y-100346056D01*
X107448929Y-100303321D01*
X107503321Y-100248929D01*
X107546056Y-100184971D01*
X107575493Y-100113905D01*
X107585909Y-100061539D01*
X108859500Y-100061539D01*
X108859500Y-100138461D01*
X108874507Y-100213905D01*
X108903944Y-100284971D01*
X108946679Y-100348929D01*
X109001071Y-100403321D01*
X109065029Y-100446056D01*
X109136095Y-100475493D01*
X109211539Y-100490500D01*
X109288461Y-100490500D01*
X109363905Y-100475493D01*
X109434971Y-100446056D01*
X109498929Y-100403321D01*
X109553321Y-100348929D01*
X109596056Y-100284971D01*
X109625493Y-100213905D01*
X109640500Y-100138461D01*
X109640500Y-100061539D01*
X109625493Y-99986095D01*
X109596056Y-99915029D01*
X109553321Y-99851071D01*
X109498929Y-99796679D01*
X109434971Y-99753944D01*
X109363905Y-99724507D01*
X109288461Y-99709500D01*
X109211539Y-99709500D01*
X109136095Y-99724507D01*
X109065029Y-99753944D01*
X109001071Y-99796679D01*
X108946679Y-99851071D01*
X108903944Y-99915029D01*
X108874507Y-99986095D01*
X108859500Y-100061539D01*
X107585909Y-100061539D01*
X107590500Y-100038461D01*
X107590500Y-99961539D01*
X107575493Y-99886095D01*
X107546056Y-99815029D01*
X107503321Y-99751071D01*
X107448929Y-99696679D01*
X107384971Y-99653944D01*
X107313905Y-99624507D01*
X107238461Y-99609500D01*
X107161539Y-99609500D01*
X107086095Y-99624507D01*
X107015029Y-99653944D01*
X106951071Y-99696679D01*
X106896679Y-99751071D01*
X106853944Y-99815029D01*
X106824507Y-99886095D01*
X106809500Y-99961539D01*
X92172568Y-99961539D01*
X92171650Y-99956927D01*
X92134675Y-99867661D01*
X92080996Y-99787325D01*
X92012675Y-99719004D01*
X91932339Y-99665325D01*
X91843073Y-99628350D01*
X91748310Y-99609500D01*
X91651690Y-99609500D01*
X91556927Y-99628350D01*
X91467661Y-99665325D01*
X91387325Y-99719004D01*
X91319004Y-99787325D01*
X91265325Y-99867661D01*
X91228350Y-99956927D01*
X91209500Y-100051690D01*
X80063500Y-100051690D01*
X80063500Y-98891690D01*
X130269500Y-98891690D01*
X130269500Y-98988310D01*
X130288350Y-99083073D01*
X130325325Y-99172339D01*
X130379004Y-99252675D01*
X130447325Y-99320996D01*
X130527661Y-99374675D01*
X130616927Y-99411650D01*
X130711690Y-99430500D01*
X130808310Y-99430500D01*
X130903073Y-99411650D01*
X130992339Y-99374675D01*
X131072675Y-99320996D01*
X131140996Y-99252675D01*
X131194675Y-99172339D01*
X131231650Y-99083073D01*
X131250500Y-98988310D01*
X131250500Y-98891690D01*
X131244503Y-98861539D01*
X153109500Y-98861539D01*
X153109500Y-98938461D01*
X153124507Y-99013905D01*
X153153944Y-99084971D01*
X153196679Y-99148929D01*
X153251071Y-99203321D01*
X153315029Y-99246056D01*
X153386095Y-99275493D01*
X153461539Y-99290500D01*
X153538461Y-99290500D01*
X153613905Y-99275493D01*
X153684971Y-99246056D01*
X153748929Y-99203321D01*
X153803321Y-99148929D01*
X153846056Y-99084971D01*
X153875493Y-99013905D01*
X153890500Y-98938461D01*
X153890500Y-98861539D01*
X153875493Y-98786095D01*
X153846056Y-98715029D01*
X153803321Y-98651071D01*
X153748929Y-98596679D01*
X153684971Y-98553944D01*
X153613905Y-98524507D01*
X153538461Y-98509500D01*
X153461539Y-98509500D01*
X153386095Y-98524507D01*
X153315029Y-98553944D01*
X153251071Y-98596679D01*
X153196679Y-98651071D01*
X153153944Y-98715029D01*
X153124507Y-98786095D01*
X153109500Y-98861539D01*
X131244503Y-98861539D01*
X131231650Y-98796927D01*
X131194675Y-98707661D01*
X131140996Y-98627325D01*
X131072675Y-98559004D01*
X130992339Y-98505325D01*
X130903073Y-98468350D01*
X130808310Y-98449500D01*
X130711690Y-98449500D01*
X130616927Y-98468350D01*
X130527661Y-98505325D01*
X130447325Y-98559004D01*
X130379004Y-98627325D01*
X130325325Y-98707661D01*
X130288350Y-98796927D01*
X130269500Y-98891690D01*
X80063500Y-98891690D01*
X80063500Y-97621690D01*
X130289500Y-97621690D01*
X130289500Y-97718310D01*
X130308350Y-97813073D01*
X130345325Y-97902339D01*
X130399004Y-97982675D01*
X130467325Y-98050996D01*
X130547661Y-98104675D01*
X130636927Y-98141650D01*
X130731690Y-98160500D01*
X130828310Y-98160500D01*
X130923073Y-98141650D01*
X131012339Y-98104675D01*
X131092675Y-98050996D01*
X131160996Y-97982675D01*
X131214675Y-97902339D01*
X131251650Y-97813073D01*
X131261901Y-97761539D01*
X157509500Y-97761539D01*
X157509500Y-97838461D01*
X157524507Y-97913905D01*
X157553944Y-97984971D01*
X157596679Y-98048929D01*
X157651071Y-98103321D01*
X157715029Y-98146056D01*
X157786095Y-98175493D01*
X157861539Y-98190500D01*
X157938461Y-98190500D01*
X158013905Y-98175493D01*
X158084971Y-98146056D01*
X158148929Y-98103321D01*
X158203321Y-98048929D01*
X158246056Y-97984971D01*
X158275493Y-97913905D01*
X158290500Y-97838461D01*
X158290500Y-97761539D01*
X158275493Y-97686095D01*
X158246056Y-97615029D01*
X158203321Y-97551071D01*
X158148929Y-97496679D01*
X158084971Y-97453944D01*
X158013905Y-97424507D01*
X157938461Y-97409500D01*
X157861539Y-97409500D01*
X157786095Y-97424507D01*
X157715029Y-97453944D01*
X157651071Y-97496679D01*
X157596679Y-97551071D01*
X157553944Y-97615029D01*
X157524507Y-97686095D01*
X157509500Y-97761539D01*
X131261901Y-97761539D01*
X131270500Y-97718310D01*
X131270500Y-97621690D01*
X131251650Y-97526927D01*
X131214675Y-97437661D01*
X131160996Y-97357325D01*
X131092675Y-97289004D01*
X131012339Y-97235325D01*
X130923073Y-97198350D01*
X130828310Y-97179500D01*
X130731690Y-97179500D01*
X130636927Y-97198350D01*
X130547661Y-97235325D01*
X130467325Y-97289004D01*
X130399004Y-97357325D01*
X130345325Y-97437661D01*
X130308350Y-97526927D01*
X130289500Y-97621690D01*
X80063500Y-97621690D01*
X80063500Y-95951690D01*
X91209500Y-95951690D01*
X91209500Y-96048310D01*
X91228350Y-96143073D01*
X91265325Y-96232339D01*
X91319004Y-96312675D01*
X91387325Y-96380996D01*
X91467661Y-96434675D01*
X91556927Y-96471650D01*
X91651690Y-96490500D01*
X91748310Y-96490500D01*
X91843073Y-96471650D01*
X91932339Y-96434675D01*
X92012675Y-96380996D01*
X92041981Y-96351690D01*
X130259500Y-96351690D01*
X130259500Y-96448310D01*
X130278350Y-96543073D01*
X130315325Y-96632339D01*
X130369004Y-96712675D01*
X130437325Y-96780996D01*
X130517661Y-96834675D01*
X130606927Y-96871650D01*
X130701690Y-96890500D01*
X130798310Y-96890500D01*
X130893073Y-96871650D01*
X130982339Y-96834675D01*
X131062675Y-96780996D01*
X131130996Y-96712675D01*
X131184675Y-96632339D01*
X131221650Y-96543073D01*
X131240500Y-96448310D01*
X131240500Y-96351690D01*
X131221650Y-96256927D01*
X131184675Y-96167661D01*
X131130996Y-96087325D01*
X131062675Y-96019004D01*
X130982339Y-95965325D01*
X130893073Y-95928350D01*
X130798310Y-95909500D01*
X130701690Y-95909500D01*
X130606927Y-95928350D01*
X130517661Y-95965325D01*
X130437325Y-96019004D01*
X130369004Y-96087325D01*
X130315325Y-96167661D01*
X130278350Y-96256927D01*
X130259500Y-96351690D01*
X92041981Y-96351690D01*
X92080996Y-96312675D01*
X92134675Y-96232339D01*
X92171650Y-96143073D01*
X92190500Y-96048310D01*
X92190500Y-95951690D01*
X92171650Y-95856927D01*
X92134675Y-95767661D01*
X92080996Y-95687325D01*
X92012675Y-95619004D01*
X91932339Y-95565325D01*
X91843073Y-95528350D01*
X91748310Y-95509500D01*
X91651690Y-95509500D01*
X91556927Y-95528350D01*
X91467661Y-95565325D01*
X91387325Y-95619004D01*
X91319004Y-95687325D01*
X91265325Y-95767661D01*
X91228350Y-95856927D01*
X91209500Y-95951690D01*
X80063500Y-95951690D01*
X80063500Y-95081690D01*
X130259500Y-95081690D01*
X130259500Y-95178310D01*
X130278350Y-95273073D01*
X130315325Y-95362339D01*
X130369004Y-95442675D01*
X130437325Y-95510996D01*
X130517661Y-95564675D01*
X130606927Y-95601650D01*
X130701690Y-95620500D01*
X130798310Y-95620500D01*
X130893073Y-95601650D01*
X130982339Y-95564675D01*
X131062675Y-95510996D01*
X131130996Y-95442675D01*
X131184675Y-95362339D01*
X131221650Y-95273073D01*
X131240500Y-95178310D01*
X131240500Y-95081690D01*
X131221650Y-94986927D01*
X131184675Y-94897661D01*
X131130996Y-94817325D01*
X131062675Y-94749004D01*
X130982339Y-94695325D01*
X130893073Y-94658350D01*
X130798310Y-94639500D01*
X130701690Y-94639500D01*
X130606927Y-94658350D01*
X130517661Y-94695325D01*
X130437325Y-94749004D01*
X130369004Y-94817325D01*
X130315325Y-94897661D01*
X130278350Y-94986927D01*
X130259500Y-95081690D01*
X80063500Y-95081690D01*
X80063500Y-93811690D01*
X144169500Y-93811690D01*
X144169500Y-93908310D01*
X144188350Y-94003073D01*
X144225325Y-94092339D01*
X144279004Y-94172675D01*
X144347325Y-94240996D01*
X144427661Y-94294675D01*
X144516927Y-94331650D01*
X144611690Y-94350500D01*
X144708310Y-94350500D01*
X144803073Y-94331650D01*
X144892339Y-94294675D01*
X144972675Y-94240996D01*
X145040996Y-94172675D01*
X145094675Y-94092339D01*
X145131650Y-94003073D01*
X145150500Y-93908310D01*
X145150500Y-93811690D01*
X145131650Y-93716927D01*
X145094675Y-93627661D01*
X145040996Y-93547325D01*
X144972675Y-93479004D01*
X144892339Y-93425325D01*
X144803073Y-93388350D01*
X144708310Y-93369500D01*
X144611690Y-93369500D01*
X144516927Y-93388350D01*
X144427661Y-93425325D01*
X144347325Y-93479004D01*
X144279004Y-93547325D01*
X144225325Y-93627661D01*
X144188350Y-93716927D01*
X144169500Y-93811690D01*
X80063500Y-93811690D01*
X80063500Y-93361539D01*
X99409500Y-93361539D01*
X99409500Y-93438461D01*
X99424507Y-93513905D01*
X99453944Y-93584971D01*
X99496679Y-93648929D01*
X99551071Y-93703321D01*
X99615029Y-93746056D01*
X99686095Y-93775493D01*
X99761539Y-93790500D01*
X99838461Y-93790500D01*
X99913905Y-93775493D01*
X99984971Y-93746056D01*
X100048929Y-93703321D01*
X100103321Y-93648929D01*
X100146056Y-93584971D01*
X100175493Y-93513905D01*
X100190500Y-93438461D01*
X100190500Y-93361539D01*
X100175493Y-93286095D01*
X100146056Y-93215029D01*
X100103321Y-93151071D01*
X100048929Y-93096679D01*
X99984971Y-93053944D01*
X99913905Y-93024507D01*
X99838461Y-93009500D01*
X99761539Y-93009500D01*
X99686095Y-93024507D01*
X99615029Y-93053944D01*
X99551071Y-93096679D01*
X99496679Y-93151071D01*
X99453944Y-93215029D01*
X99424507Y-93286095D01*
X99409500Y-93361539D01*
X80063500Y-93361539D01*
X80063500Y-92351690D01*
X98309500Y-92351690D01*
X98309500Y-92448310D01*
X98328350Y-92543073D01*
X98365325Y-92632339D01*
X98419004Y-92712675D01*
X98487325Y-92780996D01*
X98567661Y-92834675D01*
X98656927Y-92871650D01*
X98751690Y-92890500D01*
X98848310Y-92890500D01*
X98943073Y-92871650D01*
X99032339Y-92834675D01*
X99112675Y-92780996D01*
X99180996Y-92712675D01*
X99234675Y-92632339D01*
X99268080Y-92551690D01*
X103609500Y-92551690D01*
X103609500Y-92648310D01*
X103628350Y-92743073D01*
X103665325Y-92832339D01*
X103719004Y-92912675D01*
X103787325Y-92980996D01*
X103867661Y-93034675D01*
X103956927Y-93071650D01*
X104051690Y-93090500D01*
X104148310Y-93090500D01*
X104243073Y-93071650D01*
X104332339Y-93034675D01*
X104412675Y-92980996D01*
X104480996Y-92912675D01*
X104534675Y-92832339D01*
X104571650Y-92743073D01*
X104590500Y-92648310D01*
X104590500Y-92551690D01*
X104571650Y-92456927D01*
X104534675Y-92367661D01*
X104480996Y-92287325D01*
X104412675Y-92219004D01*
X104332339Y-92165325D01*
X104243073Y-92128350D01*
X104148310Y-92109500D01*
X104051690Y-92109500D01*
X103956927Y-92128350D01*
X103867661Y-92165325D01*
X103787325Y-92219004D01*
X103719004Y-92287325D01*
X103665325Y-92367661D01*
X103628350Y-92456927D01*
X103609500Y-92551690D01*
X99268080Y-92551690D01*
X99271650Y-92543073D01*
X99290500Y-92448310D01*
X99290500Y-92351690D01*
X99271650Y-92256927D01*
X99234675Y-92167661D01*
X99180996Y-92087325D01*
X99112675Y-92019004D01*
X99032339Y-91965325D01*
X98943073Y-91928350D01*
X98848310Y-91909500D01*
X98751690Y-91909500D01*
X98656927Y-91928350D01*
X98567661Y-91965325D01*
X98487325Y-92019004D01*
X98419004Y-92087325D01*
X98365325Y-92167661D01*
X98328350Y-92256927D01*
X98309500Y-92351690D01*
X80063500Y-92351690D01*
X80063500Y-90961539D01*
X84609500Y-90961539D01*
X84609500Y-91038461D01*
X84624507Y-91113905D01*
X84653944Y-91184971D01*
X84696679Y-91248929D01*
X84751071Y-91303321D01*
X84815029Y-91346056D01*
X84886095Y-91375493D01*
X84961539Y-91390500D01*
X85038461Y-91390500D01*
X85113905Y-91375493D01*
X85184971Y-91346056D01*
X85248929Y-91303321D01*
X85303321Y-91248929D01*
X85346056Y-91184971D01*
X85375493Y-91113905D01*
X85390500Y-91038461D01*
X85390500Y-90961539D01*
X85609500Y-90961539D01*
X85609500Y-91038461D01*
X85624507Y-91113905D01*
X85653944Y-91184971D01*
X85696679Y-91248929D01*
X85751071Y-91303321D01*
X85815029Y-91346056D01*
X85886095Y-91375493D01*
X85961539Y-91390500D01*
X86038461Y-91390500D01*
X86113905Y-91375493D01*
X86184971Y-91346056D01*
X86248929Y-91303321D01*
X86303321Y-91248929D01*
X86346056Y-91184971D01*
X86375493Y-91113905D01*
X86390500Y-91038461D01*
X86390500Y-90961539D01*
X86609500Y-90961539D01*
X86609500Y-91038461D01*
X86624507Y-91113905D01*
X86653944Y-91184971D01*
X86696679Y-91248929D01*
X86751071Y-91303321D01*
X86815029Y-91346056D01*
X86886095Y-91375493D01*
X86961539Y-91390500D01*
X87038461Y-91390500D01*
X87113905Y-91375493D01*
X87184971Y-91346056D01*
X87248929Y-91303321D01*
X87303321Y-91248929D01*
X87346056Y-91184971D01*
X87375493Y-91113905D01*
X87390500Y-91038461D01*
X87390500Y-90961539D01*
X87609500Y-90961539D01*
X87609500Y-91038461D01*
X87624507Y-91113905D01*
X87653944Y-91184971D01*
X87696679Y-91248929D01*
X87751071Y-91303321D01*
X87815029Y-91346056D01*
X87886095Y-91375493D01*
X87961539Y-91390500D01*
X88038461Y-91390500D01*
X88113905Y-91375493D01*
X88184971Y-91346056D01*
X88248929Y-91303321D01*
X88303321Y-91248929D01*
X88346056Y-91184971D01*
X88375493Y-91113905D01*
X88390500Y-91038461D01*
X88390500Y-90961539D01*
X88609500Y-90961539D01*
X88609500Y-91038461D01*
X88624507Y-91113905D01*
X88653944Y-91184971D01*
X88696679Y-91248929D01*
X88751071Y-91303321D01*
X88815029Y-91346056D01*
X88886095Y-91375493D01*
X88961539Y-91390500D01*
X89038461Y-91390500D01*
X89113905Y-91375493D01*
X89184971Y-91346056D01*
X89248929Y-91303321D01*
X89303321Y-91248929D01*
X89346056Y-91184971D01*
X89375493Y-91113905D01*
X89390500Y-91038461D01*
X89390500Y-90961539D01*
X89609500Y-90961539D01*
X89609500Y-91038461D01*
X89624507Y-91113905D01*
X89653944Y-91184971D01*
X89696679Y-91248929D01*
X89751071Y-91303321D01*
X89815029Y-91346056D01*
X89886095Y-91375493D01*
X89961539Y-91390500D01*
X90038461Y-91390500D01*
X90113905Y-91375493D01*
X90184971Y-91346056D01*
X90248929Y-91303321D01*
X90303321Y-91248929D01*
X90346056Y-91184971D01*
X90375493Y-91113905D01*
X90390500Y-91038461D01*
X90390500Y-90961539D01*
X90375493Y-90886095D01*
X90346056Y-90815029D01*
X90303321Y-90751071D01*
X90248929Y-90696679D01*
X90184971Y-90653944D01*
X90113905Y-90624507D01*
X90038461Y-90609500D01*
X89961539Y-90609500D01*
X89886095Y-90624507D01*
X89815029Y-90653944D01*
X89751071Y-90696679D01*
X89696679Y-90751071D01*
X89653944Y-90815029D01*
X89624507Y-90886095D01*
X89609500Y-90961539D01*
X89390500Y-90961539D01*
X89375493Y-90886095D01*
X89346056Y-90815029D01*
X89303321Y-90751071D01*
X89248929Y-90696679D01*
X89184971Y-90653944D01*
X89113905Y-90624507D01*
X89038461Y-90609500D01*
X88961539Y-90609500D01*
X88886095Y-90624507D01*
X88815029Y-90653944D01*
X88751071Y-90696679D01*
X88696679Y-90751071D01*
X88653944Y-90815029D01*
X88624507Y-90886095D01*
X88609500Y-90961539D01*
X88390500Y-90961539D01*
X88375493Y-90886095D01*
X88346056Y-90815029D01*
X88303321Y-90751071D01*
X88248929Y-90696679D01*
X88184971Y-90653944D01*
X88113905Y-90624507D01*
X88038461Y-90609500D01*
X87961539Y-90609500D01*
X87886095Y-90624507D01*
X87815029Y-90653944D01*
X87751071Y-90696679D01*
X87696679Y-90751071D01*
X87653944Y-90815029D01*
X87624507Y-90886095D01*
X87609500Y-90961539D01*
X87390500Y-90961539D01*
X87375493Y-90886095D01*
X87346056Y-90815029D01*
X87303321Y-90751071D01*
X87248929Y-90696679D01*
X87184971Y-90653944D01*
X87113905Y-90624507D01*
X87038461Y-90609500D01*
X86961539Y-90609500D01*
X86886095Y-90624507D01*
X86815029Y-90653944D01*
X86751071Y-90696679D01*
X86696679Y-90751071D01*
X86653944Y-90815029D01*
X86624507Y-90886095D01*
X86609500Y-90961539D01*
X86390500Y-90961539D01*
X86375493Y-90886095D01*
X86346056Y-90815029D01*
X86303321Y-90751071D01*
X86248929Y-90696679D01*
X86184971Y-90653944D01*
X86113905Y-90624507D01*
X86038461Y-90609500D01*
X85961539Y-90609500D01*
X85886095Y-90624507D01*
X85815029Y-90653944D01*
X85751071Y-90696679D01*
X85696679Y-90751071D01*
X85653944Y-90815029D01*
X85624507Y-90886095D01*
X85609500Y-90961539D01*
X85390500Y-90961539D01*
X85375493Y-90886095D01*
X85346056Y-90815029D01*
X85303321Y-90751071D01*
X85248929Y-90696679D01*
X85184971Y-90653944D01*
X85113905Y-90624507D01*
X85038461Y-90609500D01*
X84961539Y-90609500D01*
X84886095Y-90624507D01*
X84815029Y-90653944D01*
X84751071Y-90696679D01*
X84696679Y-90751071D01*
X84653944Y-90815029D01*
X84624507Y-90886095D01*
X84609500Y-90961539D01*
X80063500Y-90961539D01*
X80063500Y-90301690D01*
X102759500Y-90301690D01*
X102759500Y-90398310D01*
X102778350Y-90493073D01*
X102815325Y-90582339D01*
X102869004Y-90662675D01*
X102937325Y-90730996D01*
X103017661Y-90784675D01*
X103106927Y-90821650D01*
X103201690Y-90840500D01*
X103298310Y-90840500D01*
X103393073Y-90821650D01*
X103482339Y-90784675D01*
X103562675Y-90730996D01*
X103630996Y-90662675D01*
X103684675Y-90582339D01*
X103721650Y-90493073D01*
X103740500Y-90398310D01*
X103740500Y-90301690D01*
X103721650Y-90206927D01*
X103684675Y-90117661D01*
X103630996Y-90037325D01*
X103562675Y-89969004D01*
X103482339Y-89915325D01*
X103393073Y-89878350D01*
X103298310Y-89859500D01*
X103201690Y-89859500D01*
X103106927Y-89878350D01*
X103017661Y-89915325D01*
X102937325Y-89969004D01*
X102869004Y-90037325D01*
X102815325Y-90117661D01*
X102778350Y-90206927D01*
X102759500Y-90301690D01*
X80063500Y-90301690D01*
X80063500Y-88871690D01*
X109559500Y-88871690D01*
X109559500Y-88968310D01*
X109578350Y-89063073D01*
X109615325Y-89152339D01*
X109669004Y-89232675D01*
X109737325Y-89300996D01*
X109817661Y-89354675D01*
X109906927Y-89391650D01*
X110001690Y-89410500D01*
X110098310Y-89410500D01*
X110193073Y-89391650D01*
X110282339Y-89354675D01*
X110362675Y-89300996D01*
X110430996Y-89232675D01*
X110484675Y-89152339D01*
X110521650Y-89063073D01*
X110540500Y-88968310D01*
X110540500Y-88871690D01*
X110521650Y-88776927D01*
X110484675Y-88687661D01*
X110430996Y-88607325D01*
X110362675Y-88539004D01*
X110282339Y-88485325D01*
X110201137Y-88451690D01*
X146309500Y-88451690D01*
X146309500Y-88548310D01*
X146328350Y-88643073D01*
X146365325Y-88732339D01*
X146419004Y-88812675D01*
X146487325Y-88880996D01*
X146567661Y-88934675D01*
X146656927Y-88971650D01*
X146751690Y-88990500D01*
X146848310Y-88990500D01*
X146943073Y-88971650D01*
X147032339Y-88934675D01*
X147112675Y-88880996D01*
X147180996Y-88812675D01*
X147234675Y-88732339D01*
X147271650Y-88643073D01*
X147290500Y-88548310D01*
X147290500Y-88451690D01*
X151009500Y-88451690D01*
X151009500Y-88548310D01*
X151028350Y-88643073D01*
X151065325Y-88732339D01*
X151119004Y-88812675D01*
X151187325Y-88880996D01*
X151267661Y-88934675D01*
X151356927Y-88971650D01*
X151451690Y-88990500D01*
X151548310Y-88990500D01*
X151643073Y-88971650D01*
X151732339Y-88934675D01*
X151812675Y-88880996D01*
X151880996Y-88812675D01*
X151934675Y-88732339D01*
X151971650Y-88643073D01*
X151990500Y-88548310D01*
X151990500Y-88451690D01*
X151971650Y-88356927D01*
X151934675Y-88267661D01*
X151880996Y-88187325D01*
X151812675Y-88119004D01*
X151732339Y-88065325D01*
X151643073Y-88028350D01*
X151548310Y-88009500D01*
X151451690Y-88009500D01*
X151356927Y-88028350D01*
X151267661Y-88065325D01*
X151187325Y-88119004D01*
X151119004Y-88187325D01*
X151065325Y-88267661D01*
X151028350Y-88356927D01*
X151009500Y-88451690D01*
X147290500Y-88451690D01*
X147271650Y-88356927D01*
X147234675Y-88267661D01*
X147180996Y-88187325D01*
X147112675Y-88119004D01*
X147032339Y-88065325D01*
X146943073Y-88028350D01*
X146848310Y-88009500D01*
X146751690Y-88009500D01*
X146656927Y-88028350D01*
X146567661Y-88065325D01*
X146487325Y-88119004D01*
X146419004Y-88187325D01*
X146365325Y-88267661D01*
X146328350Y-88356927D01*
X146309500Y-88451690D01*
X110201137Y-88451690D01*
X110193073Y-88448350D01*
X110098310Y-88429500D01*
X110001690Y-88429500D01*
X109906927Y-88448350D01*
X109817661Y-88485325D01*
X109737325Y-88539004D01*
X109669004Y-88607325D01*
X109615325Y-88687661D01*
X109578350Y-88776927D01*
X109559500Y-88871690D01*
X80063500Y-88871690D01*
X80063500Y-86251690D01*
X150109500Y-86251690D01*
X150109500Y-86348310D01*
X150128350Y-86443073D01*
X150165325Y-86532339D01*
X150219004Y-86612675D01*
X150287325Y-86680996D01*
X150367661Y-86734675D01*
X150456927Y-86771650D01*
X150551690Y-86790500D01*
X150648310Y-86790500D01*
X150743073Y-86771650D01*
X150832339Y-86734675D01*
X150912675Y-86680996D01*
X150980996Y-86612675D01*
X151034675Y-86532339D01*
X151071650Y-86443073D01*
X151090500Y-86348310D01*
X151090500Y-86251690D01*
X151071650Y-86156927D01*
X151034675Y-86067661D01*
X150980996Y-85987325D01*
X150968671Y-85975000D01*
X160506039Y-85975000D01*
X160519854Y-86115262D01*
X160560767Y-86250134D01*
X160627206Y-86374433D01*
X160716618Y-86483382D01*
X160825567Y-86572794D01*
X160949866Y-86639233D01*
X161084738Y-86680146D01*
X161189861Y-86690500D01*
X162110139Y-86690500D01*
X162215262Y-86680146D01*
X162350134Y-86639233D01*
X162474433Y-86572794D01*
X162583382Y-86483382D01*
X162672794Y-86374433D01*
X162739233Y-86250134D01*
X162780146Y-86115262D01*
X162793961Y-85975000D01*
X162780146Y-85834738D01*
X162739233Y-85699866D01*
X162672794Y-85575567D01*
X162583382Y-85466618D01*
X162474433Y-85377206D01*
X162350134Y-85310767D01*
X162215262Y-85269854D01*
X162110139Y-85259500D01*
X161189861Y-85259500D01*
X161084738Y-85269854D01*
X160949866Y-85310767D01*
X160825567Y-85377206D01*
X160716618Y-85466618D01*
X160627206Y-85575567D01*
X160560767Y-85699866D01*
X160519854Y-85834738D01*
X160506039Y-85975000D01*
X150968671Y-85975000D01*
X150912675Y-85919004D01*
X150832339Y-85865325D01*
X150743073Y-85828350D01*
X150648310Y-85809500D01*
X150551690Y-85809500D01*
X150456927Y-85828350D01*
X150367661Y-85865325D01*
X150287325Y-85919004D01*
X150219004Y-85987325D01*
X150165325Y-86067661D01*
X150128350Y-86156927D01*
X150109500Y-86251690D01*
X80063500Y-86251690D01*
X80063500Y-84211539D01*
X112409500Y-84211539D01*
X112409500Y-84288461D01*
X112424507Y-84363905D01*
X112453944Y-84434971D01*
X112496679Y-84498929D01*
X112551071Y-84553321D01*
X112615029Y-84596056D01*
X112686095Y-84625493D01*
X112761539Y-84640500D01*
X112838461Y-84640500D01*
X112913905Y-84625493D01*
X112984971Y-84596056D01*
X113048929Y-84553321D01*
X113103321Y-84498929D01*
X113146056Y-84434971D01*
X113175493Y-84363905D01*
X113190500Y-84288461D01*
X113190500Y-84211539D01*
X113188541Y-84201690D01*
X154009500Y-84201690D01*
X154009500Y-84298310D01*
X154028350Y-84393073D01*
X154065325Y-84482339D01*
X154119004Y-84562675D01*
X154187325Y-84630996D01*
X154267661Y-84684675D01*
X154356927Y-84721650D01*
X154451690Y-84740500D01*
X154548310Y-84740500D01*
X154643073Y-84721650D01*
X154732339Y-84684675D01*
X154812675Y-84630996D01*
X154880996Y-84562675D01*
X154934675Y-84482339D01*
X154971650Y-84393073D01*
X154990500Y-84298310D01*
X154990500Y-84201690D01*
X154971650Y-84106927D01*
X154934675Y-84017661D01*
X154880996Y-83937325D01*
X154812675Y-83869004D01*
X154732339Y-83815325D01*
X154643073Y-83778350D01*
X154548310Y-83759500D01*
X154451690Y-83759500D01*
X154356927Y-83778350D01*
X154267661Y-83815325D01*
X154187325Y-83869004D01*
X154119004Y-83937325D01*
X154065325Y-84017661D01*
X154028350Y-84106927D01*
X154009500Y-84201690D01*
X113188541Y-84201690D01*
X113175493Y-84136095D01*
X113146056Y-84065029D01*
X113103321Y-84001071D01*
X113048929Y-83946679D01*
X112984971Y-83903944D01*
X112913905Y-83874507D01*
X112838461Y-83859500D01*
X112761539Y-83859500D01*
X112686095Y-83874507D01*
X112615029Y-83903944D01*
X112551071Y-83946679D01*
X112496679Y-84001071D01*
X112453944Y-84065029D01*
X112424507Y-84136095D01*
X112409500Y-84211539D01*
X80063500Y-84211539D01*
X80063500Y-83511539D01*
X156609500Y-83511539D01*
X156609500Y-83588461D01*
X156624507Y-83663905D01*
X156653944Y-83734971D01*
X156696679Y-83798929D01*
X156751071Y-83853321D01*
X156815029Y-83896056D01*
X156886095Y-83925493D01*
X156961539Y-83940500D01*
X157038461Y-83940500D01*
X157113905Y-83925493D01*
X157184971Y-83896056D01*
X157248929Y-83853321D01*
X157303321Y-83798929D01*
X157346056Y-83734971D01*
X157375493Y-83663905D01*
X157390500Y-83588461D01*
X157390500Y-83511539D01*
X157375493Y-83436095D01*
X157346056Y-83365029D01*
X157303321Y-83301071D01*
X157248929Y-83246679D01*
X157184971Y-83203944D01*
X157113905Y-83174507D01*
X157038461Y-83159500D01*
X156961539Y-83159500D01*
X156886095Y-83174507D01*
X156815029Y-83203944D01*
X156751071Y-83246679D01*
X156696679Y-83301071D01*
X156653944Y-83365029D01*
X156624507Y-83436095D01*
X156609500Y-83511539D01*
X80063500Y-83511539D01*
X80063500Y-81361539D01*
X149809500Y-81361539D01*
X149809500Y-81438461D01*
X149824507Y-81513905D01*
X149853944Y-81584971D01*
X149896679Y-81648929D01*
X149951071Y-81703321D01*
X150015029Y-81746056D01*
X150086095Y-81775493D01*
X150161539Y-81790500D01*
X150238461Y-81790500D01*
X150313905Y-81775493D01*
X150384971Y-81746056D01*
X150448929Y-81703321D01*
X150503321Y-81648929D01*
X150546056Y-81584971D01*
X150575493Y-81513905D01*
X150590500Y-81438461D01*
X150590500Y-81361539D01*
X150575493Y-81286095D01*
X150546056Y-81215029D01*
X150543725Y-81211539D01*
X156609500Y-81211539D01*
X156609500Y-81288461D01*
X156624507Y-81363905D01*
X156653944Y-81434971D01*
X156696679Y-81498929D01*
X156751071Y-81553321D01*
X156815029Y-81596056D01*
X156886095Y-81625493D01*
X156961539Y-81640500D01*
X157038461Y-81640500D01*
X157113905Y-81625493D01*
X157184971Y-81596056D01*
X157248929Y-81553321D01*
X157303321Y-81498929D01*
X157346056Y-81434971D01*
X157375493Y-81363905D01*
X157390500Y-81288461D01*
X157390500Y-81211539D01*
X157375493Y-81136095D01*
X157346056Y-81065029D01*
X157303321Y-81001071D01*
X157248929Y-80946679D01*
X157184971Y-80903944D01*
X157113905Y-80874507D01*
X157038461Y-80859500D01*
X156961539Y-80859500D01*
X156886095Y-80874507D01*
X156815029Y-80903944D01*
X156751071Y-80946679D01*
X156696679Y-81001071D01*
X156653944Y-81065029D01*
X156624507Y-81136095D01*
X156609500Y-81211539D01*
X150543725Y-81211539D01*
X150503321Y-81151071D01*
X150448929Y-81096679D01*
X150384971Y-81053944D01*
X150313905Y-81024507D01*
X150238461Y-81009500D01*
X150161539Y-81009500D01*
X150086095Y-81024507D01*
X150015029Y-81053944D01*
X149951071Y-81096679D01*
X149896679Y-81151071D01*
X149853944Y-81215029D01*
X149824507Y-81286095D01*
X149809500Y-81361539D01*
X80063500Y-81361539D01*
X80063500Y-79961539D01*
X111709500Y-79961539D01*
X111709500Y-80038461D01*
X111724507Y-80113905D01*
X111753944Y-80184971D01*
X111796679Y-80248929D01*
X111851071Y-80303321D01*
X111915029Y-80346056D01*
X111986095Y-80375493D01*
X112061539Y-80390500D01*
X112138461Y-80390500D01*
X112213905Y-80375493D01*
X112284971Y-80346056D01*
X112348929Y-80303321D01*
X112403321Y-80248929D01*
X112446056Y-80184971D01*
X112475493Y-80113905D01*
X112490500Y-80038461D01*
X112490500Y-79961539D01*
X112475493Y-79886095D01*
X112446056Y-79815029D01*
X112403321Y-79751071D01*
X112348929Y-79696679D01*
X112284971Y-79653944D01*
X112279530Y-79651690D01*
X115609500Y-79651690D01*
X115609500Y-79748310D01*
X115628350Y-79843073D01*
X115665325Y-79932339D01*
X115719004Y-80012675D01*
X115787325Y-80080996D01*
X115867661Y-80134675D01*
X115956927Y-80171650D01*
X116051690Y-80190500D01*
X116148310Y-80190500D01*
X116243073Y-80171650D01*
X116332339Y-80134675D01*
X116412675Y-80080996D01*
X116480996Y-80012675D01*
X116534675Y-79932339D01*
X116571650Y-79843073D01*
X116579881Y-79801690D01*
X148934500Y-79801690D01*
X148934500Y-79898310D01*
X148953350Y-79993073D01*
X148990325Y-80082339D01*
X149044004Y-80162675D01*
X149112325Y-80230996D01*
X149192661Y-80284675D01*
X149281927Y-80321650D01*
X149376690Y-80340500D01*
X149473310Y-80340500D01*
X149568073Y-80321650D01*
X149657339Y-80284675D01*
X149737675Y-80230996D01*
X149805996Y-80162675D01*
X149859675Y-80082339D01*
X149896650Y-79993073D01*
X149915500Y-79898310D01*
X149915500Y-79801690D01*
X149896650Y-79706927D01*
X149859675Y-79617661D01*
X149805996Y-79537325D01*
X149737675Y-79469004D01*
X149657339Y-79415325D01*
X149568073Y-79378350D01*
X149473310Y-79359500D01*
X149376690Y-79359500D01*
X149281927Y-79378350D01*
X149192661Y-79415325D01*
X149112325Y-79469004D01*
X149044004Y-79537325D01*
X148990325Y-79617661D01*
X148953350Y-79706927D01*
X148934500Y-79801690D01*
X116579881Y-79801690D01*
X116590500Y-79748310D01*
X116590500Y-79651690D01*
X116571650Y-79556927D01*
X116534675Y-79467661D01*
X116480996Y-79387325D01*
X116412675Y-79319004D01*
X116332339Y-79265325D01*
X116243073Y-79228350D01*
X116148310Y-79209500D01*
X116051690Y-79209500D01*
X115956927Y-79228350D01*
X115867661Y-79265325D01*
X115787325Y-79319004D01*
X115719004Y-79387325D01*
X115665325Y-79467661D01*
X115628350Y-79556927D01*
X115609500Y-79651690D01*
X112279530Y-79651690D01*
X112213905Y-79624507D01*
X112138461Y-79609500D01*
X112061539Y-79609500D01*
X111986095Y-79624507D01*
X111915029Y-79653944D01*
X111851071Y-79696679D01*
X111796679Y-79751071D01*
X111753944Y-79815029D01*
X111724507Y-79886095D01*
X111709500Y-79961539D01*
X80063500Y-79961539D01*
X80063500Y-79401690D01*
X103659500Y-79401690D01*
X103659500Y-79498310D01*
X103678350Y-79593073D01*
X103715325Y-79682339D01*
X103769004Y-79762675D01*
X103837325Y-79830996D01*
X103917661Y-79884675D01*
X104006927Y-79921650D01*
X104101690Y-79940500D01*
X104198310Y-79940500D01*
X104293073Y-79921650D01*
X104382339Y-79884675D01*
X104462675Y-79830996D01*
X104530996Y-79762675D01*
X104584675Y-79682339D01*
X104621650Y-79593073D01*
X104640500Y-79498310D01*
X104640500Y-79401690D01*
X104621650Y-79306927D01*
X104584675Y-79217661D01*
X104530996Y-79137325D01*
X104462675Y-79069004D01*
X104382339Y-79015325D01*
X104293073Y-78978350D01*
X104198310Y-78959500D01*
X104101690Y-78959500D01*
X104006927Y-78978350D01*
X103917661Y-79015325D01*
X103837325Y-79069004D01*
X103769004Y-79137325D01*
X103715325Y-79217661D01*
X103678350Y-79306927D01*
X103659500Y-79401690D01*
X80063500Y-79401690D01*
X80063500Y-78761539D01*
X106859500Y-78761539D01*
X106859500Y-78838461D01*
X106874507Y-78913905D01*
X106903944Y-78984971D01*
X106946679Y-79048929D01*
X107001071Y-79103321D01*
X107065029Y-79146056D01*
X107136095Y-79175493D01*
X107211539Y-79190500D01*
X107288461Y-79190500D01*
X107363905Y-79175493D01*
X107434971Y-79146056D01*
X107498929Y-79103321D01*
X107553321Y-79048929D01*
X107596056Y-78984971D01*
X107625493Y-78913905D01*
X107640500Y-78838461D01*
X107640500Y-78761539D01*
X107625493Y-78686095D01*
X107596056Y-78615029D01*
X107553321Y-78551071D01*
X107533940Y-78531690D01*
X112779500Y-78531690D01*
X112779500Y-78628310D01*
X112798350Y-78723073D01*
X112835325Y-78812339D01*
X112889004Y-78892675D01*
X112957325Y-78960996D01*
X113037661Y-79014675D01*
X113126927Y-79051650D01*
X113221690Y-79070500D01*
X113318310Y-79070500D01*
X113413073Y-79051650D01*
X113502339Y-79014675D01*
X113582675Y-78960996D01*
X113650996Y-78892675D01*
X113696215Y-78825000D01*
X160506039Y-78825000D01*
X160519854Y-78965262D01*
X160560767Y-79100134D01*
X160627206Y-79224433D01*
X160716618Y-79333382D01*
X160825567Y-79422794D01*
X160949866Y-79489233D01*
X161084738Y-79530146D01*
X161189861Y-79540500D01*
X162110139Y-79540500D01*
X162215262Y-79530146D01*
X162350134Y-79489233D01*
X162474433Y-79422794D01*
X162583382Y-79333382D01*
X162672794Y-79224433D01*
X162739233Y-79100134D01*
X162780146Y-78965262D01*
X162793961Y-78825000D01*
X162780146Y-78684738D01*
X162739233Y-78549866D01*
X162672794Y-78425567D01*
X162583382Y-78316618D01*
X162474433Y-78227206D01*
X162350134Y-78160767D01*
X162215262Y-78119854D01*
X162110139Y-78109500D01*
X161189861Y-78109500D01*
X161084738Y-78119854D01*
X160949866Y-78160767D01*
X160825567Y-78227206D01*
X160716618Y-78316618D01*
X160627206Y-78425567D01*
X160560767Y-78549866D01*
X160519854Y-78684738D01*
X160506039Y-78825000D01*
X113696215Y-78825000D01*
X113704675Y-78812339D01*
X113741650Y-78723073D01*
X113760500Y-78628310D01*
X113760500Y-78531690D01*
X113741650Y-78436927D01*
X113704675Y-78347661D01*
X113650996Y-78267325D01*
X113582675Y-78199004D01*
X113502339Y-78145325D01*
X113413073Y-78108350D01*
X113318310Y-78089500D01*
X113221690Y-78089500D01*
X113126927Y-78108350D01*
X113037661Y-78145325D01*
X112957325Y-78199004D01*
X112889004Y-78267325D01*
X112835325Y-78347661D01*
X112798350Y-78436927D01*
X112779500Y-78531690D01*
X107533940Y-78531690D01*
X107498929Y-78496679D01*
X107434971Y-78453944D01*
X107363905Y-78424507D01*
X107288461Y-78409500D01*
X107211539Y-78409500D01*
X107136095Y-78424507D01*
X107065029Y-78453944D01*
X107001071Y-78496679D01*
X106946679Y-78551071D01*
X106903944Y-78615029D01*
X106874507Y-78686095D01*
X106859500Y-78761539D01*
X80063500Y-78761539D01*
X80063500Y-77001690D01*
X116409500Y-77001690D01*
X116409500Y-77098310D01*
X116428350Y-77193073D01*
X116465325Y-77282339D01*
X116519004Y-77362675D01*
X116587325Y-77430996D01*
X116667661Y-77484675D01*
X116756927Y-77521650D01*
X116851690Y-77540500D01*
X116948310Y-77540500D01*
X117043073Y-77521650D01*
X117132339Y-77484675D01*
X117212675Y-77430996D01*
X117280996Y-77362675D01*
X117334675Y-77282339D01*
X117371650Y-77193073D01*
X117390500Y-77098310D01*
X117390500Y-77001690D01*
X117371650Y-76906927D01*
X117334675Y-76817661D01*
X117280996Y-76737325D01*
X117212675Y-76669004D01*
X117132339Y-76615325D01*
X117043073Y-76578350D01*
X116948310Y-76559500D01*
X116851690Y-76559500D01*
X116756927Y-76578350D01*
X116667661Y-76615325D01*
X116587325Y-76669004D01*
X116519004Y-76737325D01*
X116465325Y-76817661D01*
X116428350Y-76906927D01*
X116409500Y-77001690D01*
X80063500Y-77001690D01*
X80063500Y-75201690D01*
X105159500Y-75201690D01*
X105159500Y-75298310D01*
X105178350Y-75393073D01*
X105215325Y-75482339D01*
X105269004Y-75562675D01*
X105337325Y-75630996D01*
X105417661Y-75684675D01*
X105506927Y-75721650D01*
X105601690Y-75740500D01*
X105698310Y-75740500D01*
X105793073Y-75721650D01*
X105882339Y-75684675D01*
X105962675Y-75630996D01*
X106030996Y-75562675D01*
X106084675Y-75482339D01*
X106121650Y-75393073D01*
X106140500Y-75298310D01*
X106140500Y-75201690D01*
X106121650Y-75106927D01*
X106084675Y-75017661D01*
X106030996Y-74937325D01*
X105962675Y-74869004D01*
X105882339Y-74815325D01*
X105793073Y-74778350D01*
X105698310Y-74759500D01*
X105601690Y-74759500D01*
X105506927Y-74778350D01*
X105417661Y-74815325D01*
X105337325Y-74869004D01*
X105269004Y-74937325D01*
X105215325Y-75017661D01*
X105178350Y-75106927D01*
X105159500Y-75201690D01*
X80063500Y-75201690D01*
X80063500Y-72151690D01*
X114909500Y-72151690D01*
X114909500Y-72248310D01*
X114928350Y-72343073D01*
X114965325Y-72432339D01*
X115019004Y-72512675D01*
X115087325Y-72580996D01*
X115167661Y-72634675D01*
X115256927Y-72671650D01*
X115351690Y-72690500D01*
X115448310Y-72690500D01*
X115543073Y-72671650D01*
X115632339Y-72634675D01*
X115712675Y-72580996D01*
X115780996Y-72512675D01*
X115834675Y-72432339D01*
X115871650Y-72343073D01*
X115890500Y-72248310D01*
X115890500Y-72151690D01*
X115871650Y-72056927D01*
X115834675Y-71967661D01*
X115780996Y-71887325D01*
X115712675Y-71819004D01*
X115632339Y-71765325D01*
X115543073Y-71728350D01*
X115448310Y-71709500D01*
X115351690Y-71709500D01*
X115256927Y-71728350D01*
X115167661Y-71765325D01*
X115087325Y-71819004D01*
X115019004Y-71887325D01*
X114965325Y-71967661D01*
X114928350Y-72056927D01*
X114909500Y-72151690D01*
X80063500Y-72151690D01*
X80063500Y-70551690D01*
X129709500Y-70551690D01*
X129709500Y-70648310D01*
X129728350Y-70743073D01*
X129765325Y-70832339D01*
X129819004Y-70912675D01*
X129887325Y-70980996D01*
X129967661Y-71034675D01*
X130056927Y-71071650D01*
X130151690Y-71090500D01*
X130248310Y-71090500D01*
X130343073Y-71071650D01*
X130432339Y-71034675D01*
X130512675Y-70980996D01*
X130580996Y-70912675D01*
X130634675Y-70832339D01*
X130671650Y-70743073D01*
X130690500Y-70648310D01*
X130690500Y-70551690D01*
X130671650Y-70456927D01*
X130634675Y-70367661D01*
X130580996Y-70287325D01*
X130512675Y-70219004D01*
X130432339Y-70165325D01*
X130343073Y-70128350D01*
X130248310Y-70109500D01*
X130151690Y-70109500D01*
X130056927Y-70128350D01*
X129967661Y-70165325D01*
X129887325Y-70219004D01*
X129819004Y-70287325D01*
X129765325Y-70367661D01*
X129728350Y-70456927D01*
X129709500Y-70551690D01*
X80063500Y-70551690D01*
X80063500Y-66851690D01*
X129409500Y-66851690D01*
X129409500Y-66948310D01*
X129428350Y-67043073D01*
X129465325Y-67132339D01*
X129519004Y-67212675D01*
X129587325Y-67280996D01*
X129667661Y-67334675D01*
X129756927Y-67371650D01*
X129851690Y-67390500D01*
X129948310Y-67390500D01*
X130043073Y-67371650D01*
X130132339Y-67334675D01*
X130212675Y-67280996D01*
X130280996Y-67212675D01*
X130334675Y-67132339D01*
X130371650Y-67043073D01*
X130390500Y-66948310D01*
X130390500Y-66851690D01*
X130371650Y-66756927D01*
X130334675Y-66667661D01*
X130280996Y-66587325D01*
X130212675Y-66519004D01*
X130132339Y-66465325D01*
X130043073Y-66428350D01*
X129948310Y-66409500D01*
X129851690Y-66409500D01*
X129756927Y-66428350D01*
X129667661Y-66465325D01*
X129587325Y-66519004D01*
X129519004Y-66587325D01*
X129465325Y-66667661D01*
X129428350Y-66756927D01*
X129409500Y-66851690D01*
X80063500Y-66851690D01*
X80063500Y-65051690D01*
X117409500Y-65051690D01*
X117409500Y-65148310D01*
X117428350Y-65243073D01*
X117465325Y-65332339D01*
X117519004Y-65412675D01*
X117587325Y-65480996D01*
X117667661Y-65534675D01*
X117756927Y-65571650D01*
X117851690Y-65590500D01*
X117948310Y-65590500D01*
X118043073Y-65571650D01*
X118132339Y-65534675D01*
X118212675Y-65480996D01*
X118280996Y-65412675D01*
X118334675Y-65332339D01*
X118371650Y-65243073D01*
X118390500Y-65148310D01*
X118390500Y-65051690D01*
X118371650Y-64956927D01*
X118334675Y-64867661D01*
X118280996Y-64787325D01*
X118212675Y-64719004D01*
X118132339Y-64665325D01*
X118043073Y-64628350D01*
X117948310Y-64609500D01*
X117851690Y-64609500D01*
X117756927Y-64628350D01*
X117667661Y-64665325D01*
X117587325Y-64719004D01*
X117519004Y-64787325D01*
X117465325Y-64867661D01*
X117428350Y-64956927D01*
X117409500Y-65051690D01*
X80063500Y-65051690D01*
X80063500Y-64151690D01*
X129409500Y-64151690D01*
X129409500Y-64248310D01*
X129428350Y-64343073D01*
X129465325Y-64432339D01*
X129519004Y-64512675D01*
X129587325Y-64580996D01*
X129667661Y-64634675D01*
X129756927Y-64671650D01*
X129851690Y-64690500D01*
X129948310Y-64690500D01*
X130043073Y-64671650D01*
X130132339Y-64634675D01*
X130212675Y-64580996D01*
X130280996Y-64512675D01*
X130334675Y-64432339D01*
X130371650Y-64343073D01*
X130384854Y-64276690D01*
X143159500Y-64276690D01*
X143159500Y-64373310D01*
X143178350Y-64468073D01*
X143215325Y-64557339D01*
X143269004Y-64637675D01*
X143337325Y-64705996D01*
X143417661Y-64759675D01*
X143506927Y-64796650D01*
X143601690Y-64815500D01*
X143698310Y-64815500D01*
X143793073Y-64796650D01*
X143882339Y-64759675D01*
X143962675Y-64705996D01*
X144030996Y-64637675D01*
X144084675Y-64557339D01*
X144121650Y-64468073D01*
X144140500Y-64373310D01*
X144140500Y-64276690D01*
X144121650Y-64181927D01*
X144084675Y-64092661D01*
X144030996Y-64012325D01*
X143962675Y-63944004D01*
X143882339Y-63890325D01*
X143793073Y-63853350D01*
X143698310Y-63834500D01*
X143601690Y-63834500D01*
X143506927Y-63853350D01*
X143417661Y-63890325D01*
X143337325Y-63944004D01*
X143269004Y-64012325D01*
X143215325Y-64092661D01*
X143178350Y-64181927D01*
X143159500Y-64276690D01*
X130384854Y-64276690D01*
X130390500Y-64248310D01*
X130390500Y-64151690D01*
X130371650Y-64056927D01*
X130334675Y-63967661D01*
X130280996Y-63887325D01*
X130212675Y-63819004D01*
X130132339Y-63765325D01*
X130043073Y-63728350D01*
X129948310Y-63709500D01*
X129851690Y-63709500D01*
X129756927Y-63728350D01*
X129667661Y-63765325D01*
X129587325Y-63819004D01*
X129519004Y-63887325D01*
X129465325Y-63967661D01*
X129428350Y-64056927D01*
X129409500Y-64151690D01*
X80063500Y-64151690D01*
X80063500Y-62351690D01*
X138309500Y-62351690D01*
X138309500Y-62448310D01*
X138328350Y-62543073D01*
X138365325Y-62632339D01*
X138419004Y-62712675D01*
X138487325Y-62780996D01*
X138567661Y-62834675D01*
X138656927Y-62871650D01*
X138751690Y-62890500D01*
X138848310Y-62890500D01*
X138943073Y-62871650D01*
X139032339Y-62834675D01*
X139112675Y-62780996D01*
X139180996Y-62712675D01*
X139234675Y-62632339D01*
X139271650Y-62543073D01*
X139290500Y-62448310D01*
X139290500Y-62351690D01*
X139271650Y-62256927D01*
X139234675Y-62167661D01*
X139180996Y-62087325D01*
X139112675Y-62019004D01*
X139032339Y-61965325D01*
X138943073Y-61928350D01*
X138848310Y-61909500D01*
X138751690Y-61909500D01*
X138656927Y-61928350D01*
X138567661Y-61965325D01*
X138487325Y-62019004D01*
X138419004Y-62087325D01*
X138365325Y-62167661D01*
X138328350Y-62256927D01*
X138309500Y-62351690D01*
X80063500Y-62351690D01*
X80063500Y-61651690D01*
X123109500Y-61651690D01*
X123109500Y-61748310D01*
X123128350Y-61843073D01*
X123165325Y-61932339D01*
X123219004Y-62012675D01*
X123287325Y-62080996D01*
X123367661Y-62134675D01*
X123456927Y-62171650D01*
X123551690Y-62190500D01*
X123648310Y-62190500D01*
X123743073Y-62171650D01*
X123832339Y-62134675D01*
X123912675Y-62080996D01*
X123980996Y-62012675D01*
X124034675Y-61932339D01*
X124071650Y-61843073D01*
X124090500Y-61748310D01*
X124090500Y-61651690D01*
X124071650Y-61556927D01*
X124034675Y-61467661D01*
X123980996Y-61387325D01*
X123912675Y-61319004D01*
X123832339Y-61265325D01*
X123743073Y-61228350D01*
X123648310Y-61209500D01*
X123551690Y-61209500D01*
X123456927Y-61228350D01*
X123367661Y-61265325D01*
X123287325Y-61319004D01*
X123219004Y-61387325D01*
X123165325Y-61467661D01*
X123128350Y-61556927D01*
X123109500Y-61651690D01*
X80063500Y-61651690D01*
X80063500Y-51687520D01*
X95549500Y-51687520D01*
X95549500Y-51892480D01*
X95589485Y-52093503D01*
X95667920Y-52282862D01*
X95781791Y-52453280D01*
X95926720Y-52598209D01*
X96097138Y-52712080D01*
X96286497Y-52790515D01*
X96487520Y-52830500D01*
X96692480Y-52830500D01*
X96893503Y-52790515D01*
X97082862Y-52712080D01*
X97253280Y-52598209D01*
X97398209Y-52453280D01*
X97512080Y-52282862D01*
X97590515Y-52093503D01*
X97630500Y-51892480D01*
X97630500Y-51687520D01*
X98089500Y-51687520D01*
X98089500Y-51892480D01*
X98129485Y-52093503D01*
X98207920Y-52282862D01*
X98321791Y-52453280D01*
X98466720Y-52598209D01*
X98637138Y-52712080D01*
X98826497Y-52790515D01*
X99027520Y-52830500D01*
X99232480Y-52830500D01*
X99433503Y-52790515D01*
X99622862Y-52712080D01*
X99793280Y-52598209D01*
X99938209Y-52453280D01*
X100052080Y-52282862D01*
X100130515Y-52093503D01*
X100170500Y-51892480D01*
X100170500Y-51687520D01*
X100629500Y-51687520D01*
X100629500Y-51892480D01*
X100669485Y-52093503D01*
X100747920Y-52282862D01*
X100861791Y-52453280D01*
X101006720Y-52598209D01*
X101177138Y-52712080D01*
X101366497Y-52790515D01*
X101567520Y-52830500D01*
X101772480Y-52830500D01*
X101973503Y-52790515D01*
X102162862Y-52712080D01*
X102333280Y-52598209D01*
X102478209Y-52453280D01*
X102592080Y-52282862D01*
X102670515Y-52093503D01*
X102710500Y-51892480D01*
X102710500Y-51687520D01*
X103169500Y-51687520D01*
X103169500Y-51892480D01*
X103209485Y-52093503D01*
X103287920Y-52282862D01*
X103401791Y-52453280D01*
X103546720Y-52598209D01*
X103717138Y-52712080D01*
X103906497Y-52790515D01*
X104107520Y-52830500D01*
X104312480Y-52830500D01*
X104513503Y-52790515D01*
X104702862Y-52712080D01*
X104873280Y-52598209D01*
X105018209Y-52453280D01*
X105132080Y-52282862D01*
X105210515Y-52093503D01*
X105250500Y-51892480D01*
X105250500Y-51687520D01*
X105709500Y-51687520D01*
X105709500Y-51892480D01*
X105749485Y-52093503D01*
X105827920Y-52282862D01*
X105941791Y-52453280D01*
X106086720Y-52598209D01*
X106257138Y-52712080D01*
X106446497Y-52790515D01*
X106647520Y-52830500D01*
X106852480Y-52830500D01*
X107053503Y-52790515D01*
X107242862Y-52712080D01*
X107413280Y-52598209D01*
X107558209Y-52453280D01*
X107672080Y-52282862D01*
X107750515Y-52093503D01*
X107790500Y-51892480D01*
X107790500Y-51687520D01*
X108249500Y-51687520D01*
X108249500Y-51892480D01*
X108289485Y-52093503D01*
X108367920Y-52282862D01*
X108481791Y-52453280D01*
X108626720Y-52598209D01*
X108797138Y-52712080D01*
X108986497Y-52790515D01*
X109187520Y-52830500D01*
X109392480Y-52830500D01*
X109593503Y-52790515D01*
X109782862Y-52712080D01*
X109953280Y-52598209D01*
X110098209Y-52453280D01*
X110212080Y-52282862D01*
X110290515Y-52093503D01*
X110330500Y-51892480D01*
X110330500Y-51687520D01*
X110789500Y-51687520D01*
X110789500Y-51892480D01*
X110829485Y-52093503D01*
X110907920Y-52282862D01*
X111021791Y-52453280D01*
X111166720Y-52598209D01*
X111337138Y-52712080D01*
X111526497Y-52790515D01*
X111727520Y-52830500D01*
X111932480Y-52830500D01*
X112133503Y-52790515D01*
X112322862Y-52712080D01*
X112493280Y-52598209D01*
X112638209Y-52453280D01*
X112752080Y-52282862D01*
X112830515Y-52093503D01*
X112870500Y-51892480D01*
X112870500Y-51687520D01*
X113329500Y-51687520D01*
X113329500Y-51892480D01*
X113369485Y-52093503D01*
X113447920Y-52282862D01*
X113561791Y-52453280D01*
X113706720Y-52598209D01*
X113877138Y-52712080D01*
X114066497Y-52790515D01*
X114267520Y-52830500D01*
X114472480Y-52830500D01*
X114673503Y-52790515D01*
X114862862Y-52712080D01*
X115033280Y-52598209D01*
X115178209Y-52453280D01*
X115292080Y-52282862D01*
X115370515Y-52093503D01*
X115389084Y-52000147D01*
X115816509Y-52000147D01*
X115878518Y-52209439D01*
X115980166Y-52402612D01*
X116117547Y-52572242D01*
X116285382Y-52711811D01*
X116477220Y-52815956D01*
X116685690Y-52880674D01*
X116699853Y-52883490D01*
X116873500Y-52836989D01*
X116873500Y-51826500D01*
X116946500Y-51826500D01*
X116946500Y-52836989D01*
X117120147Y-52883490D01*
X117134310Y-52880674D01*
X117342780Y-52815956D01*
X117534618Y-52711811D01*
X117702453Y-52572242D01*
X117839834Y-52402612D01*
X117941482Y-52209439D01*
X118003491Y-52000147D01*
X117957028Y-51826500D01*
X116946500Y-51826500D01*
X116873500Y-51826500D01*
X115862972Y-51826500D01*
X115816509Y-52000147D01*
X115389084Y-52000147D01*
X115410500Y-51892480D01*
X115410500Y-51687520D01*
X115389085Y-51579853D01*
X115816509Y-51579853D01*
X115862972Y-51753500D01*
X116873500Y-51753500D01*
X116873500Y-50743011D01*
X116946500Y-50743011D01*
X116946500Y-51753500D01*
X117957028Y-51753500D01*
X117974682Y-51687520D01*
X118409500Y-51687520D01*
X118409500Y-51892480D01*
X118449485Y-52093503D01*
X118527920Y-52282862D01*
X118641791Y-52453280D01*
X118786720Y-52598209D01*
X118957138Y-52712080D01*
X119146497Y-52790515D01*
X119347520Y-52830500D01*
X119552480Y-52830500D01*
X119753503Y-52790515D01*
X119942862Y-52712080D01*
X120113280Y-52598209D01*
X120258209Y-52453280D01*
X120372080Y-52282862D01*
X120450515Y-52093503D01*
X120490500Y-51892480D01*
X120490500Y-51687520D01*
X120450515Y-51486497D01*
X120372080Y-51297138D01*
X120258209Y-51126720D01*
X120113280Y-50981791D01*
X119942862Y-50867920D01*
X119753503Y-50789485D01*
X119552480Y-50749500D01*
X119347520Y-50749500D01*
X119146497Y-50789485D01*
X118957138Y-50867920D01*
X118786720Y-50981791D01*
X118641791Y-51126720D01*
X118527920Y-51297138D01*
X118449485Y-51486497D01*
X118409500Y-51687520D01*
X117974682Y-51687520D01*
X118003491Y-51579853D01*
X117941482Y-51370561D01*
X117839834Y-51177388D01*
X117702453Y-51007758D01*
X117534618Y-50868189D01*
X117342780Y-50764044D01*
X117134310Y-50699326D01*
X117120147Y-50696510D01*
X116946500Y-50743011D01*
X116873500Y-50743011D01*
X116699853Y-50696510D01*
X116685690Y-50699326D01*
X116477220Y-50764044D01*
X116285382Y-50868189D01*
X116117547Y-51007758D01*
X115980166Y-51177388D01*
X115878518Y-51370561D01*
X115816509Y-51579853D01*
X115389085Y-51579853D01*
X115370515Y-51486497D01*
X115292080Y-51297138D01*
X115178209Y-51126720D01*
X115033280Y-50981791D01*
X114862862Y-50867920D01*
X114673503Y-50789485D01*
X114472480Y-50749500D01*
X114267520Y-50749500D01*
X114066497Y-50789485D01*
X113877138Y-50867920D01*
X113706720Y-50981791D01*
X113561791Y-51126720D01*
X113447920Y-51297138D01*
X113369485Y-51486497D01*
X113329500Y-51687520D01*
X112870500Y-51687520D01*
X112830515Y-51486497D01*
X112752080Y-51297138D01*
X112638209Y-51126720D01*
X112493280Y-50981791D01*
X112322862Y-50867920D01*
X112133503Y-50789485D01*
X111932480Y-50749500D01*
X111727520Y-50749500D01*
X111526497Y-50789485D01*
X111337138Y-50867920D01*
X111166720Y-50981791D01*
X111021791Y-51126720D01*
X110907920Y-51297138D01*
X110829485Y-51486497D01*
X110789500Y-51687520D01*
X110330500Y-51687520D01*
X110290515Y-51486497D01*
X110212080Y-51297138D01*
X110098209Y-51126720D01*
X109953280Y-50981791D01*
X109782862Y-50867920D01*
X109593503Y-50789485D01*
X109392480Y-50749500D01*
X109187520Y-50749500D01*
X108986497Y-50789485D01*
X108797138Y-50867920D01*
X108626720Y-50981791D01*
X108481791Y-51126720D01*
X108367920Y-51297138D01*
X108289485Y-51486497D01*
X108249500Y-51687520D01*
X107790500Y-51687520D01*
X107750515Y-51486497D01*
X107672080Y-51297138D01*
X107558209Y-51126720D01*
X107413280Y-50981791D01*
X107242862Y-50867920D01*
X107053503Y-50789485D01*
X106852480Y-50749500D01*
X106647520Y-50749500D01*
X106446497Y-50789485D01*
X106257138Y-50867920D01*
X106086720Y-50981791D01*
X105941791Y-51126720D01*
X105827920Y-51297138D01*
X105749485Y-51486497D01*
X105709500Y-51687520D01*
X105250500Y-51687520D01*
X105210515Y-51486497D01*
X105132080Y-51297138D01*
X105018209Y-51126720D01*
X104873280Y-50981791D01*
X104702862Y-50867920D01*
X104513503Y-50789485D01*
X104312480Y-50749500D01*
X104107520Y-50749500D01*
X103906497Y-50789485D01*
X103717138Y-50867920D01*
X103546720Y-50981791D01*
X103401791Y-51126720D01*
X103287920Y-51297138D01*
X103209485Y-51486497D01*
X103169500Y-51687520D01*
X102710500Y-51687520D01*
X102670515Y-51486497D01*
X102592080Y-51297138D01*
X102478209Y-51126720D01*
X102333280Y-50981791D01*
X102162862Y-50867920D01*
X101973503Y-50789485D01*
X101772480Y-50749500D01*
X101567520Y-50749500D01*
X101366497Y-50789485D01*
X101177138Y-50867920D01*
X101006720Y-50981791D01*
X100861791Y-51126720D01*
X100747920Y-51297138D01*
X100669485Y-51486497D01*
X100629500Y-51687520D01*
X100170500Y-51687520D01*
X100130515Y-51486497D01*
X100052080Y-51297138D01*
X99938209Y-51126720D01*
X99793280Y-50981791D01*
X99622862Y-50867920D01*
X99433503Y-50789485D01*
X99232480Y-50749500D01*
X99027520Y-50749500D01*
X98826497Y-50789485D01*
X98637138Y-50867920D01*
X98466720Y-50981791D01*
X98321791Y-51126720D01*
X98207920Y-51297138D01*
X98129485Y-51486497D01*
X98089500Y-51687520D01*
X97630500Y-51687520D01*
X97590515Y-51486497D01*
X97512080Y-51297138D01*
X97398209Y-51126720D01*
X97253280Y-50981791D01*
X97082862Y-50867920D01*
X96893503Y-50789485D01*
X96692480Y-50749500D01*
X96487520Y-50749500D01*
X96286497Y-50789485D01*
X96097138Y-50867920D01*
X95926720Y-50981791D01*
X95781791Y-51126720D01*
X95667920Y-51297138D01*
X95589485Y-51486497D01*
X95549500Y-51687520D01*
X80063500Y-51687520D01*
X80063500Y-49097520D01*
X83279500Y-49097520D01*
X83279500Y-49302480D01*
X83319485Y-49503503D01*
X83397920Y-49692862D01*
X83511791Y-49863280D01*
X83656720Y-50008209D01*
X83827138Y-50122080D01*
X84016497Y-50200515D01*
X84217520Y-50240500D01*
X84422480Y-50240500D01*
X84623503Y-50200515D01*
X84812862Y-50122080D01*
X84983280Y-50008209D01*
X85128209Y-49863280D01*
X85242080Y-49692862D01*
X85320515Y-49503503D01*
X85339084Y-49410147D01*
X85766509Y-49410147D01*
X85828518Y-49619439D01*
X85930166Y-49812612D01*
X86067547Y-49982242D01*
X86235382Y-50121811D01*
X86427220Y-50225956D01*
X86635690Y-50290674D01*
X86649853Y-50293490D01*
X86823500Y-50246989D01*
X86823500Y-49236500D01*
X86896500Y-49236500D01*
X86896500Y-50246989D01*
X87070147Y-50293490D01*
X87084310Y-50290674D01*
X87292780Y-50225956D01*
X87484618Y-50121811D01*
X87570972Y-50050000D01*
X88285225Y-50050000D01*
X88290313Y-50101655D01*
X88305380Y-50151325D01*
X88329848Y-50197101D01*
X88362776Y-50237224D01*
X88402899Y-50270152D01*
X88448675Y-50294620D01*
X88498345Y-50309687D01*
X88550000Y-50314775D01*
X89297625Y-50313500D01*
X89363500Y-50247625D01*
X89363500Y-49236500D01*
X89436500Y-49236500D01*
X89436500Y-50247625D01*
X89502375Y-50313500D01*
X90250000Y-50314775D01*
X90301655Y-50309687D01*
X90351325Y-50294620D01*
X90397101Y-50270152D01*
X90437224Y-50237224D01*
X90470152Y-50197101D01*
X90494620Y-50151325D01*
X90509687Y-50101655D01*
X90514775Y-50050000D01*
X90513500Y-49302375D01*
X90447625Y-49236500D01*
X89436500Y-49236500D01*
X89363500Y-49236500D01*
X88352375Y-49236500D01*
X88286500Y-49302375D01*
X88285225Y-50050000D01*
X87570972Y-50050000D01*
X87652453Y-49982242D01*
X87789834Y-49812612D01*
X87891482Y-49619439D01*
X87953491Y-49410147D01*
X87907028Y-49236500D01*
X86896500Y-49236500D01*
X86823500Y-49236500D01*
X85812972Y-49236500D01*
X85766509Y-49410147D01*
X85339084Y-49410147D01*
X85360500Y-49302480D01*
X85360500Y-49097520D01*
X85339085Y-48989853D01*
X85766509Y-48989853D01*
X85812972Y-49163500D01*
X86823500Y-49163500D01*
X86823500Y-48153011D01*
X86896500Y-48153011D01*
X86896500Y-49163500D01*
X87907028Y-49163500D01*
X87953491Y-48989853D01*
X87891482Y-48780561D01*
X87789834Y-48587388D01*
X87652453Y-48417758D01*
X87570973Y-48350000D01*
X88285225Y-48350000D01*
X88286500Y-49097625D01*
X88352375Y-49163500D01*
X89363500Y-49163500D01*
X89363500Y-48152375D01*
X89436500Y-48152375D01*
X89436500Y-49163500D01*
X90447625Y-49163500D01*
X90463605Y-49147520D01*
X95549500Y-49147520D01*
X95549500Y-49352480D01*
X95589485Y-49553503D01*
X95667920Y-49742862D01*
X95781791Y-49913280D01*
X95926720Y-50058209D01*
X96097138Y-50172080D01*
X96286497Y-50250515D01*
X96487520Y-50290500D01*
X96692480Y-50290500D01*
X96893503Y-50250515D01*
X97082862Y-50172080D01*
X97253280Y-50058209D01*
X97398209Y-49913280D01*
X97512080Y-49742862D01*
X97590515Y-49553503D01*
X97630500Y-49352480D01*
X97630500Y-49147520D01*
X98089500Y-49147520D01*
X98089500Y-49352480D01*
X98129485Y-49553503D01*
X98207920Y-49742862D01*
X98321791Y-49913280D01*
X98466720Y-50058209D01*
X98637138Y-50172080D01*
X98826497Y-50250515D01*
X99027520Y-50290500D01*
X99232480Y-50290500D01*
X99433503Y-50250515D01*
X99622862Y-50172080D01*
X99793280Y-50058209D01*
X99938209Y-49913280D01*
X100052080Y-49742862D01*
X100130515Y-49553503D01*
X100170500Y-49352480D01*
X100170500Y-49147520D01*
X100629500Y-49147520D01*
X100629500Y-49352480D01*
X100669485Y-49553503D01*
X100747920Y-49742862D01*
X100861791Y-49913280D01*
X101006720Y-50058209D01*
X101177138Y-50172080D01*
X101366497Y-50250515D01*
X101567520Y-50290500D01*
X101772480Y-50290500D01*
X101973503Y-50250515D01*
X102162862Y-50172080D01*
X102333280Y-50058209D01*
X102478209Y-49913280D01*
X102592080Y-49742862D01*
X102670515Y-49553503D01*
X102710500Y-49352480D01*
X102710500Y-49147520D01*
X103169500Y-49147520D01*
X103169500Y-49352480D01*
X103209485Y-49553503D01*
X103287920Y-49742862D01*
X103401791Y-49913280D01*
X103546720Y-50058209D01*
X103717138Y-50172080D01*
X103906497Y-50250515D01*
X104107520Y-50290500D01*
X104312480Y-50290500D01*
X104513503Y-50250515D01*
X104702862Y-50172080D01*
X104873280Y-50058209D01*
X105018209Y-49913280D01*
X105132080Y-49742862D01*
X105210515Y-49553503D01*
X105250500Y-49352480D01*
X105250500Y-49147520D01*
X105709500Y-49147520D01*
X105709500Y-49352480D01*
X105749485Y-49553503D01*
X105827920Y-49742862D01*
X105941791Y-49913280D01*
X106086720Y-50058209D01*
X106257138Y-50172080D01*
X106446497Y-50250515D01*
X106647520Y-50290500D01*
X106852480Y-50290500D01*
X107053503Y-50250515D01*
X107242862Y-50172080D01*
X107413280Y-50058209D01*
X107558209Y-49913280D01*
X107672080Y-49742862D01*
X107750515Y-49553503D01*
X107790500Y-49352480D01*
X107790500Y-49147520D01*
X108249500Y-49147520D01*
X108249500Y-49352480D01*
X108289485Y-49553503D01*
X108367920Y-49742862D01*
X108481791Y-49913280D01*
X108626720Y-50058209D01*
X108797138Y-50172080D01*
X108986497Y-50250515D01*
X109187520Y-50290500D01*
X109392480Y-50290500D01*
X109593503Y-50250515D01*
X109782862Y-50172080D01*
X109953280Y-50058209D01*
X110098209Y-49913280D01*
X110212080Y-49742862D01*
X110290515Y-49553503D01*
X110330500Y-49352480D01*
X110330500Y-49147520D01*
X110789500Y-49147520D01*
X110789500Y-49352480D01*
X110829485Y-49553503D01*
X110907920Y-49742862D01*
X111021791Y-49913280D01*
X111166720Y-50058209D01*
X111337138Y-50172080D01*
X111526497Y-50250515D01*
X111727520Y-50290500D01*
X111932480Y-50290500D01*
X112133503Y-50250515D01*
X112322862Y-50172080D01*
X112493280Y-50058209D01*
X112638209Y-49913280D01*
X112752080Y-49742862D01*
X112830515Y-49553503D01*
X112870500Y-49352480D01*
X112870500Y-49147520D01*
X113329500Y-49147520D01*
X113329500Y-49352480D01*
X113369485Y-49553503D01*
X113447920Y-49742862D01*
X113561791Y-49913280D01*
X113706720Y-50058209D01*
X113877138Y-50172080D01*
X114066497Y-50250515D01*
X114267520Y-50290500D01*
X114472480Y-50290500D01*
X114673503Y-50250515D01*
X114862862Y-50172080D01*
X115033280Y-50058209D01*
X115178209Y-49913280D01*
X115292080Y-49742862D01*
X115370515Y-49553503D01*
X115410500Y-49352480D01*
X115410500Y-49147520D01*
X115869500Y-49147520D01*
X115869500Y-49352480D01*
X115909485Y-49553503D01*
X115987920Y-49742862D01*
X116101791Y-49913280D01*
X116246720Y-50058209D01*
X116417138Y-50172080D01*
X116606497Y-50250515D01*
X116807520Y-50290500D01*
X117012480Y-50290500D01*
X117213503Y-50250515D01*
X117402862Y-50172080D01*
X117573280Y-50058209D01*
X117718209Y-49913280D01*
X117832080Y-49742862D01*
X117910515Y-49553503D01*
X117950500Y-49352480D01*
X117950500Y-49147520D01*
X117910515Y-48946497D01*
X117832080Y-48757138D01*
X117718209Y-48586720D01*
X117573280Y-48441791D01*
X117510737Y-48400000D01*
X118408579Y-48400000D01*
X118408579Y-50100000D01*
X118412257Y-50137344D01*
X118423150Y-50173254D01*
X118440839Y-50206348D01*
X118464645Y-50235355D01*
X118493652Y-50259161D01*
X118526746Y-50276850D01*
X118562656Y-50287743D01*
X118600000Y-50291421D01*
X120300000Y-50291421D01*
X120337344Y-50287743D01*
X120373254Y-50276850D01*
X120406348Y-50259161D01*
X120435355Y-50235355D01*
X120459161Y-50206348D01*
X120476850Y-50173254D01*
X120487743Y-50137344D01*
X120491421Y-50100000D01*
X120491421Y-49783500D01*
X156159500Y-49783500D01*
X156159500Y-50116500D01*
X156224465Y-50443101D01*
X156351898Y-50750752D01*
X156536903Y-51027631D01*
X156772369Y-51263097D01*
X157049248Y-51448102D01*
X157356899Y-51575535D01*
X157683500Y-51640500D01*
X158016500Y-51640500D01*
X158343101Y-51575535D01*
X158650752Y-51448102D01*
X158927631Y-51263097D01*
X159163097Y-51027631D01*
X159348102Y-50750752D01*
X159475535Y-50443101D01*
X159540500Y-50116500D01*
X159540500Y-49783500D01*
X159475535Y-49456899D01*
X159348102Y-49149248D01*
X159163097Y-48872369D01*
X158927631Y-48636903D01*
X158650752Y-48451898D01*
X158343101Y-48324465D01*
X158016500Y-48259500D01*
X157683500Y-48259500D01*
X157356899Y-48324465D01*
X157049248Y-48451898D01*
X156772369Y-48636903D01*
X156536903Y-48872369D01*
X156351898Y-49149248D01*
X156224465Y-49456899D01*
X156159500Y-49783500D01*
X120491421Y-49783500D01*
X120491421Y-48400000D01*
X120487743Y-48362656D01*
X120476850Y-48326746D01*
X120459161Y-48293652D01*
X120435355Y-48264645D01*
X120406348Y-48240839D01*
X120373254Y-48223150D01*
X120337344Y-48212257D01*
X120300000Y-48208579D01*
X118600000Y-48208579D01*
X118562656Y-48212257D01*
X118526746Y-48223150D01*
X118493652Y-48240839D01*
X118464645Y-48264645D01*
X118440839Y-48293652D01*
X118423150Y-48326746D01*
X118412257Y-48362656D01*
X118408579Y-48400000D01*
X117510737Y-48400000D01*
X117402862Y-48327920D01*
X117213503Y-48249485D01*
X117012480Y-48209500D01*
X116807520Y-48209500D01*
X116606497Y-48249485D01*
X116417138Y-48327920D01*
X116246720Y-48441791D01*
X116101791Y-48586720D01*
X115987920Y-48757138D01*
X115909485Y-48946497D01*
X115869500Y-49147520D01*
X115410500Y-49147520D01*
X115370515Y-48946497D01*
X115292080Y-48757138D01*
X115178209Y-48586720D01*
X115033280Y-48441791D01*
X114862862Y-48327920D01*
X114673503Y-48249485D01*
X114472480Y-48209500D01*
X114267520Y-48209500D01*
X114066497Y-48249485D01*
X113877138Y-48327920D01*
X113706720Y-48441791D01*
X113561791Y-48586720D01*
X113447920Y-48757138D01*
X113369485Y-48946497D01*
X113329500Y-49147520D01*
X112870500Y-49147520D01*
X112830515Y-48946497D01*
X112752080Y-48757138D01*
X112638209Y-48586720D01*
X112493280Y-48441791D01*
X112322862Y-48327920D01*
X112133503Y-48249485D01*
X111932480Y-48209500D01*
X111727520Y-48209500D01*
X111526497Y-48249485D01*
X111337138Y-48327920D01*
X111166720Y-48441791D01*
X111021791Y-48586720D01*
X110907920Y-48757138D01*
X110829485Y-48946497D01*
X110789500Y-49147520D01*
X110330500Y-49147520D01*
X110290515Y-48946497D01*
X110212080Y-48757138D01*
X110098209Y-48586720D01*
X109953280Y-48441791D01*
X109782862Y-48327920D01*
X109593503Y-48249485D01*
X109392480Y-48209500D01*
X109187520Y-48209500D01*
X108986497Y-48249485D01*
X108797138Y-48327920D01*
X108626720Y-48441791D01*
X108481791Y-48586720D01*
X108367920Y-48757138D01*
X108289485Y-48946497D01*
X108249500Y-49147520D01*
X107790500Y-49147520D01*
X107750515Y-48946497D01*
X107672080Y-48757138D01*
X107558209Y-48586720D01*
X107413280Y-48441791D01*
X107242862Y-48327920D01*
X107053503Y-48249485D01*
X106852480Y-48209500D01*
X106647520Y-48209500D01*
X106446497Y-48249485D01*
X106257138Y-48327920D01*
X106086720Y-48441791D01*
X105941791Y-48586720D01*
X105827920Y-48757138D01*
X105749485Y-48946497D01*
X105709500Y-49147520D01*
X105250500Y-49147520D01*
X105210515Y-48946497D01*
X105132080Y-48757138D01*
X105018209Y-48586720D01*
X104873280Y-48441791D01*
X104702862Y-48327920D01*
X104513503Y-48249485D01*
X104312480Y-48209500D01*
X104107520Y-48209500D01*
X103906497Y-48249485D01*
X103717138Y-48327920D01*
X103546720Y-48441791D01*
X103401791Y-48586720D01*
X103287920Y-48757138D01*
X103209485Y-48946497D01*
X103169500Y-49147520D01*
X102710500Y-49147520D01*
X102670515Y-48946497D01*
X102592080Y-48757138D01*
X102478209Y-48586720D01*
X102333280Y-48441791D01*
X102162862Y-48327920D01*
X101973503Y-48249485D01*
X101772480Y-48209500D01*
X101567520Y-48209500D01*
X101366497Y-48249485D01*
X101177138Y-48327920D01*
X101006720Y-48441791D01*
X100861791Y-48586720D01*
X100747920Y-48757138D01*
X100669485Y-48946497D01*
X100629500Y-49147520D01*
X100170500Y-49147520D01*
X100130515Y-48946497D01*
X100052080Y-48757138D01*
X99938209Y-48586720D01*
X99793280Y-48441791D01*
X99622862Y-48327920D01*
X99433503Y-48249485D01*
X99232480Y-48209500D01*
X99027520Y-48209500D01*
X98826497Y-48249485D01*
X98637138Y-48327920D01*
X98466720Y-48441791D01*
X98321791Y-48586720D01*
X98207920Y-48757138D01*
X98129485Y-48946497D01*
X98089500Y-49147520D01*
X97630500Y-49147520D01*
X97590515Y-48946497D01*
X97512080Y-48757138D01*
X97398209Y-48586720D01*
X97253280Y-48441791D01*
X97082862Y-48327920D01*
X96893503Y-48249485D01*
X96692480Y-48209500D01*
X96487520Y-48209500D01*
X96286497Y-48249485D01*
X96097138Y-48327920D01*
X95926720Y-48441791D01*
X95781791Y-48586720D01*
X95667920Y-48757138D01*
X95589485Y-48946497D01*
X95549500Y-49147520D01*
X90463605Y-49147520D01*
X90513500Y-49097625D01*
X90514775Y-48350000D01*
X90509687Y-48298345D01*
X90494620Y-48248675D01*
X90470152Y-48202899D01*
X90437224Y-48162776D01*
X90397101Y-48129848D01*
X90351325Y-48105380D01*
X90301655Y-48090313D01*
X90250000Y-48085225D01*
X89502375Y-48086500D01*
X89436500Y-48152375D01*
X89363500Y-48152375D01*
X89297625Y-48086500D01*
X88550000Y-48085225D01*
X88498345Y-48090313D01*
X88448675Y-48105380D01*
X88402899Y-48129848D01*
X88362776Y-48162776D01*
X88329848Y-48202899D01*
X88305380Y-48248675D01*
X88290313Y-48298345D01*
X88285225Y-48350000D01*
X87570973Y-48350000D01*
X87484618Y-48278189D01*
X87292780Y-48174044D01*
X87084310Y-48109326D01*
X87070147Y-48106510D01*
X86896500Y-48153011D01*
X86823500Y-48153011D01*
X86649853Y-48106510D01*
X86635690Y-48109326D01*
X86427220Y-48174044D01*
X86235382Y-48278189D01*
X86067547Y-48417758D01*
X85930166Y-48587388D01*
X85828518Y-48780561D01*
X85766509Y-48989853D01*
X85339085Y-48989853D01*
X85320515Y-48896497D01*
X85242080Y-48707138D01*
X85128209Y-48536720D01*
X84983280Y-48391791D01*
X84812862Y-48277920D01*
X84623503Y-48199485D01*
X84422480Y-48159500D01*
X84217520Y-48159500D01*
X84016497Y-48199485D01*
X83827138Y-48277920D01*
X83656720Y-48391791D01*
X83511791Y-48536720D01*
X83397920Y-48707138D01*
X83319485Y-48896497D01*
X83279500Y-49097520D01*
X80063500Y-49097520D01*
X80063500Y-45063500D01*
X162936500Y-45063500D01*
X162936500Y-119784500D01*
%TA.AperFunction,Conductor*%
D17*
G36*
X162936500Y-119784500D02*
G01*
X80063500Y-119784500D01*
X80063500Y-115997520D01*
X83479500Y-115997520D01*
X83479500Y-116202480D01*
X83519485Y-116403503D01*
X83597920Y-116592862D01*
X83711791Y-116763280D01*
X83856720Y-116908209D01*
X84027138Y-117022080D01*
X84216497Y-117100515D01*
X84417520Y-117140500D01*
X84622480Y-117140500D01*
X84823503Y-117100515D01*
X85012862Y-117022080D01*
X85183280Y-116908209D01*
X85328209Y-116763280D01*
X85442080Y-116592862D01*
X85520515Y-116403503D01*
X85539084Y-116310147D01*
X85966509Y-116310147D01*
X86028518Y-116519439D01*
X86130166Y-116712612D01*
X86267547Y-116882242D01*
X86435382Y-117021811D01*
X86627220Y-117125956D01*
X86835690Y-117190674D01*
X86849853Y-117193490D01*
X87023500Y-117146989D01*
X87023500Y-116136500D01*
X87096500Y-116136500D01*
X87096500Y-117146989D01*
X87270147Y-117193490D01*
X87284310Y-117190674D01*
X87492780Y-117125956D01*
X87684618Y-117021811D01*
X87770972Y-116950000D01*
X88485225Y-116950000D01*
X88490313Y-117001655D01*
X88505380Y-117051325D01*
X88529848Y-117097101D01*
X88562776Y-117137224D01*
X88602899Y-117170152D01*
X88648675Y-117194620D01*
X88698345Y-117209687D01*
X88750000Y-117214775D01*
X89497625Y-117213500D01*
X89563500Y-117147625D01*
X89563500Y-116136500D01*
X89636500Y-116136500D01*
X89636500Y-117147625D01*
X89702375Y-117213500D01*
X90450000Y-117214775D01*
X90501655Y-117209687D01*
X90551325Y-117194620D01*
X90597101Y-117170152D01*
X90637224Y-117137224D01*
X90670152Y-117097101D01*
X90694620Y-117051325D01*
X90709687Y-117001655D01*
X90714775Y-116950000D01*
X90713500Y-116202375D01*
X90647625Y-116136500D01*
X89636500Y-116136500D01*
X89563500Y-116136500D01*
X88552375Y-116136500D01*
X88486500Y-116202375D01*
X88485225Y-116950000D01*
X87770972Y-116950000D01*
X87852453Y-116882242D01*
X87989834Y-116712612D01*
X88091482Y-116519439D01*
X88153491Y-116310147D01*
X88107028Y-116136500D01*
X87096500Y-116136500D01*
X87023500Y-116136500D01*
X86012972Y-116136500D01*
X85966509Y-116310147D01*
X85539084Y-116310147D01*
X85560500Y-116202480D01*
X85560500Y-115997520D01*
X85539085Y-115889853D01*
X85966509Y-115889853D01*
X86012972Y-116063500D01*
X87023500Y-116063500D01*
X87023500Y-115053011D01*
X87096500Y-115053011D01*
X87096500Y-116063500D01*
X88107028Y-116063500D01*
X88153491Y-115889853D01*
X88091482Y-115680561D01*
X87989834Y-115487388D01*
X87852453Y-115317758D01*
X87770973Y-115250000D01*
X88485225Y-115250000D01*
X88486500Y-115997625D01*
X88552375Y-116063500D01*
X89563500Y-116063500D01*
X89563500Y-115052375D01*
X89636500Y-115052375D01*
X89636500Y-116063500D01*
X90647625Y-116063500D01*
X90713500Y-115997625D01*
X90713517Y-115987520D01*
X95549500Y-115987520D01*
X95549500Y-116192480D01*
X95589485Y-116393503D01*
X95667920Y-116582862D01*
X95781791Y-116753280D01*
X95926720Y-116898209D01*
X96097138Y-117012080D01*
X96286497Y-117090515D01*
X96487520Y-117130500D01*
X96692480Y-117130500D01*
X96893503Y-117090515D01*
X97082862Y-117012080D01*
X97253280Y-116898209D01*
X97398209Y-116753280D01*
X97512080Y-116582862D01*
X97590515Y-116393503D01*
X97630500Y-116192480D01*
X97630500Y-115987520D01*
X98089500Y-115987520D01*
X98089500Y-116192480D01*
X98129485Y-116393503D01*
X98207920Y-116582862D01*
X98321791Y-116753280D01*
X98466720Y-116898209D01*
X98637138Y-117012080D01*
X98826497Y-117090515D01*
X99027520Y-117130500D01*
X99232480Y-117130500D01*
X99433503Y-117090515D01*
X99622862Y-117012080D01*
X99793280Y-116898209D01*
X99938209Y-116753280D01*
X100052080Y-116582862D01*
X100130515Y-116393503D01*
X100170500Y-116192480D01*
X100170500Y-115987520D01*
X100629500Y-115987520D01*
X100629500Y-116192480D01*
X100669485Y-116393503D01*
X100747920Y-116582862D01*
X100861791Y-116753280D01*
X101006720Y-116898209D01*
X101177138Y-117012080D01*
X101366497Y-117090515D01*
X101567520Y-117130500D01*
X101772480Y-117130500D01*
X101973503Y-117090515D01*
X102162862Y-117012080D01*
X102333280Y-116898209D01*
X102478209Y-116753280D01*
X102592080Y-116582862D01*
X102670515Y-116393503D01*
X102710500Y-116192480D01*
X102710500Y-115987520D01*
X103169500Y-115987520D01*
X103169500Y-116192480D01*
X103209485Y-116393503D01*
X103287920Y-116582862D01*
X103401791Y-116753280D01*
X103546720Y-116898209D01*
X103717138Y-117012080D01*
X103906497Y-117090515D01*
X104107520Y-117130500D01*
X104312480Y-117130500D01*
X104513503Y-117090515D01*
X104702862Y-117012080D01*
X104873280Y-116898209D01*
X105018209Y-116753280D01*
X105132080Y-116582862D01*
X105210515Y-116393503D01*
X105250500Y-116192480D01*
X105250500Y-115987520D01*
X105709500Y-115987520D01*
X105709500Y-116192480D01*
X105749485Y-116393503D01*
X105827920Y-116582862D01*
X105941791Y-116753280D01*
X106086720Y-116898209D01*
X106257138Y-117012080D01*
X106446497Y-117090515D01*
X106647520Y-117130500D01*
X106852480Y-117130500D01*
X107053503Y-117090515D01*
X107242862Y-117012080D01*
X107413280Y-116898209D01*
X107558209Y-116753280D01*
X107672080Y-116582862D01*
X107750515Y-116393503D01*
X107790500Y-116192480D01*
X107790500Y-115987520D01*
X108249500Y-115987520D01*
X108249500Y-116192480D01*
X108289485Y-116393503D01*
X108367920Y-116582862D01*
X108481791Y-116753280D01*
X108626720Y-116898209D01*
X108797138Y-117012080D01*
X108986497Y-117090515D01*
X109187520Y-117130500D01*
X109392480Y-117130500D01*
X109593503Y-117090515D01*
X109782862Y-117012080D01*
X109953280Y-116898209D01*
X110098209Y-116753280D01*
X110212080Y-116582862D01*
X110290515Y-116393503D01*
X110330500Y-116192480D01*
X110330500Y-115987520D01*
X110789500Y-115987520D01*
X110789500Y-116192480D01*
X110829485Y-116393503D01*
X110907920Y-116582862D01*
X111021791Y-116753280D01*
X111166720Y-116898209D01*
X111337138Y-117012080D01*
X111526497Y-117090515D01*
X111727520Y-117130500D01*
X111932480Y-117130500D01*
X112133503Y-117090515D01*
X112322862Y-117012080D01*
X112493280Y-116898209D01*
X112638209Y-116753280D01*
X112752080Y-116582862D01*
X112830515Y-116393503D01*
X112870500Y-116192480D01*
X112870500Y-115987520D01*
X113329500Y-115987520D01*
X113329500Y-116192480D01*
X113369485Y-116393503D01*
X113447920Y-116582862D01*
X113561791Y-116753280D01*
X113706720Y-116898209D01*
X113877138Y-117012080D01*
X114066497Y-117090515D01*
X114267520Y-117130500D01*
X114472480Y-117130500D01*
X114673503Y-117090515D01*
X114862862Y-117012080D01*
X115033280Y-116898209D01*
X115178209Y-116753280D01*
X115292080Y-116582862D01*
X115370515Y-116393503D01*
X115410500Y-116192480D01*
X115410500Y-115987520D01*
X115869500Y-115987520D01*
X115869500Y-116192480D01*
X115909485Y-116393503D01*
X115987920Y-116582862D01*
X116101791Y-116753280D01*
X116246720Y-116898209D01*
X116417138Y-117012080D01*
X116606497Y-117090515D01*
X116807520Y-117130500D01*
X117012480Y-117130500D01*
X117213503Y-117090515D01*
X117402862Y-117012080D01*
X117573280Y-116898209D01*
X117718209Y-116753280D01*
X117832080Y-116582862D01*
X117910515Y-116393503D01*
X117929084Y-116300147D01*
X118356509Y-116300147D01*
X118418518Y-116509439D01*
X118520166Y-116702612D01*
X118657547Y-116872242D01*
X118825382Y-117011811D01*
X119017220Y-117115956D01*
X119225690Y-117180674D01*
X119239853Y-117183490D01*
X119413500Y-117136989D01*
X119413500Y-116126500D01*
X119486500Y-116126500D01*
X119486500Y-117136989D01*
X119660147Y-117183490D01*
X119674310Y-117180674D01*
X119882780Y-117115956D01*
X120074618Y-117011811D01*
X120242453Y-116872242D01*
X120379834Y-116702612D01*
X120481482Y-116509439D01*
X120543491Y-116300147D01*
X120497028Y-116126500D01*
X119486500Y-116126500D01*
X119413500Y-116126500D01*
X118402972Y-116126500D01*
X118356509Y-116300147D01*
X117929084Y-116300147D01*
X117950500Y-116192480D01*
X117950500Y-115987520D01*
X117929085Y-115879853D01*
X118356509Y-115879853D01*
X118402972Y-116053500D01*
X119413500Y-116053500D01*
X119413500Y-115043011D01*
X119486500Y-115043011D01*
X119486500Y-116053500D01*
X120497028Y-116053500D01*
X120543491Y-115879853D01*
X120481482Y-115670561D01*
X120379834Y-115477388D01*
X120242453Y-115307758D01*
X120074618Y-115168189D01*
X119882780Y-115064044D01*
X119674310Y-114999326D01*
X119660147Y-114996510D01*
X119486500Y-115043011D01*
X119413500Y-115043011D01*
X119239853Y-114996510D01*
X119225690Y-114999326D01*
X119017220Y-115064044D01*
X118825382Y-115168189D01*
X118657547Y-115307758D01*
X118520166Y-115477388D01*
X118418518Y-115670561D01*
X118356509Y-115879853D01*
X117929085Y-115879853D01*
X117910515Y-115786497D01*
X117832080Y-115597138D01*
X117718209Y-115426720D01*
X117573280Y-115281791D01*
X117402862Y-115167920D01*
X117213503Y-115089485D01*
X117012480Y-115049500D01*
X116807520Y-115049500D01*
X116606497Y-115089485D01*
X116417138Y-115167920D01*
X116246720Y-115281791D01*
X116101791Y-115426720D01*
X115987920Y-115597138D01*
X115909485Y-115786497D01*
X115869500Y-115987520D01*
X115410500Y-115987520D01*
X115370515Y-115786497D01*
X115292080Y-115597138D01*
X115178209Y-115426720D01*
X115033280Y-115281791D01*
X114862862Y-115167920D01*
X114673503Y-115089485D01*
X114472480Y-115049500D01*
X114267520Y-115049500D01*
X114066497Y-115089485D01*
X113877138Y-115167920D01*
X113706720Y-115281791D01*
X113561791Y-115426720D01*
X113447920Y-115597138D01*
X113369485Y-115786497D01*
X113329500Y-115987520D01*
X112870500Y-115987520D01*
X112830515Y-115786497D01*
X112752080Y-115597138D01*
X112638209Y-115426720D01*
X112493280Y-115281791D01*
X112322862Y-115167920D01*
X112133503Y-115089485D01*
X111932480Y-115049500D01*
X111727520Y-115049500D01*
X111526497Y-115089485D01*
X111337138Y-115167920D01*
X111166720Y-115281791D01*
X111021791Y-115426720D01*
X110907920Y-115597138D01*
X110829485Y-115786497D01*
X110789500Y-115987520D01*
X110330500Y-115987520D01*
X110290515Y-115786497D01*
X110212080Y-115597138D01*
X110098209Y-115426720D01*
X109953280Y-115281791D01*
X109782862Y-115167920D01*
X109593503Y-115089485D01*
X109392480Y-115049500D01*
X109187520Y-115049500D01*
X108986497Y-115089485D01*
X108797138Y-115167920D01*
X108626720Y-115281791D01*
X108481791Y-115426720D01*
X108367920Y-115597138D01*
X108289485Y-115786497D01*
X108249500Y-115987520D01*
X107790500Y-115987520D01*
X107750515Y-115786497D01*
X107672080Y-115597138D01*
X107558209Y-115426720D01*
X107413280Y-115281791D01*
X107242862Y-115167920D01*
X107053503Y-115089485D01*
X106852480Y-115049500D01*
X106647520Y-115049500D01*
X106446497Y-115089485D01*
X106257138Y-115167920D01*
X106086720Y-115281791D01*
X105941791Y-115426720D01*
X105827920Y-115597138D01*
X105749485Y-115786497D01*
X105709500Y-115987520D01*
X105250500Y-115987520D01*
X105210515Y-115786497D01*
X105132080Y-115597138D01*
X105018209Y-115426720D01*
X104873280Y-115281791D01*
X104702862Y-115167920D01*
X104513503Y-115089485D01*
X104312480Y-115049500D01*
X104107520Y-115049500D01*
X103906497Y-115089485D01*
X103717138Y-115167920D01*
X103546720Y-115281791D01*
X103401791Y-115426720D01*
X103287920Y-115597138D01*
X103209485Y-115786497D01*
X103169500Y-115987520D01*
X102710500Y-115987520D01*
X102670515Y-115786497D01*
X102592080Y-115597138D01*
X102478209Y-115426720D01*
X102333280Y-115281791D01*
X102162862Y-115167920D01*
X101973503Y-115089485D01*
X101772480Y-115049500D01*
X101567520Y-115049500D01*
X101366497Y-115089485D01*
X101177138Y-115167920D01*
X101006720Y-115281791D01*
X100861791Y-115426720D01*
X100747920Y-115597138D01*
X100669485Y-115786497D01*
X100629500Y-115987520D01*
X100170500Y-115987520D01*
X100130515Y-115786497D01*
X100052080Y-115597138D01*
X99938209Y-115426720D01*
X99793280Y-115281791D01*
X99622862Y-115167920D01*
X99433503Y-115089485D01*
X99232480Y-115049500D01*
X99027520Y-115049500D01*
X98826497Y-115089485D01*
X98637138Y-115167920D01*
X98466720Y-115281791D01*
X98321791Y-115426720D01*
X98207920Y-115597138D01*
X98129485Y-115786497D01*
X98089500Y-115987520D01*
X97630500Y-115987520D01*
X97590515Y-115786497D01*
X97512080Y-115597138D01*
X97398209Y-115426720D01*
X97253280Y-115281791D01*
X97082862Y-115167920D01*
X96893503Y-115089485D01*
X96692480Y-115049500D01*
X96487520Y-115049500D01*
X96286497Y-115089485D01*
X96097138Y-115167920D01*
X95926720Y-115281791D01*
X95781791Y-115426720D01*
X95667920Y-115597138D01*
X95589485Y-115786497D01*
X95549500Y-115987520D01*
X90713517Y-115987520D01*
X90714775Y-115250000D01*
X90709687Y-115198345D01*
X90694620Y-115148675D01*
X90670152Y-115102899D01*
X90637224Y-115062776D01*
X90597101Y-115029848D01*
X90551325Y-115005380D01*
X90501655Y-114990313D01*
X90450000Y-114985225D01*
X89702375Y-114986500D01*
X89636500Y-115052375D01*
X89563500Y-115052375D01*
X89497625Y-114986500D01*
X88750000Y-114985225D01*
X88698345Y-114990313D01*
X88648675Y-115005380D01*
X88602899Y-115029848D01*
X88562776Y-115062776D01*
X88529848Y-115102899D01*
X88505380Y-115148675D01*
X88490313Y-115198345D01*
X88485225Y-115250000D01*
X87770973Y-115250000D01*
X87684618Y-115178189D01*
X87492780Y-115074044D01*
X87284310Y-115009326D01*
X87270147Y-115006510D01*
X87096500Y-115053011D01*
X87023500Y-115053011D01*
X86849853Y-115006510D01*
X86835690Y-115009326D01*
X86627220Y-115074044D01*
X86435382Y-115178189D01*
X86267547Y-115317758D01*
X86130166Y-115487388D01*
X86028518Y-115680561D01*
X85966509Y-115889853D01*
X85539085Y-115889853D01*
X85520515Y-115796497D01*
X85442080Y-115607138D01*
X85328209Y-115436720D01*
X85183280Y-115291791D01*
X85012862Y-115177920D01*
X84823503Y-115099485D01*
X84622480Y-115059500D01*
X84417520Y-115059500D01*
X84216497Y-115099485D01*
X84027138Y-115177920D01*
X83856720Y-115291791D01*
X83711791Y-115436720D01*
X83597920Y-115607138D01*
X83519485Y-115796497D01*
X83479500Y-115997520D01*
X80063500Y-115997520D01*
X80063500Y-113447520D01*
X95549500Y-113447520D01*
X95549500Y-113652480D01*
X95589485Y-113853503D01*
X95667920Y-114042862D01*
X95781791Y-114213280D01*
X95926720Y-114358209D01*
X96097138Y-114472080D01*
X96286497Y-114550515D01*
X96487520Y-114590500D01*
X96692480Y-114590500D01*
X96893503Y-114550515D01*
X97082862Y-114472080D01*
X97253280Y-114358209D01*
X97398209Y-114213280D01*
X97512080Y-114042862D01*
X97590515Y-113853503D01*
X97630500Y-113652480D01*
X97630500Y-113447520D01*
X98089500Y-113447520D01*
X98089500Y-113652480D01*
X98129485Y-113853503D01*
X98207920Y-114042862D01*
X98321791Y-114213280D01*
X98466720Y-114358209D01*
X98637138Y-114472080D01*
X98826497Y-114550515D01*
X99027520Y-114590500D01*
X99232480Y-114590500D01*
X99433503Y-114550515D01*
X99622862Y-114472080D01*
X99793280Y-114358209D01*
X99938209Y-114213280D01*
X100052080Y-114042862D01*
X100130515Y-113853503D01*
X100170500Y-113652480D01*
X100170500Y-113447520D01*
X100629500Y-113447520D01*
X100629500Y-113652480D01*
X100669485Y-113853503D01*
X100747920Y-114042862D01*
X100861791Y-114213280D01*
X101006720Y-114358209D01*
X101177138Y-114472080D01*
X101366497Y-114550515D01*
X101567520Y-114590500D01*
X101772480Y-114590500D01*
X101973503Y-114550515D01*
X102162862Y-114472080D01*
X102333280Y-114358209D01*
X102478209Y-114213280D01*
X102592080Y-114042862D01*
X102670515Y-113853503D01*
X102710500Y-113652480D01*
X102710500Y-113447520D01*
X103169500Y-113447520D01*
X103169500Y-113652480D01*
X103209485Y-113853503D01*
X103287920Y-114042862D01*
X103401791Y-114213280D01*
X103546720Y-114358209D01*
X103717138Y-114472080D01*
X103906497Y-114550515D01*
X104107520Y-114590500D01*
X104312480Y-114590500D01*
X104513503Y-114550515D01*
X104702862Y-114472080D01*
X104873280Y-114358209D01*
X105018209Y-114213280D01*
X105132080Y-114042862D01*
X105210515Y-113853503D01*
X105250500Y-113652480D01*
X105250500Y-113447520D01*
X105709500Y-113447520D01*
X105709500Y-113652480D01*
X105749485Y-113853503D01*
X105827920Y-114042862D01*
X105941791Y-114213280D01*
X106086720Y-114358209D01*
X106257138Y-114472080D01*
X106446497Y-114550515D01*
X106647520Y-114590500D01*
X106852480Y-114590500D01*
X107053503Y-114550515D01*
X107242862Y-114472080D01*
X107413280Y-114358209D01*
X107558209Y-114213280D01*
X107672080Y-114042862D01*
X107750515Y-113853503D01*
X107790500Y-113652480D01*
X107790500Y-113447520D01*
X108249500Y-113447520D01*
X108249500Y-113652480D01*
X108289485Y-113853503D01*
X108367920Y-114042862D01*
X108481791Y-114213280D01*
X108626720Y-114358209D01*
X108797138Y-114472080D01*
X108986497Y-114550515D01*
X109187520Y-114590500D01*
X109392480Y-114590500D01*
X109593503Y-114550515D01*
X109782862Y-114472080D01*
X109953280Y-114358209D01*
X110098209Y-114213280D01*
X110212080Y-114042862D01*
X110290515Y-113853503D01*
X110330500Y-113652480D01*
X110330500Y-113447520D01*
X110789500Y-113447520D01*
X110789500Y-113652480D01*
X110829485Y-113853503D01*
X110907920Y-114042862D01*
X111021791Y-114213280D01*
X111166720Y-114358209D01*
X111337138Y-114472080D01*
X111526497Y-114550515D01*
X111727520Y-114590500D01*
X111932480Y-114590500D01*
X112133503Y-114550515D01*
X112322862Y-114472080D01*
X112493280Y-114358209D01*
X112638209Y-114213280D01*
X112752080Y-114042862D01*
X112830515Y-113853503D01*
X112870500Y-113652480D01*
X112870500Y-113447520D01*
X113329500Y-113447520D01*
X113329500Y-113652480D01*
X113369485Y-113853503D01*
X113447920Y-114042862D01*
X113561791Y-114213280D01*
X113706720Y-114358209D01*
X113877138Y-114472080D01*
X114066497Y-114550515D01*
X114267520Y-114590500D01*
X114472480Y-114590500D01*
X114673503Y-114550515D01*
X114862862Y-114472080D01*
X115033280Y-114358209D01*
X115178209Y-114213280D01*
X115292080Y-114042862D01*
X115370515Y-113853503D01*
X115410500Y-113652480D01*
X115410500Y-113447520D01*
X115869500Y-113447520D01*
X115869500Y-113652480D01*
X115909485Y-113853503D01*
X115987920Y-114042862D01*
X116101791Y-114213280D01*
X116246720Y-114358209D01*
X116417138Y-114472080D01*
X116606497Y-114550515D01*
X116807520Y-114590500D01*
X117012480Y-114590500D01*
X117213503Y-114550515D01*
X117402862Y-114472080D01*
X117573280Y-114358209D01*
X117718209Y-114213280D01*
X117832080Y-114042862D01*
X117910515Y-113853503D01*
X117950500Y-113652480D01*
X117950500Y-113447520D01*
X117910515Y-113246497D01*
X117832080Y-113057138D01*
X117718209Y-112886720D01*
X117573280Y-112741791D01*
X117510737Y-112700000D01*
X118408579Y-112700000D01*
X118408579Y-114400000D01*
X118412257Y-114437344D01*
X118423150Y-114473254D01*
X118440839Y-114506348D01*
X118464645Y-114535355D01*
X118493652Y-114559161D01*
X118526746Y-114576850D01*
X118562656Y-114587743D01*
X118600000Y-114591421D01*
X120300000Y-114591421D01*
X120337344Y-114587743D01*
X120351331Y-114583500D01*
X156159500Y-114583500D01*
X156159500Y-114916500D01*
X156224465Y-115243101D01*
X156351898Y-115550752D01*
X156536903Y-115827631D01*
X156772369Y-116063097D01*
X157049248Y-116248102D01*
X157356899Y-116375535D01*
X157683500Y-116440500D01*
X158016500Y-116440500D01*
X158343101Y-116375535D01*
X158650752Y-116248102D01*
X158927631Y-116063097D01*
X159163097Y-115827631D01*
X159348102Y-115550752D01*
X159475535Y-115243101D01*
X159540500Y-114916500D01*
X159540500Y-114583500D01*
X159475535Y-114256899D01*
X159348102Y-113949248D01*
X159163097Y-113672369D01*
X158927631Y-113436903D01*
X158650752Y-113251898D01*
X158343101Y-113124465D01*
X158016500Y-113059500D01*
X157683500Y-113059500D01*
X157356899Y-113124465D01*
X157049248Y-113251898D01*
X156772369Y-113436903D01*
X156536903Y-113672369D01*
X156351898Y-113949248D01*
X156224465Y-114256899D01*
X156159500Y-114583500D01*
X120351331Y-114583500D01*
X120373254Y-114576850D01*
X120406348Y-114559161D01*
X120435355Y-114535355D01*
X120459161Y-114506348D01*
X120476850Y-114473254D01*
X120487743Y-114437344D01*
X120491421Y-114400000D01*
X120491421Y-112700000D01*
X120487743Y-112662656D01*
X120476850Y-112626746D01*
X120459161Y-112593652D01*
X120435355Y-112564645D01*
X120406348Y-112540839D01*
X120373254Y-112523150D01*
X120337344Y-112512257D01*
X120300000Y-112508579D01*
X118600000Y-112508579D01*
X118562656Y-112512257D01*
X118526746Y-112523150D01*
X118493652Y-112540839D01*
X118464645Y-112564645D01*
X118440839Y-112593652D01*
X118423150Y-112626746D01*
X118412257Y-112662656D01*
X118408579Y-112700000D01*
X117510737Y-112700000D01*
X117402862Y-112627920D01*
X117213503Y-112549485D01*
X117012480Y-112509500D01*
X116807520Y-112509500D01*
X116606497Y-112549485D01*
X116417138Y-112627920D01*
X116246720Y-112741791D01*
X116101791Y-112886720D01*
X115987920Y-113057138D01*
X115909485Y-113246497D01*
X115869500Y-113447520D01*
X115410500Y-113447520D01*
X115370515Y-113246497D01*
X115292080Y-113057138D01*
X115178209Y-112886720D01*
X115033280Y-112741791D01*
X114862862Y-112627920D01*
X114673503Y-112549485D01*
X114472480Y-112509500D01*
X114267520Y-112509500D01*
X114066497Y-112549485D01*
X113877138Y-112627920D01*
X113706720Y-112741791D01*
X113561791Y-112886720D01*
X113447920Y-113057138D01*
X113369485Y-113246497D01*
X113329500Y-113447520D01*
X112870500Y-113447520D01*
X112830515Y-113246497D01*
X112752080Y-113057138D01*
X112638209Y-112886720D01*
X112493280Y-112741791D01*
X112322862Y-112627920D01*
X112133503Y-112549485D01*
X111932480Y-112509500D01*
X111727520Y-112509500D01*
X111526497Y-112549485D01*
X111337138Y-112627920D01*
X111166720Y-112741791D01*
X111021791Y-112886720D01*
X110907920Y-113057138D01*
X110829485Y-113246497D01*
X110789500Y-113447520D01*
X110330500Y-113447520D01*
X110290515Y-113246497D01*
X110212080Y-113057138D01*
X110098209Y-112886720D01*
X109953280Y-112741791D01*
X109782862Y-112627920D01*
X109593503Y-112549485D01*
X109392480Y-112509500D01*
X109187520Y-112509500D01*
X108986497Y-112549485D01*
X108797138Y-112627920D01*
X108626720Y-112741791D01*
X108481791Y-112886720D01*
X108367920Y-113057138D01*
X108289485Y-113246497D01*
X108249500Y-113447520D01*
X107790500Y-113447520D01*
X107750515Y-113246497D01*
X107672080Y-113057138D01*
X107558209Y-112886720D01*
X107413280Y-112741791D01*
X107242862Y-112627920D01*
X107053503Y-112549485D01*
X106852480Y-112509500D01*
X106647520Y-112509500D01*
X106446497Y-112549485D01*
X106257138Y-112627920D01*
X106086720Y-112741791D01*
X105941791Y-112886720D01*
X105827920Y-113057138D01*
X105749485Y-113246497D01*
X105709500Y-113447520D01*
X105250500Y-113447520D01*
X105210515Y-113246497D01*
X105132080Y-113057138D01*
X105018209Y-112886720D01*
X104873280Y-112741791D01*
X104702862Y-112627920D01*
X104513503Y-112549485D01*
X104312480Y-112509500D01*
X104107520Y-112509500D01*
X103906497Y-112549485D01*
X103717138Y-112627920D01*
X103546720Y-112741791D01*
X103401791Y-112886720D01*
X103287920Y-113057138D01*
X103209485Y-113246497D01*
X103169500Y-113447520D01*
X102710500Y-113447520D01*
X102670515Y-113246497D01*
X102592080Y-113057138D01*
X102478209Y-112886720D01*
X102333280Y-112741791D01*
X102162862Y-112627920D01*
X101973503Y-112549485D01*
X101772480Y-112509500D01*
X101567520Y-112509500D01*
X101366497Y-112549485D01*
X101177138Y-112627920D01*
X101006720Y-112741791D01*
X100861791Y-112886720D01*
X100747920Y-113057138D01*
X100669485Y-113246497D01*
X100629500Y-113447520D01*
X100170500Y-113447520D01*
X100130515Y-113246497D01*
X100052080Y-113057138D01*
X99938209Y-112886720D01*
X99793280Y-112741791D01*
X99622862Y-112627920D01*
X99433503Y-112549485D01*
X99232480Y-112509500D01*
X99027520Y-112509500D01*
X98826497Y-112549485D01*
X98637138Y-112627920D01*
X98466720Y-112741791D01*
X98321791Y-112886720D01*
X98207920Y-113057138D01*
X98129485Y-113246497D01*
X98089500Y-113447520D01*
X97630500Y-113447520D01*
X97590515Y-113246497D01*
X97512080Y-113057138D01*
X97398209Y-112886720D01*
X97253280Y-112741791D01*
X97082862Y-112627920D01*
X96893503Y-112549485D01*
X96692480Y-112509500D01*
X96487520Y-112509500D01*
X96286497Y-112549485D01*
X96097138Y-112627920D01*
X95926720Y-112741791D01*
X95781791Y-112886720D01*
X95667920Y-113057138D01*
X95589485Y-113246497D01*
X95549500Y-113447520D01*
X80063500Y-113447520D01*
X80063500Y-107961539D01*
X110609500Y-107961539D01*
X110609500Y-108038461D01*
X110624507Y-108113905D01*
X110653944Y-108184971D01*
X110696679Y-108248929D01*
X110751071Y-108303321D01*
X110815029Y-108346056D01*
X110884905Y-108375000D01*
X110815029Y-108403944D01*
X110751071Y-108446679D01*
X110696679Y-108501071D01*
X110653944Y-108565029D01*
X110624507Y-108636095D01*
X110609500Y-108711539D01*
X110609500Y-108788461D01*
X110624507Y-108863905D01*
X110653944Y-108934971D01*
X110696679Y-108998929D01*
X110751071Y-109053321D01*
X110815029Y-109096056D01*
X110884905Y-109125000D01*
X110815029Y-109153944D01*
X110751071Y-109196679D01*
X110696679Y-109251071D01*
X110653944Y-109315029D01*
X110624507Y-109386095D01*
X110609500Y-109461539D01*
X110609500Y-109538461D01*
X110624507Y-109613905D01*
X110653944Y-109684971D01*
X110696679Y-109748929D01*
X110751071Y-109803321D01*
X110815029Y-109846056D01*
X110884905Y-109875000D01*
X110815029Y-109903944D01*
X110751071Y-109946679D01*
X110696679Y-110001071D01*
X110653944Y-110065029D01*
X110624507Y-110136095D01*
X110609500Y-110211539D01*
X110609500Y-110288461D01*
X110624507Y-110363905D01*
X110653944Y-110434971D01*
X110696679Y-110498929D01*
X110751071Y-110553321D01*
X110815029Y-110596056D01*
X110886095Y-110625493D01*
X110961539Y-110640500D01*
X111038461Y-110640500D01*
X111113905Y-110625493D01*
X111184971Y-110596056D01*
X111248929Y-110553321D01*
X111303321Y-110498929D01*
X111346056Y-110434971D01*
X111375493Y-110363905D01*
X111390500Y-110288461D01*
X111390500Y-110211539D01*
X111375493Y-110136095D01*
X111346056Y-110065029D01*
X111303321Y-110001071D01*
X111248929Y-109946679D01*
X111184971Y-109903944D01*
X111115095Y-109875000D01*
X111184971Y-109846056D01*
X111248929Y-109803321D01*
X111303321Y-109748929D01*
X111346056Y-109684971D01*
X111375493Y-109613905D01*
X111390500Y-109538461D01*
X111390500Y-109461539D01*
X111375493Y-109386095D01*
X111346056Y-109315029D01*
X111303321Y-109251071D01*
X111248929Y-109196679D01*
X111184971Y-109153944D01*
X111115095Y-109125000D01*
X111184971Y-109096056D01*
X111248929Y-109053321D01*
X111303321Y-108998929D01*
X111346056Y-108934971D01*
X111375493Y-108863905D01*
X111390500Y-108788461D01*
X111390500Y-108711539D01*
X111375493Y-108636095D01*
X111346056Y-108565029D01*
X111303321Y-108501071D01*
X111248929Y-108446679D01*
X111184971Y-108403944D01*
X111115095Y-108375000D01*
X111184971Y-108346056D01*
X111248929Y-108303321D01*
X111303321Y-108248929D01*
X111346056Y-108184971D01*
X111375493Y-108113905D01*
X111390500Y-108038461D01*
X111390500Y-107961539D01*
X120109500Y-107961539D01*
X120109500Y-108038461D01*
X120124507Y-108113905D01*
X120153944Y-108184971D01*
X120196679Y-108248929D01*
X120251071Y-108303321D01*
X120315029Y-108346056D01*
X120384905Y-108375000D01*
X120315029Y-108403944D01*
X120251071Y-108446679D01*
X120196679Y-108501071D01*
X120153944Y-108565029D01*
X120124507Y-108636095D01*
X120109500Y-108711539D01*
X120109500Y-108788461D01*
X120124507Y-108863905D01*
X120153944Y-108934971D01*
X120196679Y-108998929D01*
X120251071Y-109053321D01*
X120315029Y-109096056D01*
X120384905Y-109125000D01*
X120315029Y-109153944D01*
X120251071Y-109196679D01*
X120196679Y-109251071D01*
X120153944Y-109315029D01*
X120124507Y-109386095D01*
X120109500Y-109461539D01*
X120109500Y-109538461D01*
X120124507Y-109613905D01*
X120153944Y-109684971D01*
X120196679Y-109748929D01*
X120251071Y-109803321D01*
X120315029Y-109846056D01*
X120384905Y-109875000D01*
X120315029Y-109903944D01*
X120251071Y-109946679D01*
X120196679Y-110001071D01*
X120153944Y-110065029D01*
X120124507Y-110136095D01*
X120109500Y-110211539D01*
X120109500Y-110288461D01*
X120124507Y-110363905D01*
X120153944Y-110434971D01*
X120196679Y-110498929D01*
X120251071Y-110553321D01*
X120315029Y-110596056D01*
X120384905Y-110625000D01*
X120315029Y-110653944D01*
X120251071Y-110696679D01*
X120196679Y-110751071D01*
X120153944Y-110815029D01*
X120124507Y-110886095D01*
X120109500Y-110961539D01*
X120109500Y-111038461D01*
X120124507Y-111113905D01*
X120153944Y-111184971D01*
X120196679Y-111248929D01*
X120251071Y-111303321D01*
X120315029Y-111346056D01*
X120386095Y-111375493D01*
X120461539Y-111390500D01*
X120538461Y-111390500D01*
X120613905Y-111375493D01*
X120684971Y-111346056D01*
X120748929Y-111303321D01*
X120803321Y-111248929D01*
X120846056Y-111184971D01*
X120875493Y-111113905D01*
X120890500Y-111038461D01*
X120890500Y-110961539D01*
X120875493Y-110886095D01*
X120846056Y-110815029D01*
X120803321Y-110751071D01*
X120748929Y-110696679D01*
X120684971Y-110653944D01*
X120615095Y-110625000D01*
X120684971Y-110596056D01*
X120748929Y-110553321D01*
X120803321Y-110498929D01*
X120846056Y-110434971D01*
X120875493Y-110363905D01*
X120890500Y-110288461D01*
X120890500Y-110211539D01*
X120875493Y-110136095D01*
X120846056Y-110065029D01*
X120803321Y-110001071D01*
X120748929Y-109946679D01*
X120684971Y-109903944D01*
X120615095Y-109875000D01*
X120684971Y-109846056D01*
X120748929Y-109803321D01*
X120803321Y-109748929D01*
X120846056Y-109684971D01*
X120875493Y-109613905D01*
X120890500Y-109538461D01*
X120890500Y-109461539D01*
X120875493Y-109386095D01*
X120846056Y-109315029D01*
X120803321Y-109251071D01*
X120748929Y-109196679D01*
X120684971Y-109153944D01*
X120615095Y-109125000D01*
X120684971Y-109096056D01*
X120748929Y-109053321D01*
X120803321Y-108998929D01*
X120846056Y-108934971D01*
X120875493Y-108863905D01*
X120890500Y-108788461D01*
X120890500Y-108711539D01*
X120875493Y-108636095D01*
X120846056Y-108565029D01*
X120803321Y-108501071D01*
X120748929Y-108446679D01*
X120684971Y-108403944D01*
X120615095Y-108375000D01*
X120684971Y-108346056D01*
X120748929Y-108303321D01*
X120803321Y-108248929D01*
X120846056Y-108184971D01*
X120875493Y-108113905D01*
X120890500Y-108038461D01*
X120890500Y-107961539D01*
X120875493Y-107886095D01*
X120846056Y-107815029D01*
X120803321Y-107751071D01*
X120748929Y-107696679D01*
X120684971Y-107653944D01*
X120613905Y-107624507D01*
X120538461Y-107609500D01*
X120461539Y-107609500D01*
X120386095Y-107624507D01*
X120315029Y-107653944D01*
X120251071Y-107696679D01*
X120196679Y-107751071D01*
X120153944Y-107815029D01*
X120124507Y-107886095D01*
X120109500Y-107961539D01*
X111390500Y-107961539D01*
X111375493Y-107886095D01*
X111346056Y-107815029D01*
X111303321Y-107751071D01*
X111248929Y-107696679D01*
X111184971Y-107653944D01*
X111113905Y-107624507D01*
X111038461Y-107609500D01*
X110961539Y-107609500D01*
X110886095Y-107624507D01*
X110815029Y-107653944D01*
X110751071Y-107696679D01*
X110696679Y-107751071D01*
X110653944Y-107815029D01*
X110624507Y-107886095D01*
X110609500Y-107961539D01*
X80063500Y-107961539D01*
X80063500Y-106541690D01*
X129869500Y-106541690D01*
X129869500Y-106638310D01*
X129888350Y-106733073D01*
X129925325Y-106822339D01*
X129979004Y-106902675D01*
X130047325Y-106970996D01*
X130127661Y-107024675D01*
X130216927Y-107061650D01*
X130311690Y-107080500D01*
X130408310Y-107080500D01*
X130503073Y-107061650D01*
X130592339Y-107024675D01*
X130672675Y-106970996D01*
X130740996Y-106902675D01*
X130794675Y-106822339D01*
X130831650Y-106733073D01*
X130850500Y-106638310D01*
X130850500Y-106541690D01*
X130831650Y-106446927D01*
X130794675Y-106357661D01*
X130740996Y-106277325D01*
X130672675Y-106209004D01*
X130592339Y-106155325D01*
X130503073Y-106118350D01*
X130408310Y-106099500D01*
X130311690Y-106099500D01*
X130216927Y-106118350D01*
X130127661Y-106155325D01*
X130047325Y-106209004D01*
X129979004Y-106277325D01*
X129925325Y-106357661D01*
X129888350Y-106446927D01*
X129869500Y-106541690D01*
X80063500Y-106541690D01*
X80063500Y-100051690D01*
X91209500Y-100051690D01*
X91209500Y-100148310D01*
X91228350Y-100243073D01*
X91265325Y-100332339D01*
X91319004Y-100412675D01*
X91387325Y-100480996D01*
X91467661Y-100534675D01*
X91556927Y-100571650D01*
X91651690Y-100590500D01*
X91748310Y-100590500D01*
X91843073Y-100571650D01*
X91867483Y-100561539D01*
X105009500Y-100561539D01*
X105009500Y-100638461D01*
X105024507Y-100713905D01*
X105053944Y-100784971D01*
X105096679Y-100848929D01*
X105151071Y-100903321D01*
X105215029Y-100946056D01*
X105286095Y-100975493D01*
X105361539Y-100990500D01*
X105438461Y-100990500D01*
X105513905Y-100975493D01*
X105584971Y-100946056D01*
X105648929Y-100903321D01*
X105703321Y-100848929D01*
X105746056Y-100784971D01*
X105775493Y-100713905D01*
X105790500Y-100638461D01*
X105790500Y-100561539D01*
X105775493Y-100486095D01*
X105746056Y-100415029D01*
X105703321Y-100351071D01*
X105648929Y-100296679D01*
X105584971Y-100253944D01*
X105513905Y-100224507D01*
X105438461Y-100209500D01*
X105361539Y-100209500D01*
X105286095Y-100224507D01*
X105215029Y-100253944D01*
X105151071Y-100296679D01*
X105096679Y-100351071D01*
X105053944Y-100415029D01*
X105024507Y-100486095D01*
X105009500Y-100561539D01*
X91867483Y-100561539D01*
X91932339Y-100534675D01*
X92012675Y-100480996D01*
X92080996Y-100412675D01*
X92134675Y-100332339D01*
X92171650Y-100243073D01*
X92190500Y-100148310D01*
X92190500Y-100051690D01*
X92172568Y-99961539D01*
X106809500Y-99961539D01*
X106809500Y-100038461D01*
X106824507Y-100113905D01*
X106853944Y-100184971D01*
X106896679Y-100248929D01*
X106951071Y-100303321D01*
X107015029Y-100346056D01*
X107086095Y-100375493D01*
X107161539Y-100390500D01*
X107238461Y-100390500D01*
X107313905Y-100375493D01*
X107384971Y-100346056D01*
X107448929Y-100303321D01*
X107503321Y-100248929D01*
X107546056Y-100184971D01*
X107575493Y-100113905D01*
X107585909Y-100061539D01*
X108859500Y-100061539D01*
X108859500Y-100138461D01*
X108874507Y-100213905D01*
X108903944Y-100284971D01*
X108946679Y-100348929D01*
X109001071Y-100403321D01*
X109065029Y-100446056D01*
X109136095Y-100475493D01*
X109211539Y-100490500D01*
X109288461Y-100490500D01*
X109363905Y-100475493D01*
X109434971Y-100446056D01*
X109498929Y-100403321D01*
X109553321Y-100348929D01*
X109596056Y-100284971D01*
X109625493Y-100213905D01*
X109640500Y-100138461D01*
X109640500Y-100061539D01*
X109625493Y-99986095D01*
X109596056Y-99915029D01*
X109553321Y-99851071D01*
X109498929Y-99796679D01*
X109434971Y-99753944D01*
X109363905Y-99724507D01*
X109288461Y-99709500D01*
X109211539Y-99709500D01*
X109136095Y-99724507D01*
X109065029Y-99753944D01*
X109001071Y-99796679D01*
X108946679Y-99851071D01*
X108903944Y-99915029D01*
X108874507Y-99986095D01*
X108859500Y-100061539D01*
X107585909Y-100061539D01*
X107590500Y-100038461D01*
X107590500Y-99961539D01*
X107575493Y-99886095D01*
X107546056Y-99815029D01*
X107503321Y-99751071D01*
X107448929Y-99696679D01*
X107384971Y-99653944D01*
X107313905Y-99624507D01*
X107238461Y-99609500D01*
X107161539Y-99609500D01*
X107086095Y-99624507D01*
X107015029Y-99653944D01*
X106951071Y-99696679D01*
X106896679Y-99751071D01*
X106853944Y-99815029D01*
X106824507Y-99886095D01*
X106809500Y-99961539D01*
X92172568Y-99961539D01*
X92171650Y-99956927D01*
X92134675Y-99867661D01*
X92080996Y-99787325D01*
X92012675Y-99719004D01*
X91932339Y-99665325D01*
X91843073Y-99628350D01*
X91748310Y-99609500D01*
X91651690Y-99609500D01*
X91556927Y-99628350D01*
X91467661Y-99665325D01*
X91387325Y-99719004D01*
X91319004Y-99787325D01*
X91265325Y-99867661D01*
X91228350Y-99956927D01*
X91209500Y-100051690D01*
X80063500Y-100051690D01*
X80063500Y-98891690D01*
X130269500Y-98891690D01*
X130269500Y-98988310D01*
X130288350Y-99083073D01*
X130325325Y-99172339D01*
X130379004Y-99252675D01*
X130447325Y-99320996D01*
X130527661Y-99374675D01*
X130616927Y-99411650D01*
X130711690Y-99430500D01*
X130808310Y-99430500D01*
X130903073Y-99411650D01*
X130992339Y-99374675D01*
X131072675Y-99320996D01*
X131140996Y-99252675D01*
X131194675Y-99172339D01*
X131231650Y-99083073D01*
X131250500Y-98988310D01*
X131250500Y-98891690D01*
X131244503Y-98861539D01*
X153109500Y-98861539D01*
X153109500Y-98938461D01*
X153124507Y-99013905D01*
X153153944Y-99084971D01*
X153196679Y-99148929D01*
X153251071Y-99203321D01*
X153315029Y-99246056D01*
X153386095Y-99275493D01*
X153461539Y-99290500D01*
X153538461Y-99290500D01*
X153613905Y-99275493D01*
X153684971Y-99246056D01*
X153748929Y-99203321D01*
X153803321Y-99148929D01*
X153846056Y-99084971D01*
X153875493Y-99013905D01*
X153890500Y-98938461D01*
X153890500Y-98861539D01*
X153875493Y-98786095D01*
X153846056Y-98715029D01*
X153803321Y-98651071D01*
X153748929Y-98596679D01*
X153684971Y-98553944D01*
X153613905Y-98524507D01*
X153538461Y-98509500D01*
X153461539Y-98509500D01*
X153386095Y-98524507D01*
X153315029Y-98553944D01*
X153251071Y-98596679D01*
X153196679Y-98651071D01*
X153153944Y-98715029D01*
X153124507Y-98786095D01*
X153109500Y-98861539D01*
X131244503Y-98861539D01*
X131231650Y-98796927D01*
X131194675Y-98707661D01*
X131140996Y-98627325D01*
X131072675Y-98559004D01*
X130992339Y-98505325D01*
X130903073Y-98468350D01*
X130808310Y-98449500D01*
X130711690Y-98449500D01*
X130616927Y-98468350D01*
X130527661Y-98505325D01*
X130447325Y-98559004D01*
X130379004Y-98627325D01*
X130325325Y-98707661D01*
X130288350Y-98796927D01*
X130269500Y-98891690D01*
X80063500Y-98891690D01*
X80063500Y-97621690D01*
X130289500Y-97621690D01*
X130289500Y-97718310D01*
X130308350Y-97813073D01*
X130345325Y-97902339D01*
X130399004Y-97982675D01*
X130467325Y-98050996D01*
X130547661Y-98104675D01*
X130636927Y-98141650D01*
X130731690Y-98160500D01*
X130828310Y-98160500D01*
X130923073Y-98141650D01*
X131012339Y-98104675D01*
X131092675Y-98050996D01*
X131160996Y-97982675D01*
X131214675Y-97902339D01*
X131251650Y-97813073D01*
X131261901Y-97761539D01*
X157509500Y-97761539D01*
X157509500Y-97838461D01*
X157524507Y-97913905D01*
X157553944Y-97984971D01*
X157596679Y-98048929D01*
X157651071Y-98103321D01*
X157715029Y-98146056D01*
X157786095Y-98175493D01*
X157861539Y-98190500D01*
X157938461Y-98190500D01*
X158013905Y-98175493D01*
X158084971Y-98146056D01*
X158148929Y-98103321D01*
X158203321Y-98048929D01*
X158246056Y-97984971D01*
X158275493Y-97913905D01*
X158290500Y-97838461D01*
X158290500Y-97761539D01*
X158275493Y-97686095D01*
X158246056Y-97615029D01*
X158203321Y-97551071D01*
X158148929Y-97496679D01*
X158084971Y-97453944D01*
X158013905Y-97424507D01*
X157938461Y-97409500D01*
X157861539Y-97409500D01*
X157786095Y-97424507D01*
X157715029Y-97453944D01*
X157651071Y-97496679D01*
X157596679Y-97551071D01*
X157553944Y-97615029D01*
X157524507Y-97686095D01*
X157509500Y-97761539D01*
X131261901Y-97761539D01*
X131270500Y-97718310D01*
X131270500Y-97621690D01*
X131251650Y-97526927D01*
X131214675Y-97437661D01*
X131160996Y-97357325D01*
X131092675Y-97289004D01*
X131012339Y-97235325D01*
X130923073Y-97198350D01*
X130828310Y-97179500D01*
X130731690Y-97179500D01*
X130636927Y-97198350D01*
X130547661Y-97235325D01*
X130467325Y-97289004D01*
X130399004Y-97357325D01*
X130345325Y-97437661D01*
X130308350Y-97526927D01*
X130289500Y-97621690D01*
X80063500Y-97621690D01*
X80063500Y-95951690D01*
X91209500Y-95951690D01*
X91209500Y-96048310D01*
X91228350Y-96143073D01*
X91265325Y-96232339D01*
X91319004Y-96312675D01*
X91387325Y-96380996D01*
X91467661Y-96434675D01*
X91556927Y-96471650D01*
X91651690Y-96490500D01*
X91748310Y-96490500D01*
X91843073Y-96471650D01*
X91932339Y-96434675D01*
X92012675Y-96380996D01*
X92041981Y-96351690D01*
X130259500Y-96351690D01*
X130259500Y-96448310D01*
X130278350Y-96543073D01*
X130315325Y-96632339D01*
X130369004Y-96712675D01*
X130437325Y-96780996D01*
X130517661Y-96834675D01*
X130606927Y-96871650D01*
X130701690Y-96890500D01*
X130798310Y-96890500D01*
X130893073Y-96871650D01*
X130982339Y-96834675D01*
X131062675Y-96780996D01*
X131130996Y-96712675D01*
X131184675Y-96632339D01*
X131221650Y-96543073D01*
X131240500Y-96448310D01*
X131240500Y-96351690D01*
X131221650Y-96256927D01*
X131184675Y-96167661D01*
X131130996Y-96087325D01*
X131062675Y-96019004D01*
X130982339Y-95965325D01*
X130893073Y-95928350D01*
X130798310Y-95909500D01*
X130701690Y-95909500D01*
X130606927Y-95928350D01*
X130517661Y-95965325D01*
X130437325Y-96019004D01*
X130369004Y-96087325D01*
X130315325Y-96167661D01*
X130278350Y-96256927D01*
X130259500Y-96351690D01*
X92041981Y-96351690D01*
X92080996Y-96312675D01*
X92134675Y-96232339D01*
X92171650Y-96143073D01*
X92190500Y-96048310D01*
X92190500Y-95951690D01*
X92171650Y-95856927D01*
X92134675Y-95767661D01*
X92080996Y-95687325D01*
X92012675Y-95619004D01*
X91932339Y-95565325D01*
X91843073Y-95528350D01*
X91748310Y-95509500D01*
X91651690Y-95509500D01*
X91556927Y-95528350D01*
X91467661Y-95565325D01*
X91387325Y-95619004D01*
X91319004Y-95687325D01*
X91265325Y-95767661D01*
X91228350Y-95856927D01*
X91209500Y-95951690D01*
X80063500Y-95951690D01*
X80063500Y-95081690D01*
X130259500Y-95081690D01*
X130259500Y-95178310D01*
X130278350Y-95273073D01*
X130315325Y-95362339D01*
X130369004Y-95442675D01*
X130437325Y-95510996D01*
X130517661Y-95564675D01*
X130606927Y-95601650D01*
X130701690Y-95620500D01*
X130798310Y-95620500D01*
X130893073Y-95601650D01*
X130982339Y-95564675D01*
X131062675Y-95510996D01*
X131130996Y-95442675D01*
X131184675Y-95362339D01*
X131221650Y-95273073D01*
X131240500Y-95178310D01*
X131240500Y-95081690D01*
X131221650Y-94986927D01*
X131184675Y-94897661D01*
X131130996Y-94817325D01*
X131062675Y-94749004D01*
X130982339Y-94695325D01*
X130893073Y-94658350D01*
X130798310Y-94639500D01*
X130701690Y-94639500D01*
X130606927Y-94658350D01*
X130517661Y-94695325D01*
X130437325Y-94749004D01*
X130369004Y-94817325D01*
X130315325Y-94897661D01*
X130278350Y-94986927D01*
X130259500Y-95081690D01*
X80063500Y-95081690D01*
X80063500Y-93811690D01*
X144169500Y-93811690D01*
X144169500Y-93908310D01*
X144188350Y-94003073D01*
X144225325Y-94092339D01*
X144279004Y-94172675D01*
X144347325Y-94240996D01*
X144427661Y-94294675D01*
X144516927Y-94331650D01*
X144611690Y-94350500D01*
X144708310Y-94350500D01*
X144803073Y-94331650D01*
X144892339Y-94294675D01*
X144972675Y-94240996D01*
X145040996Y-94172675D01*
X145094675Y-94092339D01*
X145131650Y-94003073D01*
X145150500Y-93908310D01*
X145150500Y-93811690D01*
X145131650Y-93716927D01*
X145094675Y-93627661D01*
X145040996Y-93547325D01*
X144972675Y-93479004D01*
X144892339Y-93425325D01*
X144803073Y-93388350D01*
X144708310Y-93369500D01*
X144611690Y-93369500D01*
X144516927Y-93388350D01*
X144427661Y-93425325D01*
X144347325Y-93479004D01*
X144279004Y-93547325D01*
X144225325Y-93627661D01*
X144188350Y-93716927D01*
X144169500Y-93811690D01*
X80063500Y-93811690D01*
X80063500Y-93361539D01*
X99409500Y-93361539D01*
X99409500Y-93438461D01*
X99424507Y-93513905D01*
X99453944Y-93584971D01*
X99496679Y-93648929D01*
X99551071Y-93703321D01*
X99615029Y-93746056D01*
X99686095Y-93775493D01*
X99761539Y-93790500D01*
X99838461Y-93790500D01*
X99913905Y-93775493D01*
X99984971Y-93746056D01*
X100048929Y-93703321D01*
X100103321Y-93648929D01*
X100146056Y-93584971D01*
X100175493Y-93513905D01*
X100190500Y-93438461D01*
X100190500Y-93361539D01*
X100175493Y-93286095D01*
X100146056Y-93215029D01*
X100103321Y-93151071D01*
X100048929Y-93096679D01*
X99984971Y-93053944D01*
X99913905Y-93024507D01*
X99838461Y-93009500D01*
X99761539Y-93009500D01*
X99686095Y-93024507D01*
X99615029Y-93053944D01*
X99551071Y-93096679D01*
X99496679Y-93151071D01*
X99453944Y-93215029D01*
X99424507Y-93286095D01*
X99409500Y-93361539D01*
X80063500Y-93361539D01*
X80063500Y-92351690D01*
X98309500Y-92351690D01*
X98309500Y-92448310D01*
X98328350Y-92543073D01*
X98365325Y-92632339D01*
X98419004Y-92712675D01*
X98487325Y-92780996D01*
X98567661Y-92834675D01*
X98656927Y-92871650D01*
X98751690Y-92890500D01*
X98848310Y-92890500D01*
X98943073Y-92871650D01*
X99032339Y-92834675D01*
X99112675Y-92780996D01*
X99180996Y-92712675D01*
X99234675Y-92632339D01*
X99268080Y-92551690D01*
X103609500Y-92551690D01*
X103609500Y-92648310D01*
X103628350Y-92743073D01*
X103665325Y-92832339D01*
X103719004Y-92912675D01*
X103787325Y-92980996D01*
X103867661Y-93034675D01*
X103956927Y-93071650D01*
X104051690Y-93090500D01*
X104148310Y-93090500D01*
X104243073Y-93071650D01*
X104332339Y-93034675D01*
X104412675Y-92980996D01*
X104480996Y-92912675D01*
X104534675Y-92832339D01*
X104571650Y-92743073D01*
X104590500Y-92648310D01*
X104590500Y-92551690D01*
X104571650Y-92456927D01*
X104534675Y-92367661D01*
X104480996Y-92287325D01*
X104412675Y-92219004D01*
X104332339Y-92165325D01*
X104243073Y-92128350D01*
X104148310Y-92109500D01*
X104051690Y-92109500D01*
X103956927Y-92128350D01*
X103867661Y-92165325D01*
X103787325Y-92219004D01*
X103719004Y-92287325D01*
X103665325Y-92367661D01*
X103628350Y-92456927D01*
X103609500Y-92551690D01*
X99268080Y-92551690D01*
X99271650Y-92543073D01*
X99290500Y-92448310D01*
X99290500Y-92351690D01*
X99271650Y-92256927D01*
X99234675Y-92167661D01*
X99180996Y-92087325D01*
X99112675Y-92019004D01*
X99032339Y-91965325D01*
X98943073Y-91928350D01*
X98848310Y-91909500D01*
X98751690Y-91909500D01*
X98656927Y-91928350D01*
X98567661Y-91965325D01*
X98487325Y-92019004D01*
X98419004Y-92087325D01*
X98365325Y-92167661D01*
X98328350Y-92256927D01*
X98309500Y-92351690D01*
X80063500Y-92351690D01*
X80063500Y-90961539D01*
X84609500Y-90961539D01*
X84609500Y-91038461D01*
X84624507Y-91113905D01*
X84653944Y-91184971D01*
X84696679Y-91248929D01*
X84751071Y-91303321D01*
X84815029Y-91346056D01*
X84886095Y-91375493D01*
X84961539Y-91390500D01*
X85038461Y-91390500D01*
X85113905Y-91375493D01*
X85184971Y-91346056D01*
X85248929Y-91303321D01*
X85303321Y-91248929D01*
X85346056Y-91184971D01*
X85375493Y-91113905D01*
X85390500Y-91038461D01*
X85390500Y-90961539D01*
X85609500Y-90961539D01*
X85609500Y-91038461D01*
X85624507Y-91113905D01*
X85653944Y-91184971D01*
X85696679Y-91248929D01*
X85751071Y-91303321D01*
X85815029Y-91346056D01*
X85886095Y-91375493D01*
X85961539Y-91390500D01*
X86038461Y-91390500D01*
X86113905Y-91375493D01*
X86184971Y-91346056D01*
X86248929Y-91303321D01*
X86303321Y-91248929D01*
X86346056Y-91184971D01*
X86375493Y-91113905D01*
X86390500Y-91038461D01*
X86390500Y-90961539D01*
X86609500Y-90961539D01*
X86609500Y-91038461D01*
X86624507Y-91113905D01*
X86653944Y-91184971D01*
X86696679Y-91248929D01*
X86751071Y-91303321D01*
X86815029Y-91346056D01*
X86886095Y-91375493D01*
X86961539Y-91390500D01*
X87038461Y-91390500D01*
X87113905Y-91375493D01*
X87184971Y-91346056D01*
X87248929Y-91303321D01*
X87303321Y-91248929D01*
X87346056Y-91184971D01*
X87375493Y-91113905D01*
X87390500Y-91038461D01*
X87390500Y-90961539D01*
X87609500Y-90961539D01*
X87609500Y-91038461D01*
X87624507Y-91113905D01*
X87653944Y-91184971D01*
X87696679Y-91248929D01*
X87751071Y-91303321D01*
X87815029Y-91346056D01*
X87886095Y-91375493D01*
X87961539Y-91390500D01*
X88038461Y-91390500D01*
X88113905Y-91375493D01*
X88184971Y-91346056D01*
X88248929Y-91303321D01*
X88303321Y-91248929D01*
X88346056Y-91184971D01*
X88375493Y-91113905D01*
X88390500Y-91038461D01*
X88390500Y-90961539D01*
X88609500Y-90961539D01*
X88609500Y-91038461D01*
X88624507Y-91113905D01*
X88653944Y-91184971D01*
X88696679Y-91248929D01*
X88751071Y-91303321D01*
X88815029Y-91346056D01*
X88886095Y-91375493D01*
X88961539Y-91390500D01*
X89038461Y-91390500D01*
X89113905Y-91375493D01*
X89184971Y-91346056D01*
X89248929Y-91303321D01*
X89303321Y-91248929D01*
X89346056Y-91184971D01*
X89375493Y-91113905D01*
X89390500Y-91038461D01*
X89390500Y-90961539D01*
X89609500Y-90961539D01*
X89609500Y-91038461D01*
X89624507Y-91113905D01*
X89653944Y-91184971D01*
X89696679Y-91248929D01*
X89751071Y-91303321D01*
X89815029Y-91346056D01*
X89886095Y-91375493D01*
X89961539Y-91390500D01*
X90038461Y-91390500D01*
X90113905Y-91375493D01*
X90184971Y-91346056D01*
X90248929Y-91303321D01*
X90303321Y-91248929D01*
X90346056Y-91184971D01*
X90375493Y-91113905D01*
X90390500Y-91038461D01*
X90390500Y-90961539D01*
X90375493Y-90886095D01*
X90346056Y-90815029D01*
X90303321Y-90751071D01*
X90248929Y-90696679D01*
X90184971Y-90653944D01*
X90113905Y-90624507D01*
X90038461Y-90609500D01*
X89961539Y-90609500D01*
X89886095Y-90624507D01*
X89815029Y-90653944D01*
X89751071Y-90696679D01*
X89696679Y-90751071D01*
X89653944Y-90815029D01*
X89624507Y-90886095D01*
X89609500Y-90961539D01*
X89390500Y-90961539D01*
X89375493Y-90886095D01*
X89346056Y-90815029D01*
X89303321Y-90751071D01*
X89248929Y-90696679D01*
X89184971Y-90653944D01*
X89113905Y-90624507D01*
X89038461Y-90609500D01*
X88961539Y-90609500D01*
X88886095Y-90624507D01*
X88815029Y-90653944D01*
X88751071Y-90696679D01*
X88696679Y-90751071D01*
X88653944Y-90815029D01*
X88624507Y-90886095D01*
X88609500Y-90961539D01*
X88390500Y-90961539D01*
X88375493Y-90886095D01*
X88346056Y-90815029D01*
X88303321Y-90751071D01*
X88248929Y-90696679D01*
X88184971Y-90653944D01*
X88113905Y-90624507D01*
X88038461Y-90609500D01*
X87961539Y-90609500D01*
X87886095Y-90624507D01*
X87815029Y-90653944D01*
X87751071Y-90696679D01*
X87696679Y-90751071D01*
X87653944Y-90815029D01*
X87624507Y-90886095D01*
X87609500Y-90961539D01*
X87390500Y-90961539D01*
X87375493Y-90886095D01*
X87346056Y-90815029D01*
X87303321Y-90751071D01*
X87248929Y-90696679D01*
X87184971Y-90653944D01*
X87113905Y-90624507D01*
X87038461Y-90609500D01*
X86961539Y-90609500D01*
X86886095Y-90624507D01*
X86815029Y-90653944D01*
X86751071Y-90696679D01*
X86696679Y-90751071D01*
X86653944Y-90815029D01*
X86624507Y-90886095D01*
X86609500Y-90961539D01*
X86390500Y-90961539D01*
X86375493Y-90886095D01*
X86346056Y-90815029D01*
X86303321Y-90751071D01*
X86248929Y-90696679D01*
X86184971Y-90653944D01*
X86113905Y-90624507D01*
X86038461Y-90609500D01*
X85961539Y-90609500D01*
X85886095Y-90624507D01*
X85815029Y-90653944D01*
X85751071Y-90696679D01*
X85696679Y-90751071D01*
X85653944Y-90815029D01*
X85624507Y-90886095D01*
X85609500Y-90961539D01*
X85390500Y-90961539D01*
X85375493Y-90886095D01*
X85346056Y-90815029D01*
X85303321Y-90751071D01*
X85248929Y-90696679D01*
X85184971Y-90653944D01*
X85113905Y-90624507D01*
X85038461Y-90609500D01*
X84961539Y-90609500D01*
X84886095Y-90624507D01*
X84815029Y-90653944D01*
X84751071Y-90696679D01*
X84696679Y-90751071D01*
X84653944Y-90815029D01*
X84624507Y-90886095D01*
X84609500Y-90961539D01*
X80063500Y-90961539D01*
X80063500Y-90301690D01*
X102759500Y-90301690D01*
X102759500Y-90398310D01*
X102778350Y-90493073D01*
X102815325Y-90582339D01*
X102869004Y-90662675D01*
X102937325Y-90730996D01*
X103017661Y-90784675D01*
X103106927Y-90821650D01*
X103201690Y-90840500D01*
X103298310Y-90840500D01*
X103393073Y-90821650D01*
X103482339Y-90784675D01*
X103562675Y-90730996D01*
X103630996Y-90662675D01*
X103684675Y-90582339D01*
X103721650Y-90493073D01*
X103740500Y-90398310D01*
X103740500Y-90301690D01*
X103721650Y-90206927D01*
X103684675Y-90117661D01*
X103630996Y-90037325D01*
X103562675Y-89969004D01*
X103482339Y-89915325D01*
X103393073Y-89878350D01*
X103298310Y-89859500D01*
X103201690Y-89859500D01*
X103106927Y-89878350D01*
X103017661Y-89915325D01*
X102937325Y-89969004D01*
X102869004Y-90037325D01*
X102815325Y-90117661D01*
X102778350Y-90206927D01*
X102759500Y-90301690D01*
X80063500Y-90301690D01*
X80063500Y-88871690D01*
X109559500Y-88871690D01*
X109559500Y-88968310D01*
X109578350Y-89063073D01*
X109615325Y-89152339D01*
X109669004Y-89232675D01*
X109737325Y-89300996D01*
X109817661Y-89354675D01*
X109906927Y-89391650D01*
X110001690Y-89410500D01*
X110098310Y-89410500D01*
X110193073Y-89391650D01*
X110282339Y-89354675D01*
X110362675Y-89300996D01*
X110430996Y-89232675D01*
X110484675Y-89152339D01*
X110521650Y-89063073D01*
X110540500Y-88968310D01*
X110540500Y-88871690D01*
X110521650Y-88776927D01*
X110484675Y-88687661D01*
X110430996Y-88607325D01*
X110362675Y-88539004D01*
X110282339Y-88485325D01*
X110201137Y-88451690D01*
X146309500Y-88451690D01*
X146309500Y-88548310D01*
X146328350Y-88643073D01*
X146365325Y-88732339D01*
X146419004Y-88812675D01*
X146487325Y-88880996D01*
X146567661Y-88934675D01*
X146656927Y-88971650D01*
X146751690Y-88990500D01*
X146848310Y-88990500D01*
X146943073Y-88971650D01*
X147032339Y-88934675D01*
X147112675Y-88880996D01*
X147180996Y-88812675D01*
X147234675Y-88732339D01*
X147271650Y-88643073D01*
X147290500Y-88548310D01*
X147290500Y-88451690D01*
X151009500Y-88451690D01*
X151009500Y-88548310D01*
X151028350Y-88643073D01*
X151065325Y-88732339D01*
X151119004Y-88812675D01*
X151187325Y-88880996D01*
X151267661Y-88934675D01*
X151356927Y-88971650D01*
X151451690Y-88990500D01*
X151548310Y-88990500D01*
X151643073Y-88971650D01*
X151732339Y-88934675D01*
X151812675Y-88880996D01*
X151880996Y-88812675D01*
X151934675Y-88732339D01*
X151971650Y-88643073D01*
X151990500Y-88548310D01*
X151990500Y-88451690D01*
X151971650Y-88356927D01*
X151934675Y-88267661D01*
X151880996Y-88187325D01*
X151812675Y-88119004D01*
X151732339Y-88065325D01*
X151643073Y-88028350D01*
X151548310Y-88009500D01*
X151451690Y-88009500D01*
X151356927Y-88028350D01*
X151267661Y-88065325D01*
X151187325Y-88119004D01*
X151119004Y-88187325D01*
X151065325Y-88267661D01*
X151028350Y-88356927D01*
X151009500Y-88451690D01*
X147290500Y-88451690D01*
X147271650Y-88356927D01*
X147234675Y-88267661D01*
X147180996Y-88187325D01*
X147112675Y-88119004D01*
X147032339Y-88065325D01*
X146943073Y-88028350D01*
X146848310Y-88009500D01*
X146751690Y-88009500D01*
X146656927Y-88028350D01*
X146567661Y-88065325D01*
X146487325Y-88119004D01*
X146419004Y-88187325D01*
X146365325Y-88267661D01*
X146328350Y-88356927D01*
X146309500Y-88451690D01*
X110201137Y-88451690D01*
X110193073Y-88448350D01*
X110098310Y-88429500D01*
X110001690Y-88429500D01*
X109906927Y-88448350D01*
X109817661Y-88485325D01*
X109737325Y-88539004D01*
X109669004Y-88607325D01*
X109615325Y-88687661D01*
X109578350Y-88776927D01*
X109559500Y-88871690D01*
X80063500Y-88871690D01*
X80063500Y-86251690D01*
X150109500Y-86251690D01*
X150109500Y-86348310D01*
X150128350Y-86443073D01*
X150165325Y-86532339D01*
X150219004Y-86612675D01*
X150287325Y-86680996D01*
X150367661Y-86734675D01*
X150456927Y-86771650D01*
X150551690Y-86790500D01*
X150648310Y-86790500D01*
X150743073Y-86771650D01*
X150832339Y-86734675D01*
X150912675Y-86680996D01*
X150980996Y-86612675D01*
X151034675Y-86532339D01*
X151071650Y-86443073D01*
X151090500Y-86348310D01*
X151090500Y-86251690D01*
X151071650Y-86156927D01*
X151034675Y-86067661D01*
X150980996Y-85987325D01*
X150968671Y-85975000D01*
X160506039Y-85975000D01*
X160519854Y-86115262D01*
X160560767Y-86250134D01*
X160627206Y-86374433D01*
X160716618Y-86483382D01*
X160825567Y-86572794D01*
X160949866Y-86639233D01*
X161084738Y-86680146D01*
X161189861Y-86690500D01*
X162110139Y-86690500D01*
X162215262Y-86680146D01*
X162350134Y-86639233D01*
X162474433Y-86572794D01*
X162583382Y-86483382D01*
X162672794Y-86374433D01*
X162739233Y-86250134D01*
X162780146Y-86115262D01*
X162793961Y-85975000D01*
X162780146Y-85834738D01*
X162739233Y-85699866D01*
X162672794Y-85575567D01*
X162583382Y-85466618D01*
X162474433Y-85377206D01*
X162350134Y-85310767D01*
X162215262Y-85269854D01*
X162110139Y-85259500D01*
X161189861Y-85259500D01*
X161084738Y-85269854D01*
X160949866Y-85310767D01*
X160825567Y-85377206D01*
X160716618Y-85466618D01*
X160627206Y-85575567D01*
X160560767Y-85699866D01*
X160519854Y-85834738D01*
X160506039Y-85975000D01*
X150968671Y-85975000D01*
X150912675Y-85919004D01*
X150832339Y-85865325D01*
X150743073Y-85828350D01*
X150648310Y-85809500D01*
X150551690Y-85809500D01*
X150456927Y-85828350D01*
X150367661Y-85865325D01*
X150287325Y-85919004D01*
X150219004Y-85987325D01*
X150165325Y-86067661D01*
X150128350Y-86156927D01*
X150109500Y-86251690D01*
X80063500Y-86251690D01*
X80063500Y-84211539D01*
X112409500Y-84211539D01*
X112409500Y-84288461D01*
X112424507Y-84363905D01*
X112453944Y-84434971D01*
X112496679Y-84498929D01*
X112551071Y-84553321D01*
X112615029Y-84596056D01*
X112686095Y-84625493D01*
X112761539Y-84640500D01*
X112838461Y-84640500D01*
X112913905Y-84625493D01*
X112984971Y-84596056D01*
X113048929Y-84553321D01*
X113103321Y-84498929D01*
X113146056Y-84434971D01*
X113175493Y-84363905D01*
X113190500Y-84288461D01*
X113190500Y-84211539D01*
X113188541Y-84201690D01*
X154009500Y-84201690D01*
X154009500Y-84298310D01*
X154028350Y-84393073D01*
X154065325Y-84482339D01*
X154119004Y-84562675D01*
X154187325Y-84630996D01*
X154267661Y-84684675D01*
X154356927Y-84721650D01*
X154451690Y-84740500D01*
X154548310Y-84740500D01*
X154643073Y-84721650D01*
X154732339Y-84684675D01*
X154812675Y-84630996D01*
X154880996Y-84562675D01*
X154934675Y-84482339D01*
X154971650Y-84393073D01*
X154990500Y-84298310D01*
X154990500Y-84201690D01*
X154971650Y-84106927D01*
X154934675Y-84017661D01*
X154880996Y-83937325D01*
X154812675Y-83869004D01*
X154732339Y-83815325D01*
X154643073Y-83778350D01*
X154548310Y-83759500D01*
X154451690Y-83759500D01*
X154356927Y-83778350D01*
X154267661Y-83815325D01*
X154187325Y-83869004D01*
X154119004Y-83937325D01*
X154065325Y-84017661D01*
X154028350Y-84106927D01*
X154009500Y-84201690D01*
X113188541Y-84201690D01*
X113175493Y-84136095D01*
X113146056Y-84065029D01*
X113103321Y-84001071D01*
X113048929Y-83946679D01*
X112984971Y-83903944D01*
X112913905Y-83874507D01*
X112838461Y-83859500D01*
X112761539Y-83859500D01*
X112686095Y-83874507D01*
X112615029Y-83903944D01*
X112551071Y-83946679D01*
X112496679Y-84001071D01*
X112453944Y-84065029D01*
X112424507Y-84136095D01*
X112409500Y-84211539D01*
X80063500Y-84211539D01*
X80063500Y-83511539D01*
X156609500Y-83511539D01*
X156609500Y-83588461D01*
X156624507Y-83663905D01*
X156653944Y-83734971D01*
X156696679Y-83798929D01*
X156751071Y-83853321D01*
X156815029Y-83896056D01*
X156886095Y-83925493D01*
X156961539Y-83940500D01*
X157038461Y-83940500D01*
X157113905Y-83925493D01*
X157184971Y-83896056D01*
X157248929Y-83853321D01*
X157303321Y-83798929D01*
X157346056Y-83734971D01*
X157375493Y-83663905D01*
X157390500Y-83588461D01*
X157390500Y-83511539D01*
X157375493Y-83436095D01*
X157346056Y-83365029D01*
X157303321Y-83301071D01*
X157248929Y-83246679D01*
X157184971Y-83203944D01*
X157113905Y-83174507D01*
X157038461Y-83159500D01*
X156961539Y-83159500D01*
X156886095Y-83174507D01*
X156815029Y-83203944D01*
X156751071Y-83246679D01*
X156696679Y-83301071D01*
X156653944Y-83365029D01*
X156624507Y-83436095D01*
X156609500Y-83511539D01*
X80063500Y-83511539D01*
X80063500Y-81361539D01*
X149809500Y-81361539D01*
X149809500Y-81438461D01*
X149824507Y-81513905D01*
X149853944Y-81584971D01*
X149896679Y-81648929D01*
X149951071Y-81703321D01*
X150015029Y-81746056D01*
X150086095Y-81775493D01*
X150161539Y-81790500D01*
X150238461Y-81790500D01*
X150313905Y-81775493D01*
X150384971Y-81746056D01*
X150448929Y-81703321D01*
X150503321Y-81648929D01*
X150546056Y-81584971D01*
X150575493Y-81513905D01*
X150590500Y-81438461D01*
X150590500Y-81361539D01*
X150575493Y-81286095D01*
X150546056Y-81215029D01*
X150543725Y-81211539D01*
X156609500Y-81211539D01*
X156609500Y-81288461D01*
X156624507Y-81363905D01*
X156653944Y-81434971D01*
X156696679Y-81498929D01*
X156751071Y-81553321D01*
X156815029Y-81596056D01*
X156886095Y-81625493D01*
X156961539Y-81640500D01*
X157038461Y-81640500D01*
X157113905Y-81625493D01*
X157184971Y-81596056D01*
X157248929Y-81553321D01*
X157303321Y-81498929D01*
X157346056Y-81434971D01*
X157375493Y-81363905D01*
X157390500Y-81288461D01*
X157390500Y-81211539D01*
X157375493Y-81136095D01*
X157346056Y-81065029D01*
X157303321Y-81001071D01*
X157248929Y-80946679D01*
X157184971Y-80903944D01*
X157113905Y-80874507D01*
X157038461Y-80859500D01*
X156961539Y-80859500D01*
X156886095Y-80874507D01*
X156815029Y-80903944D01*
X156751071Y-80946679D01*
X156696679Y-81001071D01*
X156653944Y-81065029D01*
X156624507Y-81136095D01*
X156609500Y-81211539D01*
X150543725Y-81211539D01*
X150503321Y-81151071D01*
X150448929Y-81096679D01*
X150384971Y-81053944D01*
X150313905Y-81024507D01*
X150238461Y-81009500D01*
X150161539Y-81009500D01*
X150086095Y-81024507D01*
X150015029Y-81053944D01*
X149951071Y-81096679D01*
X149896679Y-81151071D01*
X149853944Y-81215029D01*
X149824507Y-81286095D01*
X149809500Y-81361539D01*
X80063500Y-81361539D01*
X80063500Y-79961539D01*
X111709500Y-79961539D01*
X111709500Y-80038461D01*
X111724507Y-80113905D01*
X111753944Y-80184971D01*
X111796679Y-80248929D01*
X111851071Y-80303321D01*
X111915029Y-80346056D01*
X111986095Y-80375493D01*
X112061539Y-80390500D01*
X112138461Y-80390500D01*
X112213905Y-80375493D01*
X112284971Y-80346056D01*
X112348929Y-80303321D01*
X112403321Y-80248929D01*
X112446056Y-80184971D01*
X112475493Y-80113905D01*
X112490500Y-80038461D01*
X112490500Y-79961539D01*
X112475493Y-79886095D01*
X112446056Y-79815029D01*
X112403321Y-79751071D01*
X112348929Y-79696679D01*
X112284971Y-79653944D01*
X112279530Y-79651690D01*
X115609500Y-79651690D01*
X115609500Y-79748310D01*
X115628350Y-79843073D01*
X115665325Y-79932339D01*
X115719004Y-80012675D01*
X115787325Y-80080996D01*
X115867661Y-80134675D01*
X115956927Y-80171650D01*
X116051690Y-80190500D01*
X116148310Y-80190500D01*
X116243073Y-80171650D01*
X116332339Y-80134675D01*
X116412675Y-80080996D01*
X116480996Y-80012675D01*
X116534675Y-79932339D01*
X116571650Y-79843073D01*
X116579881Y-79801690D01*
X148934500Y-79801690D01*
X148934500Y-79898310D01*
X148953350Y-79993073D01*
X148990325Y-80082339D01*
X149044004Y-80162675D01*
X149112325Y-80230996D01*
X149192661Y-80284675D01*
X149281927Y-80321650D01*
X149376690Y-80340500D01*
X149473310Y-80340500D01*
X149568073Y-80321650D01*
X149657339Y-80284675D01*
X149737675Y-80230996D01*
X149805996Y-80162675D01*
X149859675Y-80082339D01*
X149896650Y-79993073D01*
X149915500Y-79898310D01*
X149915500Y-79801690D01*
X149896650Y-79706927D01*
X149859675Y-79617661D01*
X149805996Y-79537325D01*
X149737675Y-79469004D01*
X149657339Y-79415325D01*
X149568073Y-79378350D01*
X149473310Y-79359500D01*
X149376690Y-79359500D01*
X149281927Y-79378350D01*
X149192661Y-79415325D01*
X149112325Y-79469004D01*
X149044004Y-79537325D01*
X148990325Y-79617661D01*
X148953350Y-79706927D01*
X148934500Y-79801690D01*
X116579881Y-79801690D01*
X116590500Y-79748310D01*
X116590500Y-79651690D01*
X116571650Y-79556927D01*
X116534675Y-79467661D01*
X116480996Y-79387325D01*
X116412675Y-79319004D01*
X116332339Y-79265325D01*
X116243073Y-79228350D01*
X116148310Y-79209500D01*
X116051690Y-79209500D01*
X115956927Y-79228350D01*
X115867661Y-79265325D01*
X115787325Y-79319004D01*
X115719004Y-79387325D01*
X115665325Y-79467661D01*
X115628350Y-79556927D01*
X115609500Y-79651690D01*
X112279530Y-79651690D01*
X112213905Y-79624507D01*
X112138461Y-79609500D01*
X112061539Y-79609500D01*
X111986095Y-79624507D01*
X111915029Y-79653944D01*
X111851071Y-79696679D01*
X111796679Y-79751071D01*
X111753944Y-79815029D01*
X111724507Y-79886095D01*
X111709500Y-79961539D01*
X80063500Y-79961539D01*
X80063500Y-79401690D01*
X103659500Y-79401690D01*
X103659500Y-79498310D01*
X103678350Y-79593073D01*
X103715325Y-79682339D01*
X103769004Y-79762675D01*
X103837325Y-79830996D01*
X103917661Y-79884675D01*
X104006927Y-79921650D01*
X104101690Y-79940500D01*
X104198310Y-79940500D01*
X104293073Y-79921650D01*
X104382339Y-79884675D01*
X104462675Y-79830996D01*
X104530996Y-79762675D01*
X104584675Y-79682339D01*
X104621650Y-79593073D01*
X104640500Y-79498310D01*
X104640500Y-79401690D01*
X104621650Y-79306927D01*
X104584675Y-79217661D01*
X104530996Y-79137325D01*
X104462675Y-79069004D01*
X104382339Y-79015325D01*
X104293073Y-78978350D01*
X104198310Y-78959500D01*
X104101690Y-78959500D01*
X104006927Y-78978350D01*
X103917661Y-79015325D01*
X103837325Y-79069004D01*
X103769004Y-79137325D01*
X103715325Y-79217661D01*
X103678350Y-79306927D01*
X103659500Y-79401690D01*
X80063500Y-79401690D01*
X80063500Y-78761539D01*
X106859500Y-78761539D01*
X106859500Y-78838461D01*
X106874507Y-78913905D01*
X106903944Y-78984971D01*
X106946679Y-79048929D01*
X107001071Y-79103321D01*
X107065029Y-79146056D01*
X107136095Y-79175493D01*
X107211539Y-79190500D01*
X107288461Y-79190500D01*
X107363905Y-79175493D01*
X107434971Y-79146056D01*
X107498929Y-79103321D01*
X107553321Y-79048929D01*
X107596056Y-78984971D01*
X107625493Y-78913905D01*
X107640500Y-78838461D01*
X107640500Y-78761539D01*
X107625493Y-78686095D01*
X107596056Y-78615029D01*
X107553321Y-78551071D01*
X107533940Y-78531690D01*
X112779500Y-78531690D01*
X112779500Y-78628310D01*
X112798350Y-78723073D01*
X112835325Y-78812339D01*
X112889004Y-78892675D01*
X112957325Y-78960996D01*
X113037661Y-79014675D01*
X113126927Y-79051650D01*
X113221690Y-79070500D01*
X113318310Y-79070500D01*
X113413073Y-79051650D01*
X113502339Y-79014675D01*
X113582675Y-78960996D01*
X113650996Y-78892675D01*
X113696215Y-78825000D01*
X160506039Y-78825000D01*
X160519854Y-78965262D01*
X160560767Y-79100134D01*
X160627206Y-79224433D01*
X160716618Y-79333382D01*
X160825567Y-79422794D01*
X160949866Y-79489233D01*
X161084738Y-79530146D01*
X161189861Y-79540500D01*
X162110139Y-79540500D01*
X162215262Y-79530146D01*
X162350134Y-79489233D01*
X162474433Y-79422794D01*
X162583382Y-79333382D01*
X162672794Y-79224433D01*
X162739233Y-79100134D01*
X162780146Y-78965262D01*
X162793961Y-78825000D01*
X162780146Y-78684738D01*
X162739233Y-78549866D01*
X162672794Y-78425567D01*
X162583382Y-78316618D01*
X162474433Y-78227206D01*
X162350134Y-78160767D01*
X162215262Y-78119854D01*
X162110139Y-78109500D01*
X161189861Y-78109500D01*
X161084738Y-78119854D01*
X160949866Y-78160767D01*
X160825567Y-78227206D01*
X160716618Y-78316618D01*
X160627206Y-78425567D01*
X160560767Y-78549866D01*
X160519854Y-78684738D01*
X160506039Y-78825000D01*
X113696215Y-78825000D01*
X113704675Y-78812339D01*
X113741650Y-78723073D01*
X113760500Y-78628310D01*
X113760500Y-78531690D01*
X113741650Y-78436927D01*
X113704675Y-78347661D01*
X113650996Y-78267325D01*
X113582675Y-78199004D01*
X113502339Y-78145325D01*
X113413073Y-78108350D01*
X113318310Y-78089500D01*
X113221690Y-78089500D01*
X113126927Y-78108350D01*
X113037661Y-78145325D01*
X112957325Y-78199004D01*
X112889004Y-78267325D01*
X112835325Y-78347661D01*
X112798350Y-78436927D01*
X112779500Y-78531690D01*
X107533940Y-78531690D01*
X107498929Y-78496679D01*
X107434971Y-78453944D01*
X107363905Y-78424507D01*
X107288461Y-78409500D01*
X107211539Y-78409500D01*
X107136095Y-78424507D01*
X107065029Y-78453944D01*
X107001071Y-78496679D01*
X106946679Y-78551071D01*
X106903944Y-78615029D01*
X106874507Y-78686095D01*
X106859500Y-78761539D01*
X80063500Y-78761539D01*
X80063500Y-77001690D01*
X116409500Y-77001690D01*
X116409500Y-77098310D01*
X116428350Y-77193073D01*
X116465325Y-77282339D01*
X116519004Y-77362675D01*
X116587325Y-77430996D01*
X116667661Y-77484675D01*
X116756927Y-77521650D01*
X116851690Y-77540500D01*
X116948310Y-77540500D01*
X117043073Y-77521650D01*
X117132339Y-77484675D01*
X117212675Y-77430996D01*
X117280996Y-77362675D01*
X117334675Y-77282339D01*
X117371650Y-77193073D01*
X117390500Y-77098310D01*
X117390500Y-77001690D01*
X117371650Y-76906927D01*
X117334675Y-76817661D01*
X117280996Y-76737325D01*
X117212675Y-76669004D01*
X117132339Y-76615325D01*
X117043073Y-76578350D01*
X116948310Y-76559500D01*
X116851690Y-76559500D01*
X116756927Y-76578350D01*
X116667661Y-76615325D01*
X116587325Y-76669004D01*
X116519004Y-76737325D01*
X116465325Y-76817661D01*
X116428350Y-76906927D01*
X116409500Y-77001690D01*
X80063500Y-77001690D01*
X80063500Y-75201690D01*
X105159500Y-75201690D01*
X105159500Y-75298310D01*
X105178350Y-75393073D01*
X105215325Y-75482339D01*
X105269004Y-75562675D01*
X105337325Y-75630996D01*
X105417661Y-75684675D01*
X105506927Y-75721650D01*
X105601690Y-75740500D01*
X105698310Y-75740500D01*
X105793073Y-75721650D01*
X105882339Y-75684675D01*
X105962675Y-75630996D01*
X106030996Y-75562675D01*
X106084675Y-75482339D01*
X106121650Y-75393073D01*
X106140500Y-75298310D01*
X106140500Y-75201690D01*
X106121650Y-75106927D01*
X106084675Y-75017661D01*
X106030996Y-74937325D01*
X105962675Y-74869004D01*
X105882339Y-74815325D01*
X105793073Y-74778350D01*
X105698310Y-74759500D01*
X105601690Y-74759500D01*
X105506927Y-74778350D01*
X105417661Y-74815325D01*
X105337325Y-74869004D01*
X105269004Y-74937325D01*
X105215325Y-75017661D01*
X105178350Y-75106927D01*
X105159500Y-75201690D01*
X80063500Y-75201690D01*
X80063500Y-72151690D01*
X114909500Y-72151690D01*
X114909500Y-72248310D01*
X114928350Y-72343073D01*
X114965325Y-72432339D01*
X115019004Y-72512675D01*
X115087325Y-72580996D01*
X115167661Y-72634675D01*
X115256927Y-72671650D01*
X115351690Y-72690500D01*
X115448310Y-72690500D01*
X115543073Y-72671650D01*
X115632339Y-72634675D01*
X115712675Y-72580996D01*
X115780996Y-72512675D01*
X115834675Y-72432339D01*
X115871650Y-72343073D01*
X115890500Y-72248310D01*
X115890500Y-72151690D01*
X115871650Y-72056927D01*
X115834675Y-71967661D01*
X115780996Y-71887325D01*
X115712675Y-71819004D01*
X115632339Y-71765325D01*
X115543073Y-71728350D01*
X115448310Y-71709500D01*
X115351690Y-71709500D01*
X115256927Y-71728350D01*
X115167661Y-71765325D01*
X115087325Y-71819004D01*
X115019004Y-71887325D01*
X114965325Y-71967661D01*
X114928350Y-72056927D01*
X114909500Y-72151690D01*
X80063500Y-72151690D01*
X80063500Y-70551690D01*
X129709500Y-70551690D01*
X129709500Y-70648310D01*
X129728350Y-70743073D01*
X129765325Y-70832339D01*
X129819004Y-70912675D01*
X129887325Y-70980996D01*
X129967661Y-71034675D01*
X130056927Y-71071650D01*
X130151690Y-71090500D01*
X130248310Y-71090500D01*
X130343073Y-71071650D01*
X130432339Y-71034675D01*
X130512675Y-70980996D01*
X130580996Y-70912675D01*
X130634675Y-70832339D01*
X130671650Y-70743073D01*
X130690500Y-70648310D01*
X130690500Y-70551690D01*
X130671650Y-70456927D01*
X130634675Y-70367661D01*
X130580996Y-70287325D01*
X130512675Y-70219004D01*
X130432339Y-70165325D01*
X130343073Y-70128350D01*
X130248310Y-70109500D01*
X130151690Y-70109500D01*
X130056927Y-70128350D01*
X129967661Y-70165325D01*
X129887325Y-70219004D01*
X129819004Y-70287325D01*
X129765325Y-70367661D01*
X129728350Y-70456927D01*
X129709500Y-70551690D01*
X80063500Y-70551690D01*
X80063500Y-66851690D01*
X129409500Y-66851690D01*
X129409500Y-66948310D01*
X129428350Y-67043073D01*
X129465325Y-67132339D01*
X129519004Y-67212675D01*
X129587325Y-67280996D01*
X129667661Y-67334675D01*
X129756927Y-67371650D01*
X129851690Y-67390500D01*
X129948310Y-67390500D01*
X130043073Y-67371650D01*
X130132339Y-67334675D01*
X130212675Y-67280996D01*
X130280996Y-67212675D01*
X130334675Y-67132339D01*
X130371650Y-67043073D01*
X130390500Y-66948310D01*
X130390500Y-66851690D01*
X130371650Y-66756927D01*
X130334675Y-66667661D01*
X130280996Y-66587325D01*
X130212675Y-66519004D01*
X130132339Y-66465325D01*
X130043073Y-66428350D01*
X129948310Y-66409500D01*
X129851690Y-66409500D01*
X129756927Y-66428350D01*
X129667661Y-66465325D01*
X129587325Y-66519004D01*
X129519004Y-66587325D01*
X129465325Y-66667661D01*
X129428350Y-66756927D01*
X129409500Y-66851690D01*
X80063500Y-66851690D01*
X80063500Y-65051690D01*
X117409500Y-65051690D01*
X117409500Y-65148310D01*
X117428350Y-65243073D01*
X117465325Y-65332339D01*
X117519004Y-65412675D01*
X117587325Y-65480996D01*
X117667661Y-65534675D01*
X117756927Y-65571650D01*
X117851690Y-65590500D01*
X117948310Y-65590500D01*
X118043073Y-65571650D01*
X118132339Y-65534675D01*
X118212675Y-65480996D01*
X118280996Y-65412675D01*
X118334675Y-65332339D01*
X118371650Y-65243073D01*
X118390500Y-65148310D01*
X118390500Y-65051690D01*
X118371650Y-64956927D01*
X118334675Y-64867661D01*
X118280996Y-64787325D01*
X118212675Y-64719004D01*
X118132339Y-64665325D01*
X118043073Y-64628350D01*
X117948310Y-64609500D01*
X117851690Y-64609500D01*
X117756927Y-64628350D01*
X117667661Y-64665325D01*
X117587325Y-64719004D01*
X117519004Y-64787325D01*
X117465325Y-64867661D01*
X117428350Y-64956927D01*
X117409500Y-65051690D01*
X80063500Y-65051690D01*
X80063500Y-64151690D01*
X129409500Y-64151690D01*
X129409500Y-64248310D01*
X129428350Y-64343073D01*
X129465325Y-64432339D01*
X129519004Y-64512675D01*
X129587325Y-64580996D01*
X129667661Y-64634675D01*
X129756927Y-64671650D01*
X129851690Y-64690500D01*
X129948310Y-64690500D01*
X130043073Y-64671650D01*
X130132339Y-64634675D01*
X130212675Y-64580996D01*
X130280996Y-64512675D01*
X130334675Y-64432339D01*
X130371650Y-64343073D01*
X130384854Y-64276690D01*
X143159500Y-64276690D01*
X143159500Y-64373310D01*
X143178350Y-64468073D01*
X143215325Y-64557339D01*
X143269004Y-64637675D01*
X143337325Y-64705996D01*
X143417661Y-64759675D01*
X143506927Y-64796650D01*
X143601690Y-64815500D01*
X143698310Y-64815500D01*
X143793073Y-64796650D01*
X143882339Y-64759675D01*
X143962675Y-64705996D01*
X144030996Y-64637675D01*
X144084675Y-64557339D01*
X144121650Y-64468073D01*
X144140500Y-64373310D01*
X144140500Y-64276690D01*
X144121650Y-64181927D01*
X144084675Y-64092661D01*
X144030996Y-64012325D01*
X143962675Y-63944004D01*
X143882339Y-63890325D01*
X143793073Y-63853350D01*
X143698310Y-63834500D01*
X143601690Y-63834500D01*
X143506927Y-63853350D01*
X143417661Y-63890325D01*
X143337325Y-63944004D01*
X143269004Y-64012325D01*
X143215325Y-64092661D01*
X143178350Y-64181927D01*
X143159500Y-64276690D01*
X130384854Y-64276690D01*
X130390500Y-64248310D01*
X130390500Y-64151690D01*
X130371650Y-64056927D01*
X130334675Y-63967661D01*
X130280996Y-63887325D01*
X130212675Y-63819004D01*
X130132339Y-63765325D01*
X130043073Y-63728350D01*
X129948310Y-63709500D01*
X129851690Y-63709500D01*
X129756927Y-63728350D01*
X129667661Y-63765325D01*
X129587325Y-63819004D01*
X129519004Y-63887325D01*
X129465325Y-63967661D01*
X129428350Y-64056927D01*
X129409500Y-64151690D01*
X80063500Y-64151690D01*
X80063500Y-62351690D01*
X138309500Y-62351690D01*
X138309500Y-62448310D01*
X138328350Y-62543073D01*
X138365325Y-62632339D01*
X138419004Y-62712675D01*
X138487325Y-62780996D01*
X138567661Y-62834675D01*
X138656927Y-62871650D01*
X138751690Y-62890500D01*
X138848310Y-62890500D01*
X138943073Y-62871650D01*
X139032339Y-62834675D01*
X139112675Y-62780996D01*
X139180996Y-62712675D01*
X139234675Y-62632339D01*
X139271650Y-62543073D01*
X139290500Y-62448310D01*
X139290500Y-62351690D01*
X139271650Y-62256927D01*
X139234675Y-62167661D01*
X139180996Y-62087325D01*
X139112675Y-62019004D01*
X139032339Y-61965325D01*
X138943073Y-61928350D01*
X138848310Y-61909500D01*
X138751690Y-61909500D01*
X138656927Y-61928350D01*
X138567661Y-61965325D01*
X138487325Y-62019004D01*
X138419004Y-62087325D01*
X138365325Y-62167661D01*
X138328350Y-62256927D01*
X138309500Y-62351690D01*
X80063500Y-62351690D01*
X80063500Y-61651690D01*
X123109500Y-61651690D01*
X123109500Y-61748310D01*
X123128350Y-61843073D01*
X123165325Y-61932339D01*
X123219004Y-62012675D01*
X123287325Y-62080996D01*
X123367661Y-62134675D01*
X123456927Y-62171650D01*
X123551690Y-62190500D01*
X123648310Y-62190500D01*
X123743073Y-62171650D01*
X123832339Y-62134675D01*
X123912675Y-62080996D01*
X123980996Y-62012675D01*
X124034675Y-61932339D01*
X124071650Y-61843073D01*
X124090500Y-61748310D01*
X124090500Y-61651690D01*
X124071650Y-61556927D01*
X124034675Y-61467661D01*
X123980996Y-61387325D01*
X123912675Y-61319004D01*
X123832339Y-61265325D01*
X123743073Y-61228350D01*
X123648310Y-61209500D01*
X123551690Y-61209500D01*
X123456927Y-61228350D01*
X123367661Y-61265325D01*
X123287325Y-61319004D01*
X123219004Y-61387325D01*
X123165325Y-61467661D01*
X123128350Y-61556927D01*
X123109500Y-61651690D01*
X80063500Y-61651690D01*
X80063500Y-51687520D01*
X95549500Y-51687520D01*
X95549500Y-51892480D01*
X95589485Y-52093503D01*
X95667920Y-52282862D01*
X95781791Y-52453280D01*
X95926720Y-52598209D01*
X96097138Y-52712080D01*
X96286497Y-52790515D01*
X96487520Y-52830500D01*
X96692480Y-52830500D01*
X96893503Y-52790515D01*
X97082862Y-52712080D01*
X97253280Y-52598209D01*
X97398209Y-52453280D01*
X97512080Y-52282862D01*
X97590515Y-52093503D01*
X97630500Y-51892480D01*
X97630500Y-51687520D01*
X98089500Y-51687520D01*
X98089500Y-51892480D01*
X98129485Y-52093503D01*
X98207920Y-52282862D01*
X98321791Y-52453280D01*
X98466720Y-52598209D01*
X98637138Y-52712080D01*
X98826497Y-52790515D01*
X99027520Y-52830500D01*
X99232480Y-52830500D01*
X99433503Y-52790515D01*
X99622862Y-52712080D01*
X99793280Y-52598209D01*
X99938209Y-52453280D01*
X100052080Y-52282862D01*
X100130515Y-52093503D01*
X100170500Y-51892480D01*
X100170500Y-51687520D01*
X100629500Y-51687520D01*
X100629500Y-51892480D01*
X100669485Y-52093503D01*
X100747920Y-52282862D01*
X100861791Y-52453280D01*
X101006720Y-52598209D01*
X101177138Y-52712080D01*
X101366497Y-52790515D01*
X101567520Y-52830500D01*
X101772480Y-52830500D01*
X101973503Y-52790515D01*
X102162862Y-52712080D01*
X102333280Y-52598209D01*
X102478209Y-52453280D01*
X102592080Y-52282862D01*
X102670515Y-52093503D01*
X102710500Y-51892480D01*
X102710500Y-51687520D01*
X103169500Y-51687520D01*
X103169500Y-51892480D01*
X103209485Y-52093503D01*
X103287920Y-52282862D01*
X103401791Y-52453280D01*
X103546720Y-52598209D01*
X103717138Y-52712080D01*
X103906497Y-52790515D01*
X104107520Y-52830500D01*
X104312480Y-52830500D01*
X104513503Y-52790515D01*
X104702862Y-52712080D01*
X104873280Y-52598209D01*
X105018209Y-52453280D01*
X105132080Y-52282862D01*
X105210515Y-52093503D01*
X105250500Y-51892480D01*
X105250500Y-51687520D01*
X105709500Y-51687520D01*
X105709500Y-51892480D01*
X105749485Y-52093503D01*
X105827920Y-52282862D01*
X105941791Y-52453280D01*
X106086720Y-52598209D01*
X106257138Y-52712080D01*
X106446497Y-52790515D01*
X106647520Y-52830500D01*
X106852480Y-52830500D01*
X107053503Y-52790515D01*
X107242862Y-52712080D01*
X107413280Y-52598209D01*
X107558209Y-52453280D01*
X107672080Y-52282862D01*
X107750515Y-52093503D01*
X107790500Y-51892480D01*
X107790500Y-51687520D01*
X108249500Y-51687520D01*
X108249500Y-51892480D01*
X108289485Y-52093503D01*
X108367920Y-52282862D01*
X108481791Y-52453280D01*
X108626720Y-52598209D01*
X108797138Y-52712080D01*
X108986497Y-52790515D01*
X109187520Y-52830500D01*
X109392480Y-52830500D01*
X109593503Y-52790515D01*
X109782862Y-52712080D01*
X109953280Y-52598209D01*
X110098209Y-52453280D01*
X110212080Y-52282862D01*
X110290515Y-52093503D01*
X110330500Y-51892480D01*
X110330500Y-51687520D01*
X110789500Y-51687520D01*
X110789500Y-51892480D01*
X110829485Y-52093503D01*
X110907920Y-52282862D01*
X111021791Y-52453280D01*
X111166720Y-52598209D01*
X111337138Y-52712080D01*
X111526497Y-52790515D01*
X111727520Y-52830500D01*
X111932480Y-52830500D01*
X112133503Y-52790515D01*
X112322862Y-52712080D01*
X112493280Y-52598209D01*
X112638209Y-52453280D01*
X112752080Y-52282862D01*
X112830515Y-52093503D01*
X112870500Y-51892480D01*
X112870500Y-51687520D01*
X113329500Y-51687520D01*
X113329500Y-51892480D01*
X113369485Y-52093503D01*
X113447920Y-52282862D01*
X113561791Y-52453280D01*
X113706720Y-52598209D01*
X113877138Y-52712080D01*
X114066497Y-52790515D01*
X114267520Y-52830500D01*
X114472480Y-52830500D01*
X114673503Y-52790515D01*
X114862862Y-52712080D01*
X115033280Y-52598209D01*
X115178209Y-52453280D01*
X115292080Y-52282862D01*
X115370515Y-52093503D01*
X115389084Y-52000147D01*
X115816509Y-52000147D01*
X115878518Y-52209439D01*
X115980166Y-52402612D01*
X116117547Y-52572242D01*
X116285382Y-52711811D01*
X116477220Y-52815956D01*
X116685690Y-52880674D01*
X116699853Y-52883490D01*
X116873500Y-52836989D01*
X116873500Y-51826500D01*
X116946500Y-51826500D01*
X116946500Y-52836989D01*
X117120147Y-52883490D01*
X117134310Y-52880674D01*
X117342780Y-52815956D01*
X117534618Y-52711811D01*
X117702453Y-52572242D01*
X117839834Y-52402612D01*
X117941482Y-52209439D01*
X118003491Y-52000147D01*
X117957028Y-51826500D01*
X116946500Y-51826500D01*
X116873500Y-51826500D01*
X115862972Y-51826500D01*
X115816509Y-52000147D01*
X115389084Y-52000147D01*
X115410500Y-51892480D01*
X115410500Y-51687520D01*
X115389085Y-51579853D01*
X115816509Y-51579853D01*
X115862972Y-51753500D01*
X116873500Y-51753500D01*
X116873500Y-50743011D01*
X116946500Y-50743011D01*
X116946500Y-51753500D01*
X117957028Y-51753500D01*
X117974682Y-51687520D01*
X118409500Y-51687520D01*
X118409500Y-51892480D01*
X118449485Y-52093503D01*
X118527920Y-52282862D01*
X118641791Y-52453280D01*
X118786720Y-52598209D01*
X118957138Y-52712080D01*
X119146497Y-52790515D01*
X119347520Y-52830500D01*
X119552480Y-52830500D01*
X119753503Y-52790515D01*
X119942862Y-52712080D01*
X120113280Y-52598209D01*
X120258209Y-52453280D01*
X120372080Y-52282862D01*
X120450515Y-52093503D01*
X120490500Y-51892480D01*
X120490500Y-51687520D01*
X120450515Y-51486497D01*
X120372080Y-51297138D01*
X120258209Y-51126720D01*
X120113280Y-50981791D01*
X119942862Y-50867920D01*
X119753503Y-50789485D01*
X119552480Y-50749500D01*
X119347520Y-50749500D01*
X119146497Y-50789485D01*
X118957138Y-50867920D01*
X118786720Y-50981791D01*
X118641791Y-51126720D01*
X118527920Y-51297138D01*
X118449485Y-51486497D01*
X118409500Y-51687520D01*
X117974682Y-51687520D01*
X118003491Y-51579853D01*
X117941482Y-51370561D01*
X117839834Y-51177388D01*
X117702453Y-51007758D01*
X117534618Y-50868189D01*
X117342780Y-50764044D01*
X117134310Y-50699326D01*
X117120147Y-50696510D01*
X116946500Y-50743011D01*
X116873500Y-50743011D01*
X116699853Y-50696510D01*
X116685690Y-50699326D01*
X116477220Y-50764044D01*
X116285382Y-50868189D01*
X116117547Y-51007758D01*
X115980166Y-51177388D01*
X115878518Y-51370561D01*
X115816509Y-51579853D01*
X115389085Y-51579853D01*
X115370515Y-51486497D01*
X115292080Y-51297138D01*
X115178209Y-51126720D01*
X115033280Y-50981791D01*
X114862862Y-50867920D01*
X114673503Y-50789485D01*
X114472480Y-50749500D01*
X114267520Y-50749500D01*
X114066497Y-50789485D01*
X113877138Y-50867920D01*
X113706720Y-50981791D01*
X113561791Y-51126720D01*
X113447920Y-51297138D01*
X113369485Y-51486497D01*
X113329500Y-51687520D01*
X112870500Y-51687520D01*
X112830515Y-51486497D01*
X112752080Y-51297138D01*
X112638209Y-51126720D01*
X112493280Y-50981791D01*
X112322862Y-50867920D01*
X112133503Y-50789485D01*
X111932480Y-50749500D01*
X111727520Y-50749500D01*
X111526497Y-50789485D01*
X111337138Y-50867920D01*
X111166720Y-50981791D01*
X111021791Y-51126720D01*
X110907920Y-51297138D01*
X110829485Y-51486497D01*
X110789500Y-51687520D01*
X110330500Y-51687520D01*
X110290515Y-51486497D01*
X110212080Y-51297138D01*
X110098209Y-51126720D01*
X109953280Y-50981791D01*
X109782862Y-50867920D01*
X109593503Y-50789485D01*
X109392480Y-50749500D01*
X109187520Y-50749500D01*
X108986497Y-50789485D01*
X108797138Y-50867920D01*
X108626720Y-50981791D01*
X108481791Y-51126720D01*
X108367920Y-51297138D01*
X108289485Y-51486497D01*
X108249500Y-51687520D01*
X107790500Y-51687520D01*
X107750515Y-51486497D01*
X107672080Y-51297138D01*
X107558209Y-51126720D01*
X107413280Y-50981791D01*
X107242862Y-50867920D01*
X107053503Y-50789485D01*
X106852480Y-50749500D01*
X106647520Y-50749500D01*
X106446497Y-50789485D01*
X106257138Y-50867920D01*
X106086720Y-50981791D01*
X105941791Y-51126720D01*
X105827920Y-51297138D01*
X105749485Y-51486497D01*
X105709500Y-51687520D01*
X105250500Y-51687520D01*
X105210515Y-51486497D01*
X105132080Y-51297138D01*
X105018209Y-51126720D01*
X104873280Y-50981791D01*
X104702862Y-50867920D01*
X104513503Y-50789485D01*
X104312480Y-50749500D01*
X104107520Y-50749500D01*
X103906497Y-50789485D01*
X103717138Y-50867920D01*
X103546720Y-50981791D01*
X103401791Y-51126720D01*
X103287920Y-51297138D01*
X103209485Y-51486497D01*
X103169500Y-51687520D01*
X102710500Y-51687520D01*
X102670515Y-51486497D01*
X102592080Y-51297138D01*
X102478209Y-51126720D01*
X102333280Y-50981791D01*
X102162862Y-50867920D01*
X101973503Y-50789485D01*
X101772480Y-50749500D01*
X101567520Y-50749500D01*
X101366497Y-50789485D01*
X101177138Y-50867920D01*
X101006720Y-50981791D01*
X100861791Y-51126720D01*
X100747920Y-51297138D01*
X100669485Y-51486497D01*
X100629500Y-51687520D01*
X100170500Y-51687520D01*
X100130515Y-51486497D01*
X100052080Y-51297138D01*
X99938209Y-51126720D01*
X99793280Y-50981791D01*
X99622862Y-50867920D01*
X99433503Y-50789485D01*
X99232480Y-50749500D01*
X99027520Y-50749500D01*
X98826497Y-50789485D01*
X98637138Y-50867920D01*
X98466720Y-50981791D01*
X98321791Y-51126720D01*
X98207920Y-51297138D01*
X98129485Y-51486497D01*
X98089500Y-51687520D01*
X97630500Y-51687520D01*
X97590515Y-51486497D01*
X97512080Y-51297138D01*
X97398209Y-51126720D01*
X97253280Y-50981791D01*
X97082862Y-50867920D01*
X96893503Y-50789485D01*
X96692480Y-50749500D01*
X96487520Y-50749500D01*
X96286497Y-50789485D01*
X96097138Y-50867920D01*
X95926720Y-50981791D01*
X95781791Y-51126720D01*
X95667920Y-51297138D01*
X95589485Y-51486497D01*
X95549500Y-51687520D01*
X80063500Y-51687520D01*
X80063500Y-49097520D01*
X83279500Y-49097520D01*
X83279500Y-49302480D01*
X83319485Y-49503503D01*
X83397920Y-49692862D01*
X83511791Y-49863280D01*
X83656720Y-50008209D01*
X83827138Y-50122080D01*
X84016497Y-50200515D01*
X84217520Y-50240500D01*
X84422480Y-50240500D01*
X84623503Y-50200515D01*
X84812862Y-50122080D01*
X84983280Y-50008209D01*
X85128209Y-49863280D01*
X85242080Y-49692862D01*
X85320515Y-49503503D01*
X85339084Y-49410147D01*
X85766509Y-49410147D01*
X85828518Y-49619439D01*
X85930166Y-49812612D01*
X86067547Y-49982242D01*
X86235382Y-50121811D01*
X86427220Y-50225956D01*
X86635690Y-50290674D01*
X86649853Y-50293490D01*
X86823500Y-50246989D01*
X86823500Y-49236500D01*
X86896500Y-49236500D01*
X86896500Y-50246989D01*
X87070147Y-50293490D01*
X87084310Y-50290674D01*
X87292780Y-50225956D01*
X87484618Y-50121811D01*
X87570972Y-50050000D01*
X88285225Y-50050000D01*
X88290313Y-50101655D01*
X88305380Y-50151325D01*
X88329848Y-50197101D01*
X88362776Y-50237224D01*
X88402899Y-50270152D01*
X88448675Y-50294620D01*
X88498345Y-50309687D01*
X88550000Y-50314775D01*
X89297625Y-50313500D01*
X89363500Y-50247625D01*
X89363500Y-49236500D01*
X89436500Y-49236500D01*
X89436500Y-50247625D01*
X89502375Y-50313500D01*
X90250000Y-50314775D01*
X90301655Y-50309687D01*
X90351325Y-50294620D01*
X90397101Y-50270152D01*
X90437224Y-50237224D01*
X90470152Y-50197101D01*
X90494620Y-50151325D01*
X90509687Y-50101655D01*
X90514775Y-50050000D01*
X90513500Y-49302375D01*
X90447625Y-49236500D01*
X89436500Y-49236500D01*
X89363500Y-49236500D01*
X88352375Y-49236500D01*
X88286500Y-49302375D01*
X88285225Y-50050000D01*
X87570972Y-50050000D01*
X87652453Y-49982242D01*
X87789834Y-49812612D01*
X87891482Y-49619439D01*
X87953491Y-49410147D01*
X87907028Y-49236500D01*
X86896500Y-49236500D01*
X86823500Y-49236500D01*
X85812972Y-49236500D01*
X85766509Y-49410147D01*
X85339084Y-49410147D01*
X85360500Y-49302480D01*
X85360500Y-49097520D01*
X85339085Y-48989853D01*
X85766509Y-48989853D01*
X85812972Y-49163500D01*
X86823500Y-49163500D01*
X86823500Y-48153011D01*
X86896500Y-48153011D01*
X86896500Y-49163500D01*
X87907028Y-49163500D01*
X87953491Y-48989853D01*
X87891482Y-48780561D01*
X87789834Y-48587388D01*
X87652453Y-48417758D01*
X87570973Y-48350000D01*
X88285225Y-48350000D01*
X88286500Y-49097625D01*
X88352375Y-49163500D01*
X89363500Y-49163500D01*
X89363500Y-48152375D01*
X89436500Y-48152375D01*
X89436500Y-49163500D01*
X90447625Y-49163500D01*
X90463605Y-49147520D01*
X95549500Y-49147520D01*
X95549500Y-49352480D01*
X95589485Y-49553503D01*
X95667920Y-49742862D01*
X95781791Y-49913280D01*
X95926720Y-50058209D01*
X96097138Y-50172080D01*
X96286497Y-50250515D01*
X96487520Y-50290500D01*
X96692480Y-50290500D01*
X96893503Y-50250515D01*
X97082862Y-50172080D01*
X97253280Y-50058209D01*
X97398209Y-49913280D01*
X97512080Y-49742862D01*
X97590515Y-49553503D01*
X97630500Y-49352480D01*
X97630500Y-49147520D01*
X98089500Y-49147520D01*
X98089500Y-49352480D01*
X98129485Y-49553503D01*
X98207920Y-49742862D01*
X98321791Y-49913280D01*
X98466720Y-50058209D01*
X98637138Y-50172080D01*
X98826497Y-50250515D01*
X99027520Y-50290500D01*
X99232480Y-50290500D01*
X99433503Y-50250515D01*
X99622862Y-50172080D01*
X99793280Y-50058209D01*
X99938209Y-49913280D01*
X100052080Y-49742862D01*
X100130515Y-49553503D01*
X100170500Y-49352480D01*
X100170500Y-49147520D01*
X100629500Y-49147520D01*
X100629500Y-49352480D01*
X100669485Y-49553503D01*
X100747920Y-49742862D01*
X100861791Y-49913280D01*
X101006720Y-50058209D01*
X101177138Y-50172080D01*
X101366497Y-50250515D01*
X101567520Y-50290500D01*
X101772480Y-50290500D01*
X101973503Y-50250515D01*
X102162862Y-50172080D01*
X102333280Y-50058209D01*
X102478209Y-49913280D01*
X102592080Y-49742862D01*
X102670515Y-49553503D01*
X102710500Y-49352480D01*
X102710500Y-49147520D01*
X103169500Y-49147520D01*
X103169500Y-49352480D01*
X103209485Y-49553503D01*
X103287920Y-49742862D01*
X103401791Y-49913280D01*
X103546720Y-50058209D01*
X103717138Y-50172080D01*
X103906497Y-50250515D01*
X104107520Y-50290500D01*
X104312480Y-50290500D01*
X104513503Y-50250515D01*
X104702862Y-50172080D01*
X104873280Y-50058209D01*
X105018209Y-49913280D01*
X105132080Y-49742862D01*
X105210515Y-49553503D01*
X105250500Y-49352480D01*
X105250500Y-49147520D01*
X105709500Y-49147520D01*
X105709500Y-49352480D01*
X105749485Y-49553503D01*
X105827920Y-49742862D01*
X105941791Y-49913280D01*
X106086720Y-50058209D01*
X106257138Y-50172080D01*
X106446497Y-50250515D01*
X106647520Y-50290500D01*
X106852480Y-50290500D01*
X107053503Y-50250515D01*
X107242862Y-50172080D01*
X107413280Y-50058209D01*
X107558209Y-49913280D01*
X107672080Y-49742862D01*
X107750515Y-49553503D01*
X107790500Y-49352480D01*
X107790500Y-49147520D01*
X108249500Y-49147520D01*
X108249500Y-49352480D01*
X108289485Y-49553503D01*
X108367920Y-49742862D01*
X108481791Y-49913280D01*
X108626720Y-50058209D01*
X108797138Y-50172080D01*
X108986497Y-50250515D01*
X109187520Y-50290500D01*
X109392480Y-50290500D01*
X109593503Y-50250515D01*
X109782862Y-50172080D01*
X109953280Y-50058209D01*
X110098209Y-49913280D01*
X110212080Y-49742862D01*
X110290515Y-49553503D01*
X110330500Y-49352480D01*
X110330500Y-49147520D01*
X110789500Y-49147520D01*
X110789500Y-49352480D01*
X110829485Y-49553503D01*
X110907920Y-49742862D01*
X111021791Y-49913280D01*
X111166720Y-50058209D01*
X111337138Y-50172080D01*
X111526497Y-50250515D01*
X111727520Y-50290500D01*
X111932480Y-50290500D01*
X112133503Y-50250515D01*
X112322862Y-50172080D01*
X112493280Y-50058209D01*
X112638209Y-49913280D01*
X112752080Y-49742862D01*
X112830515Y-49553503D01*
X112870500Y-49352480D01*
X112870500Y-49147520D01*
X113329500Y-49147520D01*
X113329500Y-49352480D01*
X113369485Y-49553503D01*
X113447920Y-49742862D01*
X113561791Y-49913280D01*
X113706720Y-50058209D01*
X113877138Y-50172080D01*
X114066497Y-50250515D01*
X114267520Y-50290500D01*
X114472480Y-50290500D01*
X114673503Y-50250515D01*
X114862862Y-50172080D01*
X115033280Y-50058209D01*
X115178209Y-49913280D01*
X115292080Y-49742862D01*
X115370515Y-49553503D01*
X115410500Y-49352480D01*
X115410500Y-49147520D01*
X115869500Y-49147520D01*
X115869500Y-49352480D01*
X115909485Y-49553503D01*
X115987920Y-49742862D01*
X116101791Y-49913280D01*
X116246720Y-50058209D01*
X116417138Y-50172080D01*
X116606497Y-50250515D01*
X116807520Y-50290500D01*
X117012480Y-50290500D01*
X117213503Y-50250515D01*
X117402862Y-50172080D01*
X117573280Y-50058209D01*
X117718209Y-49913280D01*
X117832080Y-49742862D01*
X117910515Y-49553503D01*
X117950500Y-49352480D01*
X117950500Y-49147520D01*
X117910515Y-48946497D01*
X117832080Y-48757138D01*
X117718209Y-48586720D01*
X117573280Y-48441791D01*
X117510737Y-48400000D01*
X118408579Y-48400000D01*
X118408579Y-50100000D01*
X118412257Y-50137344D01*
X118423150Y-50173254D01*
X118440839Y-50206348D01*
X118464645Y-50235355D01*
X118493652Y-50259161D01*
X118526746Y-50276850D01*
X118562656Y-50287743D01*
X118600000Y-50291421D01*
X120300000Y-50291421D01*
X120337344Y-50287743D01*
X120373254Y-50276850D01*
X120406348Y-50259161D01*
X120435355Y-50235355D01*
X120459161Y-50206348D01*
X120476850Y-50173254D01*
X120487743Y-50137344D01*
X120491421Y-50100000D01*
X120491421Y-49783500D01*
X156159500Y-49783500D01*
X156159500Y-50116500D01*
X156224465Y-50443101D01*
X156351898Y-50750752D01*
X156536903Y-51027631D01*
X156772369Y-51263097D01*
X157049248Y-51448102D01*
X157356899Y-51575535D01*
X157683500Y-51640500D01*
X158016500Y-51640500D01*
X158343101Y-51575535D01*
X158650752Y-51448102D01*
X158927631Y-51263097D01*
X159163097Y-51027631D01*
X159348102Y-50750752D01*
X159475535Y-50443101D01*
X159540500Y-50116500D01*
X159540500Y-49783500D01*
X159475535Y-49456899D01*
X159348102Y-49149248D01*
X159163097Y-48872369D01*
X158927631Y-48636903D01*
X158650752Y-48451898D01*
X158343101Y-48324465D01*
X158016500Y-48259500D01*
X157683500Y-48259500D01*
X157356899Y-48324465D01*
X157049248Y-48451898D01*
X156772369Y-48636903D01*
X156536903Y-48872369D01*
X156351898Y-49149248D01*
X156224465Y-49456899D01*
X156159500Y-49783500D01*
X120491421Y-49783500D01*
X120491421Y-48400000D01*
X120487743Y-48362656D01*
X120476850Y-48326746D01*
X120459161Y-48293652D01*
X120435355Y-48264645D01*
X120406348Y-48240839D01*
X120373254Y-48223150D01*
X120337344Y-48212257D01*
X120300000Y-48208579D01*
X118600000Y-48208579D01*
X118562656Y-48212257D01*
X118526746Y-48223150D01*
X118493652Y-48240839D01*
X118464645Y-48264645D01*
X118440839Y-48293652D01*
X118423150Y-48326746D01*
X118412257Y-48362656D01*
X118408579Y-48400000D01*
X117510737Y-48400000D01*
X117402862Y-48327920D01*
X117213503Y-48249485D01*
X117012480Y-48209500D01*
X116807520Y-48209500D01*
X116606497Y-48249485D01*
X116417138Y-48327920D01*
X116246720Y-48441791D01*
X116101791Y-48586720D01*
X115987920Y-48757138D01*
X115909485Y-48946497D01*
X115869500Y-49147520D01*
X115410500Y-49147520D01*
X115370515Y-48946497D01*
X115292080Y-48757138D01*
X115178209Y-48586720D01*
X115033280Y-48441791D01*
X114862862Y-48327920D01*
X114673503Y-48249485D01*
X114472480Y-48209500D01*
X114267520Y-48209500D01*
X114066497Y-48249485D01*
X113877138Y-48327920D01*
X113706720Y-48441791D01*
X113561791Y-48586720D01*
X113447920Y-48757138D01*
X113369485Y-48946497D01*
X113329500Y-49147520D01*
X112870500Y-49147520D01*
X112830515Y-48946497D01*
X112752080Y-48757138D01*
X112638209Y-48586720D01*
X112493280Y-48441791D01*
X112322862Y-48327920D01*
X112133503Y-48249485D01*
X111932480Y-48209500D01*
X111727520Y-48209500D01*
X111526497Y-48249485D01*
X111337138Y-48327920D01*
X111166720Y-48441791D01*
X111021791Y-48586720D01*
X110907920Y-48757138D01*
X110829485Y-48946497D01*
X110789500Y-49147520D01*
X110330500Y-49147520D01*
X110290515Y-48946497D01*
X110212080Y-48757138D01*
X110098209Y-48586720D01*
X109953280Y-48441791D01*
X109782862Y-48327920D01*
X109593503Y-48249485D01*
X109392480Y-48209500D01*
X109187520Y-48209500D01*
X108986497Y-48249485D01*
X108797138Y-48327920D01*
X108626720Y-48441791D01*
X108481791Y-48586720D01*
X108367920Y-48757138D01*
X108289485Y-48946497D01*
X108249500Y-49147520D01*
X107790500Y-49147520D01*
X107750515Y-48946497D01*
X107672080Y-48757138D01*
X107558209Y-48586720D01*
X107413280Y-48441791D01*
X107242862Y-48327920D01*
X107053503Y-48249485D01*
X106852480Y-48209500D01*
X106647520Y-48209500D01*
X106446497Y-48249485D01*
X106257138Y-48327920D01*
X106086720Y-48441791D01*
X105941791Y-48586720D01*
X105827920Y-48757138D01*
X105749485Y-48946497D01*
X105709500Y-49147520D01*
X105250500Y-49147520D01*
X105210515Y-48946497D01*
X105132080Y-48757138D01*
X105018209Y-48586720D01*
X104873280Y-48441791D01*
X104702862Y-48327920D01*
X104513503Y-48249485D01*
X104312480Y-48209500D01*
X104107520Y-48209500D01*
X103906497Y-48249485D01*
X103717138Y-48327920D01*
X103546720Y-48441791D01*
X103401791Y-48586720D01*
X103287920Y-48757138D01*
X103209485Y-48946497D01*
X103169500Y-49147520D01*
X102710500Y-49147520D01*
X102670515Y-48946497D01*
X102592080Y-48757138D01*
X102478209Y-48586720D01*
X102333280Y-48441791D01*
X102162862Y-48327920D01*
X101973503Y-48249485D01*
X101772480Y-48209500D01*
X101567520Y-48209500D01*
X101366497Y-48249485D01*
X101177138Y-48327920D01*
X101006720Y-48441791D01*
X100861791Y-48586720D01*
X100747920Y-48757138D01*
X100669485Y-48946497D01*
X100629500Y-49147520D01*
X100170500Y-49147520D01*
X100130515Y-48946497D01*
X100052080Y-48757138D01*
X99938209Y-48586720D01*
X99793280Y-48441791D01*
X99622862Y-48327920D01*
X99433503Y-48249485D01*
X99232480Y-48209500D01*
X99027520Y-48209500D01*
X98826497Y-48249485D01*
X98637138Y-48327920D01*
X98466720Y-48441791D01*
X98321791Y-48586720D01*
X98207920Y-48757138D01*
X98129485Y-48946497D01*
X98089500Y-49147520D01*
X97630500Y-49147520D01*
X97590515Y-48946497D01*
X97512080Y-48757138D01*
X97398209Y-48586720D01*
X97253280Y-48441791D01*
X97082862Y-48327920D01*
X96893503Y-48249485D01*
X96692480Y-48209500D01*
X96487520Y-48209500D01*
X96286497Y-48249485D01*
X96097138Y-48327920D01*
X95926720Y-48441791D01*
X95781791Y-48586720D01*
X95667920Y-48757138D01*
X95589485Y-48946497D01*
X95549500Y-49147520D01*
X90463605Y-49147520D01*
X90513500Y-49097625D01*
X90514775Y-48350000D01*
X90509687Y-48298345D01*
X90494620Y-48248675D01*
X90470152Y-48202899D01*
X90437224Y-48162776D01*
X90397101Y-48129848D01*
X90351325Y-48105380D01*
X90301655Y-48090313D01*
X90250000Y-48085225D01*
X89502375Y-48086500D01*
X89436500Y-48152375D01*
X89363500Y-48152375D01*
X89297625Y-48086500D01*
X88550000Y-48085225D01*
X88498345Y-48090313D01*
X88448675Y-48105380D01*
X88402899Y-48129848D01*
X88362776Y-48162776D01*
X88329848Y-48202899D01*
X88305380Y-48248675D01*
X88290313Y-48298345D01*
X88285225Y-48350000D01*
X87570973Y-48350000D01*
X87484618Y-48278189D01*
X87292780Y-48174044D01*
X87084310Y-48109326D01*
X87070147Y-48106510D01*
X86896500Y-48153011D01*
X86823500Y-48153011D01*
X86649853Y-48106510D01*
X86635690Y-48109326D01*
X86427220Y-48174044D01*
X86235382Y-48278189D01*
X86067547Y-48417758D01*
X85930166Y-48587388D01*
X85828518Y-48780561D01*
X85766509Y-48989853D01*
X85339085Y-48989853D01*
X85320515Y-48896497D01*
X85242080Y-48707138D01*
X85128209Y-48536720D01*
X84983280Y-48391791D01*
X84812862Y-48277920D01*
X84623503Y-48199485D01*
X84422480Y-48159500D01*
X84217520Y-48159500D01*
X84016497Y-48199485D01*
X83827138Y-48277920D01*
X83656720Y-48391791D01*
X83511791Y-48536720D01*
X83397920Y-48707138D01*
X83319485Y-48896497D01*
X83279500Y-49097520D01*
X80063500Y-49097520D01*
X80063500Y-45063500D01*
X162936500Y-45063500D01*
X162936500Y-119784500D01*
G37*
%TD.AperFunction*%
%TD*%
M02*
