M48
; DRILL file {KiCad (5.1.9)-1} date 08/18/21 01:11:24
; FORMAT={-:-/ absolute / inch / decimal}
; #@! TF.CreationDate,2021-08-18T01:11:24-04:00
; #@! TF.GenerationSoftware,Kicad,Pcbnew,(5.1.9)-1
; #@! TF.FileFunction,Plated,1,4,PTH
FMAT,2
INCH
T1C0.0079
T2C0.0118
T3C0.0177
T4C0.0394
%
G90
G05
T1
X3.1555Y-3.0866
X3.3465Y-3.5827
X3.3858Y-3.5827
X3.4252Y-3.5827
X3.4646Y-3.5827
X3.5039Y-3.5827
X3.5433Y-3.5827
X3.9291Y-3.6772
X4.1496Y-3.9606
X4.2205Y-3.937
X4.2224Y-3.1024
X4.3012Y-3.9409
X4.3701Y-4.252
X4.3701Y-4.2815
X4.3701Y-4.311
X4.3701Y-4.3406
X4.4134Y-3.1496
X4.4409Y-3.3169
X4.7441Y-4.252
X4.7441Y-4.2815
X4.7441Y-4.311
X4.7441Y-4.3406
X4.7441Y-4.3701
X5.9134Y-3.2047
X6.0433Y-3.8937
X6.1811Y-3.1988
X6.1811Y-3.2894
X6.2165Y-3.8504
T2
X3.2126Y-4.6693
X3.2165Y-3.5118
X3.2205Y-3.3386
X3.2205Y-3.7205
X3.2205Y-4.1496
X3.2205Y-4.3465
X3.2283Y-2.315
X3.2283Y-3.0079
X3.2323Y-2.5551
X3.2323Y-2.752
X3.2362Y-2.0945
X3.378Y-4.3386
X3.3937Y-4.1496
X3.4094Y-2.4173
X3.4094Y-2.6063
X3.4094Y-2.811
X3.4094Y-3.7323
X3.4173Y-2.2126
X3.4252Y-2.9921
X3.5157Y-3.3031
X3.5354Y-4.6693
X3.5433Y-4.1654
X3.5433Y-4.3465
X3.5827Y-2.1654
X3.5906Y-2.378
X3.5906Y-2.5984
X3.5984Y-2.8189
X3.5984Y-2.9921
X3.6102Y-3.7795
X3.6102Y-3.9409
X3.7717Y-3.8661
X3.7717Y-4.1969
X3.8425Y-4.0315
X3.8898Y-3.6378
X4.0Y-2.4882
X4.0Y-2.7165
X4.0Y-3.752
X4.0Y-3.8543
X4.0354Y-3.8031
X4.0394Y-4.0079
X4.065Y-3.5571
X4.0709Y-3.8543
X4.0748Y-3.752
X4.0984Y-3.6457
X4.1004Y-3.128
X4.1339Y-2.5591
X4.1417Y-2.7323
X4.1594Y-2.9626
X4.2008Y-3.2559
X4.2008Y-3.3583
X4.252Y-3.3071
X4.3031Y-3.2559
X4.3031Y-3.3583
X4.3327Y-3.5008
X4.3543Y-4.0906
X4.3937Y-2.7323
X4.4488Y-3.7126
X4.4594Y-3.0937
X4.5039Y-4.0394
X4.5433Y-2.8425
X4.5591Y-2.252
X4.5669Y-2.7008
X4.5709Y-3.1378
X4.5906Y-3.815
X4.5945Y-3.6378
X4.6024Y-3.0335
X4.6378Y-2.3386
X4.6417Y-2.563
X4.6693Y-4.1811
X4.6929Y-3.9685
X4.7205Y-3.7283
X4.8031Y-2.9528
X4.8425Y-3.8268
X4.8661Y-2.4291
X4.876Y-4.6693
X4.9055Y-4.3307
X4.9764Y-1.9567
X4.9764Y-3.4646
X5.0079Y-2.9449
X5.0236Y-2.1654
X5.0866Y-3.5984
X5.1142Y-2.5276
X5.1142Y-2.6339
X5.126Y-2.3465
X5.126Y-2.7795
X5.1323Y-4.1965
X5.1476Y-3.7453
X5.1476Y-3.7953
X5.148Y-3.8953
X5.1488Y-3.8453
X5.1969Y-3.2756
X5.2008Y-3.4646
X5.2244Y-4.0236
X5.2362Y-1.9488
X5.252Y-2.1732
X5.2913Y-3.5945
X5.3504Y-2.3071
X5.4016Y-3.0866
X5.4193Y-4.0079
X5.4252Y-3.2598
X5.4252Y-4.252
X5.4449Y-3.4606
X5.4646Y-2.4567
X5.4764Y-4.6713
X5.4882Y-3.5984
X5.4961Y-1.8327
X5.5354Y-3.1339
X5.5512Y-2.937
X5.5984Y-3.9567
X5.5984Y-4.0787
X5.6181Y-3.5118
X5.6555Y-2.5325
X5.6953Y-3.6953
X5.7402Y-2.6693
X5.748Y-3.2087
X5.748Y-3.2795
X5.7795Y-3.4843
X5.7835Y-3.2441
X5.7874Y-3.9843
X5.8031Y-4.0945
X5.815Y-3.2087
X5.815Y-3.2795
X5.8209Y-1.998
X5.8504Y-4.6732
X5.8829Y-3.1437
X5.9291Y-3.3976
X5.9606Y-4.2283
X5.9646Y-3.4843
X5.9685Y-2.3858
X5.9843Y-2.252
X5.9843Y-2.6142
X6.0Y-2.9528
X6.0551Y-3.7106
X6.0551Y-3.7894
X6.0827Y-3.3169
X6.1339Y-3.4803
X6.1575Y-2.2913
X6.1614Y-4.2323
X6.1654Y-2.5039
X6.1654Y-2.7402
X6.1654Y-2.9449
X6.1811Y-3.6791
X6.1969Y-4.0512
X6.2362Y-3.5197
X6.3386Y-2.252
X6.3386Y-2.5669
X6.3386Y-2.8583
X6.3543Y-3.5118
X6.3543Y-3.6457
X6.3543Y-3.8976
X6.3543Y-4.1496
T4
X3.3197Y-1.937
X3.3276Y-4.5709
X3.4197Y-1.937
X3.4276Y-4.5709
X3.5197Y-1.937
X3.5276Y-4.5709
X3.8028Y-1.939
X3.8028Y-2.039
X3.8028Y-4.4705
X3.8028Y-4.5705
X3.9028Y-1.939
X3.9028Y-2.039
X3.9028Y-4.4705
X3.9028Y-4.5705
X4.0028Y-1.939
X4.0028Y-2.039
X4.0028Y-4.4705
X4.0028Y-4.5705
X4.1028Y-1.939
X4.1028Y-2.039
X4.1028Y-4.4705
X4.1028Y-4.5705
X4.2028Y-1.939
X4.2028Y-2.039
X4.2028Y-4.4705
X4.2028Y-4.5705
X4.3028Y-1.939
X4.3028Y-2.039
X4.3028Y-4.4705
X4.3028Y-4.5705
X4.4028Y-1.939
X4.4028Y-2.039
X4.4028Y-4.4705
X4.4028Y-4.5705
X4.5028Y-1.939
X4.5028Y-2.039
X4.5028Y-4.4705
X4.5028Y-4.5705
X4.6028Y-1.939
X4.6028Y-2.039
X4.6028Y-4.4705
X4.6028Y-4.5705
X4.7028Y-1.939
X4.7028Y-2.039
X4.7028Y-4.4705
X4.7028Y-4.5705
T3
G00X6.3484Y-3.1033
M15
G01X6.3799Y-3.1033
M16
G05
G00X6.3799Y-3.3848
M15
G01X6.3484Y-3.3848
M16
G05
T0
M30
