M48
; DRILL file {KiCad (5.1.9)-1} date 08/26/21 02:42:57
; FORMAT={-:-/ absolute / inch / decimal}
; #@! TF.CreationDate,2021-08-26T02:42:57-04:00
; #@! TF.GenerationSoftware,Kicad,Pcbnew,(5.1.9)-1
; #@! TF.FileFunction,Plated,1,4,PTH
FMAT,2
INCH
T1C0.0079
T2C0.0118
T3C0.0177
T4C0.0394
%
G90
G05
T1
X3.1555Y-3.0866
X3.9291Y-3.6772
X4.1796Y-3.1058
X4.2224Y-3.1024
X4.5679Y-3.1949
X4.6004Y-3.0049
X4.8917Y-3.2293
X4.9724Y-3.2323
X4.9754Y-3.3169
X6.0433Y-3.8937
X6.1811Y-3.1988
X6.1811Y-3.3012
X6.2293Y-3.875
T2
X3.2126Y-4.6693
X3.2165Y-3.5118
X3.2205Y-3.3386
X3.2205Y-3.7205
X3.2205Y-4.1496
X3.2205Y-4.3465
X3.2283Y-2.315
X3.2283Y-3.0079
X3.2323Y-2.5551
X3.2323Y-2.752
X3.2362Y-2.0945
X3.2372Y-3.9183
X3.4035Y-3.435
X3.4449Y-4.374
X3.4518Y-2.1526
X3.4833Y-2.438
X3.502Y-2.7028
X3.5138Y-2.9882
X3.5157Y-3.3031
X3.5354Y-4.6693
X3.6161Y-4.3386
X3.6467Y-2.1742
X3.6752Y-4.5817
X3.7362Y-2.5266
X3.7372Y-2.9705
X3.7451Y-2.7677
X3.7618Y-4.0591
X3.8337Y-4.6811
X3.8898Y-3.6378
X3.936Y-2.5994
X4.0Y-3.752
X4.0Y-3.8543
X4.0354Y-3.8031
X4.0492Y-4.0502
X4.0512Y-2.3917
X4.065Y-3.5571
X4.0709Y-3.8543
X4.0748Y-3.752
X4.0984Y-3.6457
X4.1004Y-3.128
X4.1319Y-2.2589
X4.1476Y-2.8031
X4.1801Y-4.2441
X4.2008Y-3.2559
X4.2008Y-3.3583
X4.2323Y-4.6791
X4.252Y-3.3071
X4.3031Y-3.2559
X4.3031Y-3.3583
X4.4134Y-3.5965
X4.5157Y-3.8297
X4.5433Y-2.8425
X4.5453Y-3.6388
X4.5561Y-4.1112
X4.5669Y-2.7008
X4.5709Y-3.1378
X4.5837Y-2.1644
X4.6417Y-2.563
X4.6467Y-2.3346
X4.6983Y-3.5369
X4.7047Y-3.1122
X4.7849Y-3.5664
X4.8031Y-2.9528
X4.8435Y-3.8917
X4.8661Y-2.4291
X4.876Y-4.6693
X4.8799Y-3.5906
X4.9173Y-4.2441
X4.9675Y-3.1457
X4.9764Y-3.4646
X4.9916Y-3.6373
X4.9961Y-1.8937
X4.998Y-2.0709
X5.0079Y-2.9449
X5.063Y-4.0197
X5.0709Y-3.0709
X5.0866Y-3.5984
X5.1024Y-3.2441
X5.1142Y-2.5276
X5.1142Y-2.6339
X5.126Y-2.7795
X5.1526Y-2.3573
X5.1988Y-2.1742
X5.2008Y-3.4646
X5.2283Y-3.1152
X5.2707Y-3.6457
X5.2825Y-4.0177
X5.2904Y-1.8612
X5.3051Y-3.1801
X5.3504Y-2.3071
X5.3642Y-3.4724
X5.3898Y-4.2333
X5.4301Y-3.2894
X5.4498Y-2.0344
X5.4616Y-2.8474
X5.4646Y-2.4055
X5.4754Y-3.6378
X5.4764Y-4.6713
X5.4882Y-1.8573
X5.5394Y-3.2992
X5.56Y-4.0138
X5.563Y-3.1073
X5.5906Y-4.2333
X5.6467Y-3.5108
X5.6476Y-2.7096
X5.6953Y-3.6953
X5.748Y-3.2087
X5.748Y-3.2795
X5.7835Y-3.2441
X5.815Y-3.2087
X5.815Y-3.2795
X5.8209Y-1.998
X5.8504Y-4.6732
X5.878Y-3.4262
X5.8829Y-3.1437
X5.8888Y-4.0866
X5.9203Y-2.4596
X5.9734Y-2.6447
X5.9774Y-2.2628
X5.9833Y-2.8878
X6.0531Y-4.4124
X6.0551Y-3.7106
X6.0551Y-3.7894
X6.0827Y-3.3169
X6.1033Y-3.1663
X6.1289Y-3.4843
X6.1339Y-3.3071
X6.1526Y-2.624
X6.1604Y-2.9429
X6.1634Y-2.3002
X6.1683Y-3.9587
X6.1811Y-3.6791
X6.1821Y-4.2077
X6.3041Y-3.5128
X6.3386Y-2.8583
X6.3425Y-2.5955
X6.3494Y-2.1457
X6.3524Y-4.1161
X6.3543Y-3.6457
X6.3543Y-3.8976
X6.3563Y-2.3642
X6.3612Y-4.3681
T4
X3.3197Y-1.937
X3.3276Y-4.5709
X3.4197Y-1.937
X3.4276Y-4.5709
X3.5197Y-1.937
X3.5276Y-4.5709
X3.8028Y-1.939
X3.8028Y-2.039
X3.8028Y-4.4705
X3.8028Y-4.5705
X3.9028Y-1.939
X3.9028Y-2.039
X3.9028Y-4.4705
X3.9028Y-4.5705
X4.0028Y-1.939
X4.0028Y-2.039
X4.0028Y-4.4705
X4.0028Y-4.5705
X4.1028Y-1.939
X4.1028Y-2.039
X4.1028Y-4.4705
X4.1028Y-4.5705
X4.2028Y-1.939
X4.2028Y-2.039
X4.2028Y-4.4705
X4.2028Y-4.5705
X4.3028Y-1.939
X4.3028Y-2.039
X4.3028Y-4.4705
X4.3028Y-4.5705
X4.4028Y-1.939
X4.4028Y-2.039
X4.4028Y-4.4705
X4.4028Y-4.5705
X4.5028Y-1.939
X4.5028Y-2.039
X4.5028Y-4.4705
X4.5028Y-4.5705
X4.6028Y-1.939
X4.6028Y-2.039
X4.6028Y-4.4705
X4.6028Y-4.5705
X4.7028Y-1.939
X4.7028Y-2.039
X4.7028Y-4.4705
X4.7028Y-4.5705
T3
G00X6.3484Y-3.1033
M15
G01X6.3799Y-3.1033
M16
G05
G00X6.3799Y-3.3848
M15
G01X6.3484Y-3.3848
M16
G05
T0
M30
